<svg xmlns="http://www.w3.org/2000/svg" xmlns:xlink="http://www.w3.org/1999/xlink" width="164.575" height="163.314" viewBox="0 0 164.575 163.314">
  <defs>
    <linearGradient id="linear-gradient" x1="0.5" x2="0.5" y2="1" gradientUnits="objectBoundingBox">
      <stop offset="0" stop-color="#1934a3" stop-opacity="0"/>
      <stop offset="1" stop-color="#111" stop-opacity="0.341"/>
    </linearGradient>
    <clipPath id="clip-path">
      <rect id="Rectangle_629" data-name="Rectangle 629" width="164.575" height="163.314" rx="81.657" fill="url(#linear-gradient)"/>
    </clipPath>
    <clipPath id="clip-path-2">
      <path id="Path_445" data-name="Path 445" d="M0,0H2.436V2.278H0Z" fill="none"/>
    </clipPath>
    <clipPath id="clip-path-3">
      <path id="Path_589" data-name="Path 589" d="M0,65.292H98.879V0H0Z" fill="none"/>
    </clipPath>
  </defs>
  <g id="Group_1" data-name="Group 1" clip-path="url(#clip-path)">
    <g id="roaya">
      <g id="Group_243" data-name="Group 243">
        <path id="Path_436" data-name="Path 436" d="M82.277,162.2A81.224,81.224,0,0,1,24.883,138.61,80.424,80.424,0,0,1,50.683,7.438,81.506,81.506,0,0,1,139.671,24.7a80.424,80.424,0,0,1-25.8,131.172A81.2,81.2,0,0,1,82.277,162.2Z" transform="translate(0.011 0.002)" fill="#fff"/>
        <path id="Path_437" data-name="Path 437" d="M82.288,2.222a80.1,80.1,0,0,0-56.6,23.266A79.315,79.315,0,0,0,51.13,154.851a80.38,80.38,0,0,0,87.761-17.025A79.315,79.315,0,0,0,113.445,8.464,80.075,80.075,0,0,0,82.288,2.222m0-2.222c45.446,0,82.288,36.559,82.288,81.657s-36.841,81.657-82.288,81.657S0,126.755,0,81.657,36.841,0,82.288,0Z" fill="#f2f3f7"/>
      </g>
      <g id="Group_247" data-name="Group 247" transform="translate(32.916 52.26)">
        <path id="Path_438" data-name="Path 438" d="M0,1.311H1.321V0H0Z" transform="translate(58.76 1.74)" fill="#708187"/>
        <path id="Path_439" data-name="Path 439" d="M0,1.311H1.321V0H0Z" transform="translate(60.742 1.74)" fill="#708187"/>
        <path id="Path_440" data-name="Path 440" d="M0,1.311H1.321V0H0Z" transform="translate(81.871 14.843)" fill="#708187"/>
        <path id="Path_441" data-name="Path 441" d="M0,1.311H1.321V0H0Z" transform="translate(79.228 14.843)" fill="#708187"/>
        <path id="Path_442" data-name="Path 442" d="M1.91,10.255A1.623,1.623,0,0,0,2.571,9.7a2.354,2.354,0,0,0,.354-.875,5.853,5.853,0,0,0,.105-1.16V0H1.91V7.666a5.387,5.387,0,0,1-.045.778,1.456,1.456,0,0,1-.166.52.7.7,0,0,1-.32.287,1.3,1.3,0,0,1-.522.089,2.2,2.2,0,0,1-.264-.007,2.194,2.194,0,0,1-.307-.064L0,10.323a3.453,3.453,0,0,0,.9.12A2.369,2.369,0,0,0,1.9,10.252" transform="translate(92.979 3.373)" fill="#708187"/>
        <g id="Group_245" data-name="Group 245" transform="translate(88.631)">
          <path id="Path_443" data-name="Path 443" d="M0,0H2.436V2.278H0Z" fill="none"/>
          <g id="Group_244" data-name="Group 244" clip-path="url(#clip-path-2)">
            <path id="Path_444" data-name="Path 444" d="M2.423,1.427H.9V1.171a.5.5,0,0,1,.09-.32.45.45,0,0,1,.343-.1h.764V0H1.308A1.35,1.35,0,0,0,.327.32a1.422,1.422,0,0,0-.34,1.055v.889H2.423Z" transform="translate(0.013 0.007)" fill="#708187"/>
          </g>
        </g>
        <path id="Path_446" data-name="Path 446" d="M0,65.292H98.879V0H0Z" fill="none"/>
        <g id="Group_246" data-name="Group 246" clip-path="url(#clip-path-3)">
          <path id="Path_447" data-name="Path 447" d="M3.276,10.443a4.315,4.315,0,0,1-.99-.116,10.336,10.336,0,0,1-1.133-.349L1.5,8.926a5.447,5.447,0,0,0,.938.327,4.1,4.1,0,0,0,.925.1,2.338,2.338,0,0,0,1.4-.369,1.437,1.437,0,0,0,.5-1.233V6.666l-.374.773H4.6a7.123,7.123,0,0,1-1.763-.222,4.441,4.441,0,0,1-1.468-.651,3.234,3.234,0,0,1-1-1.138A3.515,3.515,0,0,1,0,3.764a3.422,3.422,0,0,1,.327-1.5A3.533,3.533,0,0,1,1.27,1.075,4.567,4.567,0,0,1,2.721.289,5.834,5.834,0,0,1,4.6,0H6.375V7.639a2.829,2.829,0,0,1-.737,2.046,3.191,3.191,0,0,1-2.362.758ZM4.1,1.111a3.425,3.425,0,0,0-1.09.191,3.175,3.175,0,0,0-.965.538,2.714,2.714,0,0,0-.672.844A2.31,2.31,0,0,0,1.12,3.777a2.45,2.45,0,0,0,.224,1.084A2.334,2.334,0,0,0,2,5.671a2.964,2.964,0,0,0,.965.5,3.908,3.908,0,0,0,1.173.173h1.12V1.42L5.9,1.111Z" transform="translate(84.69 3.373)" fill="#708187"/>
          <path id="Path_448" data-name="Path 448" d="M29.458,10.335H9.181a2.365,2.365,0,0,1-1.008-.191,1.623,1.623,0,0,1-.661-.553A.853.853,0,0,1,7.459,9.5l-.016-.027v.82h-2.3A5.1,5.1,0,0,1,1.417,8.764,5.14,5.14,0,0,1,0,5.175V5.146a5.165,5.165,0,0,1,1.431-3.6A5.121,5.121,0,0,1,5.166,0h3V7.555a5.456,5.456,0,0,0,.049.787,1.474,1.474,0,0,0,.166.52.7.7,0,0,0,.32.287,1.308,1.308,0,0,0,.522.089h19.12V0h1.12V10.332ZM5.137,1.038a3.963,3.963,0,0,0-2.853,1.2,3.9,3.9,0,0,0-1.1,2.874V5.14A3.983,3.983,0,0,0,2.305,8.027,4.045,4.045,0,0,0,5.168,9.255h2.17a2.627,2.627,0,0,1-.172-.544A5.86,5.86,0,0,1,7.06,7.555V1.375l.672-.336Z" transform="translate(53.415 3.375)" fill="#708187"/>
          <path id="Path_449" data-name="Path 449" d="M7.68,7.586l.484,1.262L1.1,0H0V10.286H1.149V2.533l-.654-1.5,7.389,9.25h.94V0H7.68Z" transform="translate(40.171 3.362)" fill="#708187"/>
          <path id="Path_450" data-name="Path 450" d="M12.2,10.168,18.614,4.14V0H1.485V4.708h8.782l3.262-2.066L5.4,10.7l.873,3.5H8.583c3.115,0,4.962,1.142,4.962,3.175v.071a3.137,3.137,0,0,1-1.112,2.307,3.187,3.187,0,0,1-2.471.726,7.773,7.773,0,0,1-6.122-3L0,21.085A12.38,12.38,0,0,0,9.888,25.4c5.649,0,9.127-3.46,9.127-8.17v-.071c0-4.64-3.359-6.422-6.809-6.993" transform="translate(51.483 19.911)" fill="#708187"/>
          <path id="Path_451" data-name="Path 451" d="M5.309,10.637A5.265,5.265,0,0,1,1.462,9.055,5.31,5.31,0,0,1,0,5.346V5.317A5.335,5.335,0,0,1,1.478,1.6,5.291,5.291,0,0,1,5.338,0,5.265,5.265,0,0,1,9.181,1.58a5.311,5.311,0,0,1,1.462,3.709V5.32a5.335,5.335,0,0,1-1.462,3.72,5.291,5.291,0,0,1-3.872,1.6Zm0-9.555A4.093,4.093,0,0,0,2.356,2.325,4.029,4.029,0,0,0,1.223,5.3v.031A4.107,4.107,0,0,0,2.391,8.3,4.171,4.171,0,0,0,5.338,9.555,4.093,4.093,0,0,0,8.292,8.311,4.029,4.029,0,0,0,9.425,5.333V5.317A4.107,4.107,0,0,0,8.266,2.336,4.171,4.171,0,0,0,5.309,1.071Z" transform="translate(27.595 3.186)" fill="#708187"/>
          <path id="Path_452" data-name="Path 452" d="M13.435,25.826a13.681,13.681,0,0,1-9.651-3.76A12.572,12.572,0,0,1,0,12.983V12.91A12.632,12.632,0,0,1,3.82,3.8,13.736,13.736,0,0,1,13.507,0a13.681,13.681,0,0,1,9.651,3.76,12.572,12.572,0,0,1,3.784,9.081v.071a12.635,12.635,0,0,1-3.82,9.11A13.736,13.736,0,0,1,13.435,25.826Zm0-20.765A7.582,7.582,0,0,0,7.952,7.334a7.463,7.463,0,0,0-2.13,5.5v.071A7.623,7.623,0,0,0,8,18.439a7.743,7.743,0,0,0,5.506,2.321,7.582,7.582,0,0,0,5.483-2.272,7.463,7.463,0,0,0,2.13-5.5V12.91a7.623,7.623,0,0,0-2.179-5.528,7.743,7.743,0,0,0-5.506-2.32Z" transform="translate(71.935 19.487)" fill="#708187"/>
          <path id="Path_453" data-name="Path 453" d="M0,10.286H1.178V0H0Z" transform="translate(24.385 3.362)" fill="#708187"/>
          <path id="Path_454" data-name="Path 454" d="M5.226,22.478,6.3,21.66l5.54-4.222c4.49-3.417,6.664-5.486,6.664-9.661V7.706C18.507,3.033,15.029,0,9.778,0A10.617,10.617,0,0,0,.325,5.175L4.237,8.286C6.12,6,7.461,4.931,9.416,4.931a3.114,3.114,0,0,1,2.457.84,3.063,3.063,0,0,1,.949,2.4c0,2.069-1.232,3.424-4.382,6L0,20.978v4.353H18.76V20.585H9.093Z" transform="translate(0.231 19.554)" fill="#708187"/>
          <path id="Path_455" data-name="Path 455" d="M5.533,10.359,10.023,0H8.755L5.206,8.43,5.32,9.561l-.3-.7L1.955,1.531,1.312,0H0L4.49,10.359Z" transform="translate(0 3.362)" fill="#708187"/>
          <path id="Path_456" data-name="Path 456" d="M0,10.286H1.178V0H0Z" transform="translate(11.624 3.362)" fill="#708187"/>
          <path id="Path_457" data-name="Path 457" d="M4.429,4.726C2.132,4.242,1.6,3.7,1.6,2.726V2.7c0-.92.867-1.66,2.221-1.66A4.627,4.627,0,0,1,6.829,2.149l.685-.889A5.5,5.5,0,0,0,3.847,0,3.1,3.1,0,0,0,1.529.675,3.05,3.05,0,0,0,.414,2.8v.029c0,1.691,1.1,2.444,3.5,2.969,2.192.458,2.714,1,2.714,1.955v.022c0,1.013-.925,1.749-2.326,1.749A5.011,5.011,0,0,1,.723,8.073L0,8.928a6.157,6.157,0,0,0,4.254,1.647c2.073,0,3.565-1.147,3.565-2.909V7.637c0-1.573-1.073-2.409-3.4-2.909" transform="translate(14.611 3.22)" fill="#708187"/>
          <path id="Path_458" data-name="Path 458" d="M0,.644H.654V0H0Z" transform="translate(5.15 57.361)" fill="#708187"/>
          <path id="Path_459" data-name="Path 459" d="M9.83,4.255H2.624a3.916,3.916,0,0,1-1-.127,2.472,2.472,0,0,1-.835-.384,1.926,1.926,0,0,1-.562-.655A2,2,0,0,1,0,2.131a1.945,1.945,0,0,1,.186-.847A2,2,0,0,1,.714.607,2.521,2.521,0,0,1,1.541.162,3.462,3.462,0,0,1,2.624,0h1V3.626h2.53V0h.636V3.626H9.2V0h.636V4.253ZM2.36.627a1.978,1.978,0,0,0-.636.1,1.78,1.78,0,0,0-.553.307,1.558,1.558,0,0,0-.39.478,1.3,1.3,0,0,0-.148.615,1.428,1.428,0,0,0,.134.631,1.386,1.386,0,0,0,.369.471,1.681,1.681,0,0,0,.549.293,2.183,2.183,0,0,0,.672.1h.629v-3Z" transform="translate(39.295 52.362)" fill="#708187"/>
          <path id="Path_460" data-name="Path 460" d="M0,5.624H.636V0H0Z" transform="translate(35.513 50.993)" fill="#708187"/>
          <path id="Path_461" data-name="Path 461" d="M0,.644H.654V0H0Z" transform="translate(42.264 50.993)" fill="#708187"/>
          <path id="Path_462" data-name="Path 462" d="M0,.644H.654V0H0Z" transform="translate(48.48 57.355)" fill="#708187"/>
          <path id="Path_463" data-name="Path 463" d="M0,.644H.654V0H0Z" transform="translate(6.265 57.361)" fill="#708187"/>
          <path id="Path_464" data-name="Path 464" d="M1.876,7.35a2.481,2.481,0,0,1-.569-.064,5.784,5.784,0,0,1-.649-.2l.2-.6a3.172,3.172,0,0,0,.537.18,2.378,2.378,0,0,0,.528.053,1.331,1.331,0,0,0,.8-.222.821.821,0,0,0,.289-.711V5.624H2.633A4.1,4.1,0,0,1,1.623,5.5a2.535,2.535,0,0,1-.84-.376A1.842,1.842,0,0,1,.21,4.475,2,2,0,0,1,0,3.524a1.954,1.954,0,0,1,.19-.858,2.015,2.015,0,0,1,.533-.682,2.617,2.617,0,0,1,.833-.451,3.349,3.349,0,0,1,1.075-.164H3.65V5h2.2L4.734,2.371a5.489,5.489,0,0,1,.526-.413,3.917,3.917,0,0,1,.589-.338,3.808,3.808,0,0,1,.62-.222A2.357,2.357,0,0,1,7.7,1.4a3.531,3.531,0,0,1,.614.222,4.828,4.828,0,0,1,.589.338,5.551,5.551,0,0,1,.542.411L8.327,4.993h3.341V1.762h.647V5h1.234a1.367,1.367,0,0,0,.405-.06.954.954,0,0,0,.343-.187.909.909,0,0,0,.237-.329,1.229,1.229,0,0,0,.09-.491V1.762h.625V3.984a1.064,1.064,0,0,0,.1.429,1.112,1.112,0,0,0,.264.349,1.256,1.256,0,0,0,.4.236,1.452,1.452,0,0,0,.508.087,1.149,1.149,0,0,0,.9-.327,1.247,1.247,0,0,0,.3-.867V1.762h.636V3.777a2.66,2.66,0,0,1-.056.589,1.17,1.17,0,0,0,.5.469,2.011,2.011,0,0,0,.876.156H20.71V0h.636V5.624H19.505a2.443,2.443,0,0,1-.448-.056A1.787,1.787,0,0,1,18.61,5.4a1.119,1.119,0,0,1-.3-.222,1.723,1.723,0,0,1-.2-.262,1.356,1.356,0,0,1-.616.6,2.222,2.222,0,0,1-.974.2,2.008,2.008,0,0,1-.947-.211,1.616,1.616,0,0,1-.629-.589,1.635,1.635,0,0,1-.584.524,1.708,1.708,0,0,1-.824.2H3.65v.118a1.619,1.619,0,0,1-.421,1.171,1.827,1.827,0,0,1-1.344.444ZM7.087,2a2.327,2.327,0,0,0-.817.144,2.534,2.534,0,0,0-.752.444L6.512,5H7.658l.994-2.406a2.55,2.55,0,0,0-.717-.42A2.283,2.283,0,0,0,7.087,2ZM2.369,2a1.939,1.939,0,0,0-.645.113,1.818,1.818,0,0,0-.553.309,1.538,1.538,0,0,0-.39.482,1.325,1.325,0,0,0-.146.62,1.4,1.4,0,0,0,.132.627,1.335,1.335,0,0,0,.374.462A1.713,1.713,0,0,0,1.7,4.9a2.255,2.255,0,0,0,.672.1h.645V2Z" transform="translate(12.318 50.993)" fill="#708187"/>
          <path id="Path_465" data-name="Path 465" d="M0,.644H.654V0H0Z" transform="translate(2.971 50.993)" fill="#708187"/>
          <path id="Path_466" data-name="Path 466" d="M0,.644H.654V0H0Z" transform="translate(67.341 50.993)" fill="#708187"/>
          <path id="Path_467" data-name="Path 467" d="M0,5.624H.636V0H0Z" transform="translate(61.702 50.993)" fill="#708187"/>
          <path id="Path_468" data-name="Path 468" d="M0,.644H.654V0H0Z" transform="translate(41.149 50.993)" fill="#708187"/>
          <path id="Path_469" data-name="Path 469" d="M3.618,1.778a2.312,2.312,0,0,0-.1-.689,1.439,1.439,0,0,0-.3-.542A1.71,1.71,0,0,0,2.644.133,1.916,1.916,0,0,0,1.879,0h-.47V.624h.558a1.012,1.012,0,0,1,.448.1,1.029,1.029,0,0,1,.331.256.948.948,0,0,1,.186.356,1.859,1.859,0,0,1,.052.471V3.622H0v.627H3.618Z" transform="translate(7.685 52.364)" fill="#708187"/>
          <path id="Path_470" data-name="Path 470" d="M0,5.624H.636V0H0Z" transform="translate(95.371 50.993)" fill="#708187"/>
          <path id="Path_471" data-name="Path 471" d="M0,.644H.654V0H0Z" transform="translate(68.454 50.993)" fill="#708187"/>
          <path id="Path_472" data-name="Path 472" d="M23.086,6.337a2.24,2.24,0,0,1-.918-.191,2.3,2.3,0,0,1-.737-.524h-2.81a2.262,2.262,0,0,1-.759.524,2.412,2.412,0,0,1-.952.189,2.254,2.254,0,0,1-.925-.191,2.31,2.31,0,0,1-.737-.524H2.624a3.911,3.911,0,0,1-1-.127,2.472,2.472,0,0,1-.837-.382,1.926,1.926,0,0,1-.562-.655A1.987,1.987,0,0,1,0,3.5a1.945,1.945,0,0,1,.186-.833,2,2,0,0,1,.528-.689,2.514,2.514,0,0,1,.826-.444,3.457,3.457,0,0,1,1.082-.162H3.627V5H9.514v-.96a2.011,2.011,0,0,0-.047-.444.849.849,0,0,0-.184-.362.9.9,0,0,0-.354-.247,1.353,1.353,0,0,0-.522-.1H5.161a1.11,1.11,0,0,1-.186-.282,1.341,1.341,0,0,1-.1-.353L6.1,0h.692L5.6,2.26h2.81a2.029,2.029,0,0,1,.788.131,1.614,1.614,0,0,1,.558.409,1.394,1.394,0,0,1,.3.551,2.44,2.44,0,0,1,.1.687V5h2.029V0h.638V5h2.015a2.651,2.651,0,0,1-.139-.444,2.175,2.175,0,0,1-.052-.482,2.268,2.268,0,0,1,1.377-2.1,2.227,2.227,0,0,1,.889-.189,2.392,2.392,0,0,1,.918.176,2.279,2.279,0,0,1,.734.482,2.234,2.234,0,0,1,.49.724,2.3,2.3,0,0,1,.179.9,2.194,2.194,0,0,1-.2.924h1.973a2.706,2.706,0,0,1-.139-.444,2.205,2.205,0,0,1-.045-.471,2.266,2.266,0,0,1,1.37-2.106,2.227,2.227,0,0,1,.891-.189A2.39,2.39,0,0,1,24,1.953a2.288,2.288,0,0,1,.737.482,2.243,2.243,0,0,1,.488.724,2.3,2.3,0,0,1,.179.9,2.194,2.194,0,0,1-.2.924H27.4V0h.636V5.624H24.8a2.266,2.266,0,0,1-.759.524,2.41,2.41,0,0,1-.954.189Zm0-3.926a1.582,1.582,0,0,0-1.169.489,1.658,1.658,0,0,0-.338.524,1.675,1.675,0,0,0-.123.64,1.651,1.651,0,0,0,.461,1.155,1.632,1.632,0,0,0,1.167.482,1.8,1.8,0,0,0,.672-.12,1.6,1.6,0,0,0,.9-.867,1.616,1.616,0,0,0,.132-.655,1.693,1.693,0,0,0-.128-.667,1.586,1.586,0,0,0-.354-.524,1.69,1.69,0,0,0-.533-.344,1.786,1.786,0,0,0-.672-.118Zm-6.173,0a1.591,1.591,0,0,0-1.169.489,1.663,1.663,0,0,0-.34.524,1.7,1.7,0,0,0-.123.64,1.655,1.655,0,0,0,.466,1.158A1.632,1.632,0,0,0,16.91,5.7a1.8,1.8,0,0,0,.672-.12A1.613,1.613,0,0,0,18.6,4.066a1.693,1.693,0,0,0-.128-.667,1.555,1.555,0,0,0-.358-.511,1.69,1.69,0,0,0-.533-.344,1.788,1.788,0,0,0-.674-.131ZM2.36,2a1.971,1.971,0,0,0-.636.1,1.8,1.8,0,0,0-.553.3,1.582,1.582,0,0,0-.39.482A1.292,1.292,0,0,0,.634,3.5a1.435,1.435,0,0,0,.134.631,1.386,1.386,0,0,0,.369.469,1.675,1.675,0,0,0,.551.284,2.183,2.183,0,0,0,.672.1h.627V2Z" transform="translate(65.484 50.993)" fill="#708187"/>
          <path id="Path_473" data-name="Path 473" d="M6.794,4.255H2.624a3.925,3.925,0,0,1-1-.127,2.472,2.472,0,0,1-.835-.384,1.926,1.926,0,0,1-.562-.655A2,2,0,0,1,0,2.131a1.945,1.945,0,0,1,.186-.847A2,2,0,0,1,.714.607,2.53,2.53,0,0,1,1.543.162,3.466,3.466,0,0,1,2.624,0h1V3.626h2.53V0h.636V4.253ZM2.362.627a1.978,1.978,0,0,0-.638.1,1.78,1.78,0,0,0-.553.307,1.576,1.576,0,0,0-.39.478,1.3,1.3,0,0,0-.146.615,1.428,1.428,0,0,0,.134.631,1.393,1.393,0,0,0,.369.471,1.7,1.7,0,0,0,.549.293,2.181,2.181,0,0,0,.672.1h.627v-3Z" transform="translate(0.002 52.364)" fill="#708187"/>
          <path id="Path_474" data-name="Path 474" d="M0,.644H.654V0H0Z" transform="translate(46.154 57.361)" fill="#708187"/>
          <path id="Path_475" data-name="Path 475" d="M0,.644H.654V0H0Z" transform="translate(45.039 57.361)" fill="#708187"/>
          <path id="Path_476" data-name="Path 476" d="M.517,7.35A1.985,1.985,0,0,1,0,7.279l.168-.613a1.258,1.258,0,0,0,.175.04,1.264,1.264,0,0,0,.152,0,.742.742,0,0,0,.3-.04A.4.4,0,0,0,.974,6.5a.827.827,0,0,0,.1-.3A3.127,3.127,0,0,0,1.1,5.759V1.369h.636V5H4.1L2.985,2.371a5.654,5.654,0,0,1,.524-.413A3.931,3.931,0,0,1,4.1,1.62,3.774,3.774,0,0,1,4.716,1.4a2.431,2.431,0,0,1,.62-.084,2.366,2.366,0,0,1,.614.082,3.5,3.5,0,0,1,.611.222,4.8,4.8,0,0,1,.589.338,5.728,5.728,0,0,1,.54.411L6.57,4.993H9.286V0h.638V5.624H1.733v.131a3.321,3.321,0,0,1-.06.667,1.347,1.347,0,0,1-.2.5.927.927,0,0,1-.378.318,1.352,1.352,0,0,1-.575.111ZM5.336,2a2.327,2.327,0,0,0-.806.14,2.552,2.552,0,0,0-.752.444l.994,2.406H5.909L6.9,2.584a2.568,2.568,0,0,0-.717-.42A2.284,2.284,0,0,0,5.338,2Z" transform="translate(49.929 50.993)" fill="#708187"/>
          <path id="Path_477" data-name="Path 477" d="M0,.644H.654V0H0Z" transform="translate(1.856 50.993)" fill="#708187"/>
          <path id="Path_478" data-name="Path 478" d="M3.941,0H2.96L.8,2.251V0H0V4.477H.8V3.18l.708-.718L3.059,4.477h.972L2.053,1.922Z" transform="translate(0.622 60.737)" fill="#708187"/>
          <path id="Path_479" data-name="Path 479" d="M0,4.477H.8V0H0Z" transform="translate(5.378 60.737)" fill="#708187"/>
          <path id="Path_480" data-name="Path 480" d="M3.175,3.1.741,0H0V4.477H.786V1.291L3.294,4.477h.672V0h-.79Z" transform="translate(7.407 60.737)" fill="#708187"/>
          <path id="Path_481" data-name="Path 481" d="M2.315,2.731H3.477v.838a1.875,1.875,0,0,1-1.1.338,1.517,1.517,0,0,1-1.127-.461A1.493,1.493,0,0,1,.835,2.309V2.3a1.511,1.511,0,0,1,.4-1.1A1.534,1.534,0,0,1,2.309.713a1.8,1.8,0,0,1,1.274.48L4.091.6A2.475,2.475,0,0,0,2.342,0,2.32,2.32,0,0,0,.682.666,2.284,2.284,0,0,0,0,2.309v.013A2.213,2.213,0,0,0,.665,3.989a2.249,2.249,0,0,0,1.689.637,2.924,2.924,0,0,0,1.9-.7V2.046H2.315Z" transform="translate(12.36 60.668)" fill="#708187"/>
          <path id="Path_482" data-name="Path 482" d="M1.7,4.464H0V-.013H1.7a2.268,2.268,0,0,1,1.7.6,2.232,2.232,0,0,1,.718,1.639h0a2.238,2.238,0,0,1-.718,1.641,2.274,2.274,0,0,1-1.7.6ZM.8.7V3.749h.9a1.489,1.489,0,0,0,1.117-.412,1.465,1.465,0,0,0,.451-1.095v-.02a1.472,1.472,0,0,0-.447-1.1A1.5,1.5,0,0,0,1.7.7Z" transform="translate(17.714 60.75)" fill="#708187"/>
          <path id="Path_483" data-name="Path 483" d="M2.369,4.628A2.3,2.3,0,0,1,.689,3.98,2.267,2.267,0,0,1,0,2.326V2.313A2.289,2.289,0,0,1,.672.682,2.4,2.4,0,0,1,2.382,0a2.3,2.3,0,0,1,1.68.647A2.269,2.269,0,0,1,4.754,2.3v.013a2.284,2.284,0,0,1-.672,1.631,2.4,2.4,0,0,1-1.713.684Zm0-3.909a1.535,1.535,0,0,0-1.106.465A1.511,1.511,0,0,0,.837,2.3v.013A1.549,1.549,0,0,0,1.275,3.43a1.573,1.573,0,0,0,1.107.477A1.535,1.535,0,0,0,3.49,3.442a1.511,1.511,0,0,0,.427-1.115V2.313a1.522,1.522,0,0,0-.429-1.127A1.546,1.546,0,0,0,2.369.718Z" transform="translate(22.573 60.663)" fill="#708187"/>
          <path id="Path_484" data-name="Path 484" d="M2.239,2.118.851,0H0V4.477H.786V1.28l1.422,2.1h.031L3.668,1.267V4.477h.811V0H3.627Z" transform="translate(28.319 60.737)" fill="#708187"/>
          <path id="Path_485" data-name="Path 485" d="M2.369,4.628A2.3,2.3,0,0,1,.689,3.98,2.267,2.267,0,0,1,0,2.326V2.313A2.289,2.289,0,0,1,.672.682,2.4,2.4,0,0,1,2.382,0a2.3,2.3,0,0,1,1.68.647A2.269,2.269,0,0,1,4.754,2.3v.013a2.284,2.284,0,0,1-.672,1.631,2.4,2.4,0,0,1-1.713.684Zm0-3.909a1.535,1.535,0,0,0-1.106.465A1.511,1.511,0,0,0,.837,2.3v.013A1.549,1.549,0,0,0,1.275,3.43a1.573,1.573,0,0,0,1.107.477A1.535,1.535,0,0,0,3.49,3.442a1.511,1.511,0,0,0,.427-1.115V2.313a1.522,1.522,0,0,0-.429-1.127A1.546,1.546,0,0,0,2.369.718Z" transform="translate(35.704 60.663)" fill="#708187"/>
          <path id="Path_486" data-name="Path 486" d="M0,4.477H.8V2.655H3.092V1.938H.8V.718H3.383V0H0Z" transform="translate(41.449 60.737)" fill="#708187"/>
          <path id="Path_487" data-name="Path 487" d="M2.058,1.92c-.869-.2-1.077-.364-1.077-.7V1.2c0-.3.273-.538.739-.538a2.083,2.083,0,0,1,1.234.458l.43-.587a2.543,2.543,0,0,0-1.65-.562A1.393,1.393,0,0,0,.673.289a1.372,1.372,0,0,0-.491.984v.013C.181,2.113.728,2.4,1.7,2.62c.844.191,1.026.364,1.026.684v.013c0,.34-.311.564-.8.564A2.107,2.107,0,0,1,.481,3.3L0,3.864a2.827,2.827,0,0,0,1.9.718c.954,0,1.623-.5,1.623-1.333V3.231c0-.742-.5-1.08-1.462-1.311" transform="translate(47.354 60.699)" fill="#708187"/>
          <path id="Path_488" data-name="Path 488" d="M.82,4.511H0L2,0h.741l2,4.508H3.9L3.435,3.426H1.285ZM2.358.94l-.79,1.793H3.135Z" transform="translate(51.322 60.705)" fill="#708187"/>
          <path id="Path_489" data-name="Path 489" d="M3.061,2.58c0,.824-.434,1.244-1.142,1.244S.771,3.38.771,2.546V0h-.8V2.58a1.769,1.769,0,0,0,.5,1.44,1.8,1.8,0,0,0,1.438.531,1.817,1.817,0,0,0,1.457-.538,1.787,1.787,0,0,0,.5-1.461V0h-.8Z" transform="translate(56.561 60.737)" fill="#708187"/>
          <path id="Path_490" data-name="Path 490" d="M1.7,4.464H0V-.013H1.7a2.268,2.268,0,0,1,1.7.6,2.232,2.232,0,0,1,.717,1.638h0a2.239,2.239,0,0,1-.717,1.641,2.274,2.274,0,0,1-1.7.6ZM.8.7V3.749h.9a1.489,1.489,0,0,0,1.117-.412,1.465,1.465,0,0,0,.451-1.095v-.02a1.472,1.472,0,0,0-.447-1.1A1.5,1.5,0,0,0,1.7.7Z" transform="translate(61.591 60.75)" fill="#708187"/>
          <path id="Path_491" data-name="Path 491" d="M0,4.477H.8V0H0Z" transform="translate(66.712 60.737)" fill="#708187"/>
          <path id="Path_492" data-name="Path 492" d="M.82,4.511H0L2,0h.741l2,4.508H3.9L3.435,3.426H1.285ZM2.358.94l-.79,1.793H3.135Z" transform="translate(70.285 60.705)" fill="#708187"/>
          <path id="Path_493" data-name="Path 493" d="M.8,4.473H0V0H2.015A1.852,1.852,0,0,1,3.327.444a1.343,1.343,0,0,1,.376.967V1.42A1.347,1.347,0,0,1,2.62,2.778L3.847,4.471H2.911L1.791,2.915H.8V4.471ZM.8.711V2.222H1.968c.569,0,.943-.3.943-.758V1.451c0-.471-.352-.74-.949-.74Z" transform="translate(75.78 60.743)" fill="#708187"/>
          <path id="Path_494" data-name="Path 494" d="M.82,4.511H0L2,0h.741l2,4.508H3.9L3.435,3.426H1.285ZM2.358.94l-.79,1.793H3.135Z" transform="translate(80.225 60.705)" fill="#708187"/>
          <path id="Path_495" data-name="Path 495" d="M2.1,4.471H0V0H2.04A1.658,1.658,0,0,1,3.229.4a.994.994,0,0,1,.3.742v0a1.057,1.057,0,0,1-.649,1,1.1,1.1,0,0,1,.9,1.089v.013C3.786,4,3.157,4.471,2.1,4.471ZM.786,2.546V3.777H2.114c.558,0,.878-.222.878-.615V3.144c0-.393-.322-.6-.936-.6Zm0-1.855V1.878h1.09c.544,0,.858-.222.858-.607V1.258c0-.356-.3-.569-.8-.569Z" transform="translate(85.72 60.745)" fill="#708187"/>
          <path id="Path_496" data-name="Path 496" d="M0,4.477H.8V0H0Z" transform="translate(90.494 60.737)" fill="#708187"/>
          <path id="Path_497" data-name="Path 497" d="M.82,4.511H0L2,0h.741l2,4.508H3.9L3.435,3.426H1.285ZM2.358.94l-.79,1.793H3.135Z" transform="translate(92.057 60.705)" fill="#708187"/>
          <path id="Path_498" data-name="Path 498" d="M1.232,0,2.517,1.213,1.283,2.478,0,1.264Z" transform="translate(32.911 17.841)" fill="#273777"/>
          <path id="Path_499" data-name="Path 499" d="M0,1.264,1.283,2.478,2.515,1.213,1.232,0Z" transform="translate(37.083 17.841)" fill="#a9aaac"/>
          <path id="Path_500" data-name="Path 500" d="M0,.982l1,.947L1.959.947.958,0Z" transform="translate(35.274 19.716)" fill="#ccd433"/>
          <path id="Path_501" data-name="Path 501" d="M0,.982l1,.949L1.959.947.958,0Z" transform="translate(38.939 20.256)" fill="#71b545"/>
          <path id="Path_502" data-name="Path 502" d="M0,.982l1,.949L1.959.947.961,0Z" transform="translate(33.639 21.22)" fill="#ccd433"/>
          <path id="Path_503" data-name="Path 503" d="M0,.982l1,.949L1.959.947.958,0Z" transform="translate(36.993 21.336)" fill="#26b3ba"/>
          <path id="Path_504" data-name="Path 504" d="M0,.693l.7.667L1.377.667.672,0Z" transform="translate(35.681 22.76)" fill="#71b545"/>
          <path id="Path_505" data-name="Path 505" d="M0,.693l.7.667L1.379.667.672,0Z" transform="translate(38.335 23.282)" fill="#59b15a"/>
          <path id="Path_506" data-name="Path 506" d="M0,.393.4,2.542l2.179-.393L2.179,0Z" transform="translate(44.127 18.312)" fill="#2785c6"/>
          <path id="Path_507" data-name="Path 507" d="M0,.316.32,2.04l1.751-.316L1.751,0Z" transform="translate(41.281 19.289)" fill="#1d3a6c"/>
          <path id="Path_508" data-name="Path 508" d="M0,.316.32,2.04l1.749-.316L1.751,0Z" transform="translate(44.662 21.694)" fill="#26b3ba"/>
          <path id="Path_509" data-name="Path 509" d="M0,.247.249,1.58l1.364-.247L1.361,0Z" transform="translate(42.251 22.013)" fill="#ccd433"/>
          <path id="Path_510" data-name="Path 510" d="M0,.247.249,1.58l1.364-.247L1.361,0Z" transform="translate(44.902 24.564)" fill="#a9aaac"/>
          <path id="Path_511" data-name="Path 511" d="M0,.247.249,1.58l1.364-.247L1.364,0Z" transform="translate(40.209 22.56)" fill="#26b3ba"/>
          <path id="Path_512" data-name="Path 512" d="M0,.247.249,1.58l1.364-.247L1.361,0Z" transform="translate(42.683 24.318)" fill="#71b545"/>
          <path id="Path_513" data-name="Path 513" d="M0,.173l.175.938L1.135.944.958,0Z" transform="translate(40.945 24.553)" fill="#a9aaac"/>
          <path id="Path_514" data-name="Path 514" d="M0,.173l.175.938L1.133.944.958,0Z" transform="translate(42.788 26.506)" fill="#59b15a"/>
          <path id="Path_515" data-name="Path 515" d="M.954,0,0,1.973l2,.938L2.956.94Z" transform="translate(49.662 25.744)" fill="#273777"/>
          <path id="Path_516" data-name="Path 516" d="M.764,0,0,1.582l1.605.753L2.371.753Z" transform="translate(47.007 24.833)" fill="#26b3ba"/>
          <path id="Path_517" data-name="Path 517" d="M.764,0,0,1.584l1.608.751L2.371.753Z" transform="translate(48.321 28.733)" fill="#71b545"/>
          <path id="Path_518" data-name="Path 518" d="M.593,0,0,1.233l1.254.587L1.85.587Z" transform="translate(46.387 27.546)" fill="#ccd433"/>
          <path id="Path_519" data-name="Path 519" d="M.593,0,0,1.233l1.252.587L1.85.587Z" transform="translate(47.02 31.142)" fill="#ccd433"/>
          <path id="Path_520" data-name="Path 520" d="M.593,0,0,1.233l1.254.587L1.85.587Z" transform="translate(44.405 26.811)" fill="#2785c6"/>
          <path id="Path_521" data-name="Path 521" d="M.593,0,0,1.233l1.252.587L1.85.587Z" transform="translate(45.368 29.664)" fill="#a9aaac"/>
          <path id="Path_522" data-name="Path 522" d="M.419,0,0,.867l.88.413L1.3.413Z" transform="translate(44.04 28.795)" fill="#71b545"/>
          <path id="Path_523" data-name="Path 523" d="M.419,0,0,.867l.88.413L1.3.413Z" transform="translate(44.374 31.439)" fill="#26b3ba"/>
          <path id="Path_524" data-name="Path 524" d="M1.944,0,0,1.049,1.066,2.966,3.012,1.918Z" transform="translate(49.75 35.194)" fill="#2785c6"/>
          <path id="Path_525" data-name="Path 525" d="M1.567,0,0,.842.858,2.378l1.567-.842Z" transform="translate(48.37 32.815)" fill="#26b3ba"/>
          <path id="Path_526" data-name="Path 526" d="M1.567,0,0,.842.858,2.38l1.567-.842Z" transform="translate(47.121 36.734)" fill="#26b3ba"/>
          <path id="Path_527" data-name="Path 527" d="M1.214,0,0,.655l.672,1.2L1.881,1.2Z" transform="translate(46.463 34.559)" fill="#273777"/>
          <path id="Path_528" data-name="Path 528" d="M1.216,0,0,.655l.672,1.2L1.881,1.2Z" transform="translate(44.844 37.841)" fill="#59b15a"/>
          <path id="Path_529" data-name="Path 529" d="M1.216,0,0,.655l.672,1.2L1.881,1.2Z" transform="translate(45.294 32.824)" fill="#1d3a6c"/>
          <path id="Path_530" data-name="Path 530" d="M1.216,0,0,.655l.672,1.2L1.881,1.2Z" transform="translate(44.38 35.69)" fill="#ccd433"/>
          <path id="Path_531" data-name="Path 531" d="M.855,0,0,.458.468,1.3l.853-.46Z" transform="translate(44.035 34.119)" fill="#a9aaac"/>
          <path id="Path_532" data-name="Path 532" d="M.855,0,0,.462.468,1.3,1.321.842Z" transform="translate(42.737 36.454)" fill="#26b3ba"/>
          <path id="Path_533" data-name="Path 533" d="M2.463.269.271,0,0,2.169l2.2.276Z" transform="translate(44.483 43.209)" fill="#71b545"/>
          <path id="Path_534" data-name="Path 534" d="M1.984.222.224,0,0,1.74l1.764.222Z" transform="translate(44.956 40.316)" fill="#1d3a6c"/>
          <path id="Path_535" data-name="Path 535" d="M1.984.222.224,0,0,1.74l1.767.222Z" transform="translate(41.613 42.776)" fill="#26b3ba"/>
          <path id="Path_536" data-name="Path 536" d="M1.545.167.17,0,0,1.355l1.375.167Z" transform="translate(42.533 40.481)" fill="#71b545"/>
          <path id="Path_537" data-name="Path 537" d="M1.545.167.17,0,0,1.355l1.375.167Z" transform="translate(39.268 42.209)" fill="#a9aaac"/>
          <path id="Path_538" data-name="Path 538" d="M1.545.169.17,0,0,1.355l1.375.167Z" transform="translate(42.616 38.399)" fill="#a9aaac"/>
          <path id="Path_539" data-name="Path 539" d="M1.545.169.17,0,0,1.355l1.375.167Z" transform="translate(40.171 40.196)" fill="#71b545"/>
          <path id="Path_540" data-name="Path 540" d="M1.086.118.119,0,0,.953l.967.118Z" transform="translate(40.992 38.565)" fill="#a9aaac"/>
          <path id="Path_541" data-name="Path 541" d="M1.086.118.119,0,0,.953l.967.118Z" transform="translate(38.552 39.712)" fill="#a9aaac"/>
          <path id="Path_542" data-name="Path 542" d="M3.135,1.487,1.509,0,0,1.6,1.626,3.089Z" transform="translate(35.063 45.98)" fill="#ccd433"/>
          <path id="Path_543" data-name="Path 543" d="M3.135,1.487,1.509,0,0,1.6,1.626,3.089Z" transform="translate(34.763 15.374)" fill="#71b545"/>
          <path id="Path_544" data-name="Path 544" d="M2.515,1.193,1.209,0,0,1.284,1.3,2.475Z" transform="translate(37.416 43.874)" fill="#26b3ba"/>
          <path id="Path_545" data-name="Path 545" d="M2.515,1.193,1.209,0,0,1.284,1.3,2.475Z" transform="translate(33.247 43.943)" fill="#71b545"/>
          <path id="Path_546" data-name="Path 546" d="M1.957.929.943,0,0,1l1.014.929Z" transform="translate(35.583 42.583)" fill="#2785c6"/>
          <path id="Path_547" data-name="Path 547" d="M1.957.929.943,0,0,1l1.017.929Z" transform="translate(31.91 42.103)" fill="#ccd433"/>
          <path id="Path_548" data-name="Path 548" d="M1.957.929.943,0,0,1l1.014.929Z" transform="translate(36.888 40.941)" fill="#ccd433"/>
          <path id="Path_549" data-name="Path 549" d="M1.957.929.943,0,0,1l1.014.929Z" transform="translate(33.838 40.992)" fill="#a9aaac"/>
          <path id="Path_550" data-name="Path 550" d="M1.377.655.661,0,0,.7l.714.655Z" transform="translate(35.71 40.112)" fill="#1d3a6c"/>
          <path id="Path_551" data-name="Path 551" d="M1.377.655.661,0,0,.7l.714.655Z" transform="translate(33.05 39.634)" fill="#a9aaac"/>
          <path id="Path_552" data-name="Path 552" d="M2.611,2.142,2.176,0,0,.429.437,2.571Z" transform="translate(26.113 43.507)" fill="#2785c6"/>
          <path id="Path_553" data-name="Path 553" d="M2.094,1.72,1.744,0,0,.344l.349,1.72Z" transform="translate(29.461 42.985)" fill="#26b3ba"/>
          <path id="Path_554" data-name="Path 554" d="M2.094,1.72,1.744,0,0,.344l.349,1.72Z" transform="translate(26.039 40.636)" fill="#71b545"/>
          <path id="Path_555" data-name="Path 555" d="M1.63,1.333,1.359,0,0,.267.273,1.6Z" transform="translate(28.91 40.727)" fill="#ccd433"/>
          <path id="Path_556" data-name="Path 556" d="M1.63,1.333,1.359,0,0,.267.273,1.6Z" transform="translate(30.943 40.147)" fill="#273777"/>
          <path id="Path_557" data-name="Path 557" d="M1.63,1.333,1.359,0,0,.269.271,1.6Z" transform="translate(28.44 38.43)" fill="#2785c6"/>
          <path id="Path_558" data-name="Path 558" d="M1.146.942.956,0,0,.189l.19.94Z" transform="translate(30.656 38.636)" fill="#71b545"/>
          <path id="Path_559" data-name="Path 559" d="M1.146.942.956,0,0,.189l.19.94Z" transform="translate(28.782 36.714)" fill="#a9aaac"/>
          <path id="Path_560" data-name="Path 560" d="M2.015,2.889,2.933.9.918,0,0,1.989Z" transform="translate(20.101 35.823)" fill="#26b3ba"/>
          <path id="Path_561" data-name="Path 561" d="M1.619,2.322l.739-1.6L.739,0,0,1.6Z" transform="translate(23.357 37.261)" fill="#ccd433"/>
          <path id="Path_562" data-name="Path 562" d="M1.619,2.322l.739-1.6L.737,0,0,1.6Z" transform="translate(21.977 33.384)" fill="#2785c6"/>
          <path id="Path_563" data-name="Path 563" d="M1.261,1.809,1.834.564.575,0,0,1.244Z" transform="translate(24.461 35.05)" fill="#26b3ba"/>
          <path id="Path_564" data-name="Path 564" d="M1.261,1.809,1.836.562.575,0,0,1.244Z" transform="translate(26.147 38.156)" fill="#a9aaac"/>
          <path id="Path_565" data-name="Path 565" d="M1.261,1.809,1.834.564.575,0,0,1.244Z" transform="translate(23.764 31.464)" fill="#273777"/>
          <path id="Path_566" data-name="Path 566" d="M1.261,1.809,1.834.564.575,0,0,1.244Z" transform="translate(26.454 35.752)" fill="#59b15a"/>
          <path id="Path_567" data-name="Path 567" d="M1.261,1.809,1.834.564.575,0,0,1.244Z" transform="translate(25.444 32.915)" fill="#ccd433"/>
          <path id="Path_568" data-name="Path 568" d="M.9,1.273,1.292.4.4,0,0,.873Z" transform="translate(27.336 34.297)" fill="#1d3a6c"/>
          <path id="Path_569" data-name="Path 569" d="M.9,1.273,1.292.4.4,0,0,.873Z" transform="translate(26.96 31.657)" fill="#71b545"/>
          <path id="Path_570" data-name="Path 570" d="M1.1,2.98,3.025,1.9,1.926,0,0,1.082Z" transform="translate(19.781 26.306)" fill="#26b3ba"/>
          <path id="Path_571" data-name="Path 571" d="M.882,2.391l1.545-.869L1.545,0,0,.869Z" transform="translate(21.803 29.246)" fill="#71b545"/>
          <path id="Path_572" data-name="Path 572" d="M.882,2.391l1.545-.869L1.545,0,0,.869Z" transform="translate(22.987 25.307)" fill="#1d3a6c"/>
          <path id="Path_573" data-name="Path 573" d="M.687,1.862,1.89,1.2,1.2,0,0,.667Z" transform="translate(24.221 27.995)" fill="#2785c6"/>
          <path id="Path_574" data-name="Path 574" d="M.687,1.862,1.89,1.2,1.2,0,0,.667Z" transform="translate(25.786 24.687)" fill="#71b545"/>
          <path id="Path_575" data-name="Path 575" d="M.685,1.862,1.89,1.2,1.2,0,0,.667Z" transform="translate(25.419 29.713)" fill="#26b3ba"/>
          <path id="Path_576" data-name="Path 576" d="M.685,1.862,1.89,1.2,1.2,0,0,.667Z" transform="translate(26.286 26.831)" fill="#ccd433"/>
          <path id="Path_577" data-name="Path 577" d="M.484,1.311,1.33.835.846,0,0,.476Z" transform="translate(27.219 28.944)" fill="#a9aaac"/>
          <path id="Path_578" data-name="Path 578" d="M.484,1.311,1.33.835.846,0,0,.476Z" transform="translate(28.48 26.586)" fill="#71b545"/>
          <path id="Path_579" data-name="Path 579" d="M0,2.173,2.206,2.4,2.443.222.237,0Z" transform="translate(25.477 18.756)" fill="#71b545"/>
          <path id="Path_580" data-name="Path 580" d="M0,1.742l1.769.187L1.959.187.188,0Z" transform="translate(25.544 22.129)" fill="#a9aaac"/>
          <path id="Path_581" data-name="Path 581" d="M0,1.742l1.769.187L1.959.187.188,0Z" transform="translate(28.845 19.616)" fill="#26b3ba"/>
          <path id="Path_582" data-name="Path 582" d="M0,1.358,1.377,1.5,1.525.144.148,0Z" transform="translate(28.404 22.351)" fill="#ccd433"/>
          <path id="Path_583" data-name="Path 583" d="M0,1.358,1.377,1.5,1.525.147.148,0Z" transform="translate(31.639 20.571)" fill="#2785c6"/>
          <path id="Path_584" data-name="Path 584" d="M0,1.358,1.377,1.5,1.525.144.148,0Z" transform="translate(28.357 24.435)" fill="#26b3ba"/>
          <path id="Path_585" data-name="Path 585" d="M0,1.358,1.377,1.5,1.525.144.148,0Z" transform="translate(30.771 22.598)" fill="#71b545"/>
          <path id="Path_586" data-name="Path 586" d="M0,.955l.97.1L1.073.1.1,0Z" transform="translate(30.435 24.687)" fill="#1d3a6c"/>
          <path id="Path_587" data-name="Path 587" d="M0,.955l.97.1L1.073.1.1,0Z" transform="translate(32.858 23.502)" fill="#a9aaac"/>
          <path id="Path_588" data-name="Path 588" d="M14.118,8.3a4.591,4.591,0,0,0-.88-.376,5.305,5.305,0,0,0-2.418-.173,5.912,5.912,0,0,0-1.048.267l-.105.038a5.825,5.825,0,0,0-.555.244q-.237.12-.472.258a11.232,11.232,0,0,0-1.057.713,22.007,22.007,0,0,1-.107-5.555h0c.835.52.6,1.969.425,2.384,0,0,0,.013.016,0a2.531,2.531,0,0,0,.32-2.889s0-.016.013,0a2.368,2.368,0,0,1,.376.38A2.236,2.236,0,0,1,9.1,4.824a3.63,3.63,0,0,1,0,.558V5.5h0a2.348,2.348,0,0,0,0-2.173,2.715,2.715,0,0,0-.455-.642c-.058-.06-.121-.12-.188-.178V2.5a1.838,1.838,0,0,1,.181.053,1.778,1.778,0,0,1,.472.244,1.941,1.941,0,0,1,.661.878,2.187,2.187,0,0,1,.152.8h.016a1.973,1.973,0,0,0-.168-1.638,1.939,1.939,0,0,0-.654-.629A2.1,2.1,0,0,0,8.643,2a1.364,1.364,0,0,0-.224-.049V1.935a2.178,2.178,0,0,0,.224-.011,2.346,2.346,0,0,1,.47.033,1.736,1.736,0,0,1,.661.264,1.367,1.367,0,0,1,.448.467h.016a1.308,1.308,0,0,0-.448-.878,1.706,1.706,0,0,0-.674-.353,1.913,1.913,0,0,0-.472-.064,1.511,1.511,0,0,0-.582.1s-.013,0,0-.013a1.119,1.119,0,0,1,.582-.418,1.374,1.374,0,0,1,.472-.058A1.068,1.068,0,0,1,9.5,1.1V1.084A1.476,1.476,0,0,0,9.116.769,1.283,1.283,0,0,0,8.643.618a1.192,1.192,0,0,0-1.137.558h0A2.269,2.269,0,0,1,7.333.858,3.714,3.714,0,0,1,7.076,0H7.062A3.738,3.738,0,0,1,6.8.851a3.424,3.424,0,0,1-.157.313h0a1.228,1.228,0,0,0-2.015-.089v.013a1.253,1.253,0,0,1,1.46.384v.013a1.753,1.753,0,0,0-1.881.467,1.3,1.3,0,0,0-.311.724s.011.013.016,0a1.284,1.284,0,0,1,.291-.351,1.932,1.932,0,0,1,1.509-.393v.016A1.992,1.992,0,0,0,4.205,3.142a2.109,2.109,0,0,0-.018,1.333H4.2V4.444A1.975,1.975,0,0,1,5.674,2.5v.013A2.394,2.394,0,0,0,5,5.5h.016a2.434,2.434,0,0,1,.84-2.293h.013a2.533,2.533,0,0,0,.318,2.889H6.2c-.175-.416-.41-1.864.425-2.384h0a21.97,21.97,0,0,1-.107,5.555A8.589,8.589,0,0,0,4.44,8.048l-.255-.089a5.575,5.575,0,0,0-1.946-.271,5.135,5.135,0,0,0-2.031.507c-.078.038-.146.076-.2.1a.02.02,0,0,0-.006.024.02.02,0,0,0,.022.012l.179-.051a5.687,5.687,0,0,1,2.033-.2,6.116,6.116,0,0,1,1.966.524,10.412,10.412,0,0,1,2.342,1.507,25.56,25.56,0,0,1-2.34,1.973l-.074.04a.55.55,0,0,0-.976.191.517.517,0,0,0,.105.467.8.8,0,0,0,.945.136A12.95,12.95,0,0,0,6.8,10.792l.264-.238.264.236c.477.429.911.849,1.31,1.2.163.147.322.282.472.4a4.169,4.169,0,0,0,.661.444.863.863,0,0,0,1.048-.022l.049-.042a.6.6,0,0,0,.107-.467.524.524,0,0,0-.155-.262.543.543,0,0,0-.249-.138.553.553,0,0,0-.567.209,1.953,1.953,0,0,1-.224-.14,7.677,7.677,0,0,1-.661-.524c-.163-.124-.311-.258-.477-.407-.325-.291-.672-.611-1.057-.938a12.959,12.959,0,0,1,1.057-.78q.224-.153.472-.3.32-.189.661-.349a6.75,6.75,0,0,1,1.048-.393,5.6,5.6,0,0,1,2.418-.149,6.15,6.15,0,0,1,.862.2.02.02,0,0,0,.025-.01.02.02,0,0,0-.007-.026" transform="translate(29.205 25.26)" fill="#6f777e"/>
        </g>
      </g>
    </g>
  </g>
</svg>
