<svg id="logo" xmlns="http://www.w3.org/2000/svg" width="192.398" height="70.382" viewBox="0 0 192.398 70.382">
  <g id="Group_242" data-name="Group 242" transform="translate(0 0)">
    <g id="Group_240" data-name="Group 240" transform="translate(122.285)">
      <path id="Path_407" data-name="Path 407" d="M3057.7,145.023l.073.1a.33.33,0,0,0,.207.25,3.549,3.549,0,0,0,1.421,1.376h0a1.942,1.942,0,0,0,.189.184,22.17,22.17,0,0,0,7.2,3.362c.542.164.562.328.338.757a30.108,30.108,0,0,0-1.976,4.378,12.68,12.68,0,0,0-.921,6.04,3.845,3.845,0,0,0,1.9,2.956,5.943,5.943,0,0,0,4.727.264,34.479,34.479,0,0,0,11.66-6.436h0l.154-.113h0l.151-.118-.064-.064h0c.12-.141.242-.282.367-.417-.125.135-.246.276-.367.417l.064.064,1.706-1.368c.32-.1.474-.389.721-.573.1-.076.153-.25.312-.2.212.061.129.255.129.393q0,7.186.021,14.374c0,.475-.2.549-.618.471a4.539,4.539,0,0,1-2.344-1.224,14.972,14.972,0,0,1-3.465-4.983c-.087-.2-.129-.453-.385-.57a.561.561,0,0,0,.019.535,19.83,19.83,0,0,0,2.571,5.372,5.261,5.261,0,0,0,3.946,2.672c.311.023.267.241.267.432,0,.831.052,1.667-.012,2.493-.049.629.17.76.787.759q19.7-.023,39.391-.013c1.05,0,.884.064.884-.893V107.1c0-.872,0-.872-.881-.872h-13.942q-12.724,0-25.448-.015c-.6,0-.847.123-.794.757.064.821.01,1.662.017,2.493,0,.238-.012.427-.323.468-1.863.246-2.577,1.488-2.823,3.12a3.332,3.332,0,0,1-1.016,2.158,1.58,1.58,0,0,0-.39.892c-.1.424-.21.849-.339,1.268a14.464,14.464,0,0,0-.789,3.314,4.5,4.5,0,0,0,.149,1.866c.31-.174.262-.443.317-.657a12.7,12.7,0,0,1,1.079-4.042,26.163,26.163,0,0,0,2.344-6.032,1.725,1.725,0,0,1,.846-1.041c.8-.435.947-.356.947.524v15.556c0,.394.009.788,0,1.181,0,.294-.12.343-.366.145-.462-.374-.959-.708-1.41-1.094a42.322,42.322,0,0,0-9.672-6.293,13.431,13.431,0,0,0-5.888-1.547,4.212,4.212,0,0,0-3.557,1.7,4.884,4.884,0,0,0-.885,2.779,18.226,18.226,0,0,0,1.975,7.735c.049.115.084.328.394.207a18.11,18.11,0,0,1-.821-2.59,17.091,17.091,0,0,1-.17-4.408,3.2,3.2,0,0,1,1.3-2.747,3.424,3.424,0,0,1,3.072-.51,16.864,16.864,0,0,1,4.757,1.642,50.415,50.415,0,0,1,9.281,6.164c.657.54,1.324,1.068,2.093,1.687v-1.567c0-.14-.074-.328.122-.4s.279.11.39.2c1.043.88,1.952,1.89,2.907,2.858l.054-.057h0l-.054.057c.354.443.713.884,1.064,1.33.23.292.371.509-.224.534-1.133.048-2.239-.2-3.363-.232-.906-.026-.945-.046-.886-.893.044-.632-.169-.8-.818-.8a82.886,82.886,0,0,0-11.9.977,33.078,33.078,0,0,0-6.029,1.4l-.136.025a1.419,1.419,0,0,0-.715.225.071.071,0,0,0-.053-.011.069.069,0,0,0-.045.029,3.763,3.763,0,0,0-1.524.511.078.078,0,0,0-.062-.007.075.075,0,0,0-.047.04,16.183,16.183,0,0,0-5.688,3.12h0a4.236,4.236,0,0,0-1.34,1.578l-.037.016v.043a4.083,4.083,0,0,0,.271,5.124Zm.362-3.157a.381.381,0,0,0,.009.057.406.406,0,0,1-.009-.054Zm30.747,14.424a.677.677,0,0,0-.031-.089A.675.675,0,0,1,3088.811,156.291Zm-2.4-1.207a1.4,1.4,0,0,0-.249-.269.61.61,0,0,0-.2-.107.611.611,0,0,1,.2.107A1.4,1.4,0,0,1,3086.411,155.084Zm5.651,12.431a.85.85,0,0,0-.086-.041A.784.784,0,0,1,3092.062,167.515Zm-1.925-40.574a3.923,3.923,0,0,1-.115,1.876c-.129.606-.709.391-1.116.493-.847.08-1.017-.038-.876-.829a14.776,14.776,0,0,0-.222-3.638c-.071-.959.078-1.081,1.1-.985,1.245.105,1.253.105,1.12,1.352a4.592,4.592,0,0,0,.107,1.731Zm.882,14.5a4.053,4.053,0,0,1-.1,1.754.545.545,0,0,1-.547.493c-.359.018-.718.054-1.092.084-.432.049-.8-.053-.7-.578a13.5,13.5,0,0,0-.183-3.845c-.1-1.022.029-1.15,1.068-1.077.2.013.405.021.608.026.895.02.979.107.876,1a5.778,5.778,0,0,0,.071,2.142Zm.362,7.773.144.069Zm-5.6,2.907c.064-1.478-.216-1.233,1.281-1.263,1.895-.036,3.784-.153,5.669-.328.242-.023.608.079.635-.314a.748.748,0,0,0-.482-.836,4.868,4.868,0,0,0-1.578-.2h0a.219.219,0,0,0-.278,0l-.533-.154a.894.894,0,0,0-.815-.1l-.608-.388a21.96,21.96,0,0,1,2.835-.328,1.4,1.4,0,0,0,1.036-.429,1.308,1.308,0,0,0,.358-1.036c-.086-1.358.086-2.707.108-4.06a40.228,40.228,0,0,0,.118-5.106c-.135-1.23-.412-1.416-1.678-1.268a11.76,11.76,0,0,1-3.753-.328,1.542,1.542,0,0,1,.767-.21c.984-.123,1.968-.236,2.95-.371a1.06,1.06,0,0,0,.852-.407.992.992,0,0,0,.164-.907,14.55,14.55,0,0,1-.159-2.091,5.019,5.019,0,0,0-.339-1.8,14.957,14.957,0,0,1-.923-4.745c-.064-.916-.154-1.83-.227-2.744-.034-.419-.232-.591-.667-.473a2.756,2.756,0,0,1-.466.082,5.768,5.768,0,0,1-3.424-.535c.362-.041.529-.062.7-.077.9-.082,1.8-.138,2.689-.255.648-.085.757-.348.547-.954a17.212,17.212,0,0,1-.847-3.1,27.665,27.665,0,0,0-1.893-5.574,1.712,1.712,0,0,0-.574-.867c-.144-.363-.508-.374-.816-.493a.887.887,0,0,0-.537-.049c-.264-.493.107-.507.427-.493a4.387,4.387,0,0,1,2,.795c1.114,1.457,1.41,3.3,2.408,4.81a.669.669,0,0,1,.071.319,16.509,16.509,0,0,0,1.084,4.451c.115.328.239.539.621.557.313.015.654.016.742.419a.729.729,0,0,1-.371.846c-.4.222-.4.527-.328.893.144.708.256,1.421.413,2.125a38.578,38.578,0,0,0,.677,4.075,8.9,8.9,0,0,1,.4,1.986c.1,1,.313,1.987.484,2.979.04.233.068.519.425.471.32-.043.538.049.621.355a.571.571,0,0,1-.3.728c-.295.141-.274.314-.19.583a11.36,11.36,0,0,1,.467,4.406c-.186,2.032-.169,4.063-.19,6.1,0,.24-.039.476.374.448.339-.023.413.291.451.553s.128.622-.169.7c-.626.164-.644.657-.784,1.107-.15.483-.042.678.532.6,1.742-.241,3.475-.527,5.194-.9.4-.085.508-.233.264-.575-.129-.179-.237-.371-.354-.558-1.28-2.032-2.613-4.029-4.085-5.935-.19-.245-.357-.442-.058-.774.579-.639,1.1-1.329,1.627-2.009a48.893,48.893,0,0,0,6.391-10.23,13.269,13.269,0,0,0,1.465-5.682,3.062,3.062,0,0,0-2.134-2.976,8.574,8.574,0,0,0-4.4-.31c-1.077.153-2.115.478-3.192.631a24.237,24.237,0,0,1,3.292-1.334,10.513,10.513,0,0,1,1.912-.414,6.508,6.508,0,0,1,3.465.256,4.647,4.647,0,0,1,2.554,5.049,22.385,22.385,0,0,1-2.894,8.131,56.185,56.185,0,0,1-6.388,9.231c-.283.328-.315.578-.022.9a19.8,19.8,0,0,1,1.318,1.823c.925,1.268,1.71,2.628,2.54,3.942a.571.571,0,0,0,.34.326.6.6,0,0,0,.477-.032c.659-.222,1.355-.355,2.009-.578a20.126,20.126,0,0,0,6.276-3.12,3.316,3.316,0,0,0,1.116-4.47,9.024,9.024,0,0,0-2.806-3.14,33.98,33.98,0,0,0-4.08-2.588,1.127,1.127,0,0,1,.784.11c.806.328,1.571.772,2.371,1.074a12.03,12.03,0,0,1,4.164,2.708,4.532,4.532,0,0,1,1.38,4.684,6.433,6.433,0,0,1-2.652,3.383,22.673,22.673,0,0,1-7.594,3.474c-.518.143-.687.276-.39.778a26.489,26.489,0,0,1,2.437,5.817,9.617,9.617,0,0,1,.4,5.3,3.676,3.676,0,0,1-3.1,2.912,8.223,8.223,0,0,1-4.113-.493,31.8,31.8,0,0,1-4.4-1.971c-.064-.133-.179-.122-.3-.1l-.169-.148a6.2,6.2,0,0,1-.786-.511c-.408-.358-.54-.082-.633.236-.2.7-.377,1.406-.564,2.11l-.042.25-1.355,3.409h0a8.581,8.581,0,0,0-.828,1.565h0a19.865,19.865,0,0,1-2.281,2.638.14.14,0,0,0-.149.128c-.456.164-.906.358-1.37.5-.339.107-.583.069-.6-.4-.024-.668-.019-1.215.847-1.4a1.881,1.881,0,0,0,1.071-.846.482.482,0,0,0-.615.191.482.482,0,0,1,.615-.191v-.008l.134-.145v.01a2.544,2.544,0,0,0,.748-.977h0a3.255,3.255,0,0,0,.7-1.314.989.989,0,0,0-.222.1.973.973,0,0,1,.222-.1l.132-.214a1.132,1.132,0,0,1-.01-.172,1.164,1.164,0,0,0,.01.172,2.209,2.209,0,0,0,.533-1.1,33.058,33.058,0,0,0,1.783-5.42c.059-.215-.059-.328-.212-.43l-3.185-2.3a.354.354,0,0,0-.293-.253l-.046-.026-.18-.141h0a.153.153,0,0,0-.157-.13,3.392,3.392,0,0,0-.942-.787.335.335,0,0,0-.289-.243.351.351,0,0,0-.254-.215l-.013-.036c.11-.427-.241-.934.242-1.3a.4.4,0,0,0,.285.241h0l.217.184h0a7.137,7.137,0,0,0,1.661,1.4.4.4,0,0,0,.286.238l.016.034h.039a3,3,0,0,0,1.016.778.336.336,0,0,0,.288.245h0a3.223,3.223,0,0,0,1.08.782c.157.123.311.248.471.369.21.164.3.094.352-.149a44.61,44.61,0,0,0,.815-5.31c.425-1.529.423-1.55-1.186-1.421q-2.632.213-5.268.259c-.479.026-.726-.051-.7-.616Zm.893-36.331c-.161-.69.369-.759.806-.882.54-.151.49.3.561.595a14.581,14.581,0,0,0,.544,2.158.734.734,0,0,1-.115.91,1.79,1.79,0,0,1-1.106.2c-.169,0-.217-.2-.283-.337a2.006,2.006,0,0,1-.095-.953,5.764,5.764,0,0,0-.311-1.69Zm2.088,52.352a.826.826,0,0,1,.088-.164.7.7,0,0,1,.132-.141.7.7,0,0,0-.132.141.848.848,0,0,0-.088.161Zm-3.387-13.851h0l-.041.013v.041a.485.485,0,0,0-.281.31h0l-.169.143-.088.084-.193.179h0a.07.07,0,0,0-.059.012.066.066,0,0,0-.025.053.336.336,0,0,0-.254.207,1.4,1.4,0,0,0-.677.526h0l-.137.128h0c-1.694,1.276-3.348,2.58-5.133,3.728a28.5,28.5,0,0,1-7.392,3.613,11.025,11.025,0,0,1-1.524.328c-2.683.388-4.186-.985-4.032-3.623a17.068,17.068,0,0,1,1.411-5.31,25.862,25.862,0,0,1,1.693-3.5.456.456,0,0,1,.254-.27.479.479,0,0,1,.377,0,72.059,72.059,0,0,0,15.54,1.867c.357.01.86-.2,1.045.21a1.117,1.117,0,0,1-.32,1.253Zm.349-19.974c-.015,1.268,0,2.536,0,3.8,0,3.979-.01,7.959.015,11.936,0,.57-.144.751-.745.737a74.54,74.54,0,0,1-14.564-1.506c-.748-.164-.762-.2-.369-.821.428-.667.865-1.329,1.251-2.018.139-.25.279-.374.471-.4a4.474,4.474,0,0,0,5.43-1.239,4.155,4.155,0,0,0-.215-5.406c-.053-.154.012-.281.156-.445.577-.657,1.135-1.342,1.693-2.015h0l2.792-2.835a.828.828,0,0,1,.618-.337c.969,0,1.939,0,2.908-.051C3085.639,133.706,3085.72,133.923,3085.72,134.315Zm-7.682,2.9Zm.262,0a.45.45,0,0,1-.142.02.45.45,0,0,0,.134-.021Zm-13.7-.3c1.275-.55,2.645-.833,3.955-1.284l4.774-1.033.367-.034c1.851-.187,3.69-.493,5.552-.586.23-.012.486-.154.687.084l-.037.021v.041h0a16.731,16.731,0,0,0-2.152,2.288.391.391,0,0,0-.256.278h0c-.422.45-.867.884-1.256,1.358a.766.766,0,0,1-.593.368,4.471,4.471,0,0,0-5.493,1.327,4.157,4.157,0,0,0,.431,5.474.59.59,0,0,1-.118.328c-.635.953-1.255,1.913-1.846,2.892-.2.337-.418.287-.726.209a25.388,25.388,0,0,1-7.263-3.073h-.01a5.762,5.762,0,0,1-2.342-3.12v-.241l-.057-.056a.643.643,0,0,1-.088-.112.643.643,0,0,0,.088.112l.057.056.264-1.053a11.982,11.982,0,0,1,6.058-4.244Zm15.319-2.675a.958.958,0,0,0-.015-.112c0,.037.006.073.007.11Z" transform="translate(-3056.655 -106.217)" fill="#7b7202"/>
      <path id="Path_408" data-name="Path 408" d="M3927.1,1207.006a26.542,26.542,0,0,0,4.494,3.135,8.15,8.15,0,0,0,4.178,1.27,2.368,2.368,0,0,0,2.038-.754,3.834,3.834,0,0,0,1.011-2.368c.079-.5.095-1.021.135-1.487a38.081,38.081,0,0,0-3.17-12.435c-.141-.353-.349-.288-.574-.215a36.81,36.81,0,0,1-6.569,1.564c-.484.082-.636.288-.677.877q-.368,4.825-1.15,9.578A.762.762,0,0,0,3927.1,1207.006Z" transform="translate(-3889.96 -1152.628)" fill="#7b7202"/>
    </g>
    <g id="Group_241" data-name="Group 241" transform="translate(0 13.914)">
      <path id="Path_409" data-name="Path 409" d="M664.2,594.8a3.58,3.58,0,0,0,3.01-1.449,5.867,5.867,0,0,0,1.2-3.792c-.047-3.191-.063-6.384.012-9.573.029-1.208-.495-.988-1.06-1.055-.666-.082-.786.286-.781,1.027.017,3.034,0,6.068-.01,9.1,0,2.325-.686,3.18-2.532,3.163-.886,0-1.016.215-.7-1.165a5.989,5.989,0,0,0-.613-4.442,3.62,3.62,0,0,0-3.213-1.927c-2.09.09-4.183,0-6.276.013-1.385,0-1.2-.294-1.25,1.532-.025.859.212,1.044.847,1.029,2.291-.049,4.583-.034,6.874-.011a1.632,1.632,0,0,1,1.426.715,2.708,2.708,0,0,1,.482,1.847,2.75,2.75,0,0,1-.574,1.739,1.689,1.689,0,0,1-1.387.674H657.33c-2.864,0-5.727-.022-8.593.026-.677.011-.882-.269-.81-1.089a15.748,15.748,0,0,0,.014-1.893,5.484,5.484,0,0,0-1.155-3.5,3.357,3.357,0,0,0-2.8-1.329h-2.091c-1.9-.054-3.534,1.712-3.792,4.1-.433,2.5.714,5,2.638,5.748a7.374,7.374,0,0,0,4.718-.062c.161-.054.325-.275.481-.1s.069.469,0,.707a1.811,1.811,0,0,1-1.746,1.459h-3.362c-1.582,0-1.289-.215-1.355,1.706-.024.737.2.9.737.879,1.245-.047,2.489-.021,3.736-.019,1.717.24,3.309-1.167,3.726-3.294.088-.534.49-.885.914-.8,2.664.026,5.329.013,7.995.013h3.81A36.806,36.806,0,0,1,664.2,594.8Zm-19.832-2.839c-.469.045-.943,0-1.414,0h-1.185a2.252,2.252,0,0,1-1.876-2.346A2.326,2.326,0,0,1,641.618,587a20.2,20.2,0,0,1,2.754,0,2.267,2.267,0,0,1,1.736,2.417A2.407,2.407,0,0,1,644.367,591.962Z" transform="translate(-613.691 -578.745)" fill="#7b7202"/>
      <path id="Path_410" data-name="Path 410" d="M1605.1,656.107h-2.391a2.3,2.3,0,0,0-1.016.215c-2.037.977-3.073,3.853-2.323,6.447.169.686.085.892-.491.885-2.515-.028-5.031,0-7.546-.028a1.63,1.63,0,0,1-1.433-.671,2.7,2.7,0,0,1-.532-1.817,2.633,2.633,0,0,1,.512-1.821,1.573,1.573,0,0,1,1.437-.646c1.3-.017,2.589,0,3.885-.013,1.343,0,1.329-.013,1.324-1.719,0-.563-.068-.859-.611-.84-1.594.047-3.187.015-4.781,0a2.773,2.773,0,0,0-1.775.623,5.81,5.81,0,0,0-1.677,5.948c.193.86,0,.956-.591.943q-2.278-.052-4.557.013c-.508.015-.637-.2-.623-.808.029-1.263.046-2.529,0-3.791a5.074,5.074,0,0,0-1.556-3.91,2.985,2.985,0,0,0-3.431-.476,4.892,4.892,0,0,0-2.278,4.513c-.058,1.861-.02,3.728-.02,5.587,0,1.474,0,1.444,1.2,1.435.508,0,.649-.245.628-.844-.029-.819,0-1.642,0-2.465,0-1.231-.022-2.467.039-3.7a2.429,2.429,0,0,1,.947-2.069,1.48,1.48,0,0,1,1.881.154,2.784,2.784,0,0,1,.728,2.175c.01,1.934.03,3.855,0,5.783-.014.733.125.973.74.967,4.108-.037,8.218-.019,12.327-.019h0c4.01,0,8.019-.067,12.024.026,2.2-.028,3.961-2.306,3.946-5.093a5.609,5.609,0,0,0-1.139-3.59A3.435,3.435,0,0,0,1605.1,656.107Zm.19,7.551q-1.185.041-2.386,0a1.735,1.735,0,0,1-1.365-.749,2.806,2.806,0,0,1-.519-1.767,2.714,2.714,0,0,1,.5-1.778,1.656,1.656,0,0,1,1.376-.717c.422-.021.847,0,1.267,0h0c.4,0,.8-.024,1.185,0a1.755,1.755,0,0,1,1.356.789,2.827,2.827,0,0,1,.485,1.79A2.3,2.3,0,0,1,1605.294,663.658Z" transform="translate(-1510.617 -650.064)" fill="#7b7202"/>
      <path id="Path_411" data-name="Path 411" d="M84.913,692.639a5.524,5.524,0,0,0-1-3.463,3.427,3.427,0,0,0-2.659-1.494c-.721-.011-1.448.062-2.166-.015a3.7,3.7,0,0,0-3.35,2.049,6.112,6.112,0,0,0-.5,4.677c.188.664.088.838-.44.834-2.664-.013-5.328.015-7.992-.015a1.752,1.752,0,0,1-1.412-.738,2.847,2.847,0,0,1-.549-1.808,2.7,2.7,0,0,1,.583-1.8,1.627,1.627,0,0,1,1.449-.625c1.27-.013,2.54,0,3.809,0,1.736,0,1.328.114,1.412-1.738.032-.711-.2-.84-.693-.829-1.394.028-2.787,0-4.183,0a3.982,3.982,0,0,0-1.555.168c-1.811.8-2.924,3.116-2.66,5.527.206,2.46,1.824,4.339,3.773,4.384,2.389.021,4.781,0,7.17,0h0c2.466,0,4.93.043,7.394-.013a3.521,3.521,0,0,0,2.629-1.6A5.627,5.627,0,0,0,84.913,692.639Zm-3.807,2.594c-.747.017-1.492.021-2.239,0a1.777,1.777,0,0,1-1.4-.726,2.869,2.869,0,0,1-.578-1.779,2.749,2.749,0,0,1,.54-1.814,1.668,1.668,0,0,1,1.428-.691c.4-.017.8,0,1.194,0h1.045a1.65,1.65,0,0,1,1.428.678,2.726,2.726,0,0,1,.541,1.808,2.82,2.82,0,0,1-.547,1.8A1.733,1.733,0,0,1,81.107,695.233Z" transform="translate(-62.971 -681.635)" fill="#7b7202"/>
      <path id="Path_412" data-name="Path 412" d="M2445.5,595.147a3.363,3.363,0,0,0,2.719-1.432,6.963,6.963,0,0,0,.106-7.136,3.32,3.32,0,0,0-2.774-1.5c-1.892-.028-3.785-.013-5.678-.011-1.252,0-1.214,0-1.252,1.627-.019.806.235.941.786.933,1.968-.034,3.934-.019,5.9-.019a1.62,1.62,0,0,1,1.525.6,2.717,2.717,0,0,1,.6,1.876,2.774,2.774,0,0,1-.606,1.868,1.666,1.666,0,0,1-1.512.631h-9.04a1.753,1.753,0,0,1-1.535-.695,2.9,2.9,0,0,1-.6-1.92c-.022-1.01,0-2.022,0-3.032,0-2.054.012-4.109,0-6.161-.012-1.547.279-1.42-1.153-1.461-.478-.013-.657.161-.652.8.024,3.438-.013,6.889.034,10.332.026,2.628,1.724,4.734,3.795,4.706h4.632C2442.333,595.149,2443.927,595.16,2445.5,595.147Z" transform="translate(-2332.019 -579.116)" fill="#7b7202"/>
      <path id="Path_413" data-name="Path 413" d="M2670.165,1133.922c0-.529-.132-.763-.559-.7a2.282,2.282,0,0,1-.677,0c-.469-.077-.616.187-.6.75.022.859.01,1.7,0,2.555,0,1.571-.711,2.649-1.738,2.658a1.787,1.787,0,0,1-1.361-.854,2.869,2.869,0,0,1-.43-1.848c0-.883,0-1.768.008-2.652.009-.43-.107-.6-.467-.621-1.365-.1-1.365-.122-1.355,1.582v1.42a5.237,5.237,0,0,0,1.344,4.3,3,3,0,0,0,3.615.609c.154-.052.349-.247.385.148.137,1.556-.207,3.24-1.807,3.294a9.5,9.5,0,0,1-1.639-.026c-.613-.086-.813.215-.737.946a3.485,3.485,0,0,1,0,.662c-.051.587.154.778.6.75.62-.039,1.243,0,1.863-.017a3.2,3.2,0,0,0,2.513-1.331,5.164,5.164,0,0,0,1.014-3.207c.018-1.356,0-2.714,0-4.072h0C2670.158,1136.825,2670.146,1135.374,2670.165,1133.922Z" transform="translate(-2552.917 -1103.232)" fill="#7b7202"/>
      <path id="Path_414" data-name="Path 414" d="M985.136,1083.523a1.534,1.534,0,0,1-.522,0c-.533-.094-.737.118-.725.86.037,2.334,0,4.669,0,7.005a2.745,2.745,0,0,1-.421,1.8,1.522,1.522,0,0,1-2.682,0,2.766,2.766,0,0,1-.434-1.8c0-2.3-.037-4.609.015-6.911.019-.83-.191-1.074-.791-.963a1.626,1.626,0,0,1-.522,0c-.444-.062-.542.215-.539.724.017,2.555-.022,5.114.024,7.669.016,2.51,1.633,4.527,3.611,4.506s3.568-2.073,3.551-4.583c.02-1.229,0-2.461,0-3.692h0c0-1.289-.02-2.579.01-3.881C985.734,1083.691,985.6,1083.452,985.136,1083.523Z" transform="translate(-939.758 -1056.218)" fill="#7b7202"/>
      <path id="Path_415" data-name="Path 415" d="M2175.2,1138.012a7.491,7.491,0,0,0-1.147-.415,8.363,8.363,0,0,1-2.264-.939c-.366-.245-.552-.61-.09-.991s1.836-.374,2.125.2c.508,1.012,1.223.726,1.91.776.588.043.593-.26.4-.859a3.028,3.028,0,0,0-3.353-2.321,3.317,3.317,0,0,0-2.611.847,2.663,2.663,0,0,0-.828,2.058,2.593,2.593,0,0,0,.914,2,7.22,7.22,0,0,0,2.12,1.132,13.831,13.831,0,0,1,1.5.557.638.638,0,0,1,.4.617.78.78,0,0,1-.423.711,1.784,1.784,0,0,1-2.561-.982c-.066-.137-.112-.264-.246-.322a5.193,5.193,0,0,0-1.956.133,4.3,4.3,0,0,0,.745,2.115,1.456,1.456,0,0,0,.169.2,4.408,4.408,0,0,0,5.815-.082,2.983,2.983,0,0,0,.709-2.451A2.487,2.487,0,0,0,2175.2,1138.012Z" transform="translate(-2079.946 -1103.497)" fill="#7b7202"/>
      <path id="Path_416" data-name="Path 416" d="M1774.017,1134.2a4.809,4.809,0,0,0-2.266,4.487,5,5,0,0,0,2.186,4.919,3.844,3.844,0,0,0,3.634-.159,3.279,3.279,0,0,0,1.468-2.035c.064-.215.178-.479-.107-.63a2.08,2.08,0,0,0-1.886.557,1.7,1.7,0,0,1-2.069.606,2.062,2.062,0,0,1-1.24-1.719c-.108-.5-.015-.776.454-.759.745.028,1.492,0,2.239,0h2.313c.324,0,.539-.082.508-.565a6.553,6.553,0,0,0-.9-3.524A3.471,3.471,0,0,0,1774.017,1134.2Zm2.725,3.653c-.447-.013-.894,0-1.339,0h0c-.322,0-.647.024-.967,0-.227-.021-.542.176-.659-.215a1.163,1.163,0,0,1,.222-.86,1.608,1.608,0,0,1,1.846-.859,1.451,1.451,0,0,1,1.273,1.234c.134.466.058.713-.374.7Z" transform="translate(-1699.406 -1103.891)" fill="#7b7202"/>
      <path id="Path_417" data-name="Path 417" d="M305.734,1128.415c-1.789-.443-3.556.878-4.119,3.077a6.382,6.382,0,0,0,1.79,6.769l.069.034a3.013,3.013,0,0,0,3.69-.411,5.214,5.214,0,0,0,1.5-4.3C308.884,1131.163,307.615,1128.925,305.734,1128.415Zm.413,7.521a1.506,1.506,0,0,1-1.823.266,2.337,2.337,0,0,1-1.074-1.888c-.017-.44-.024-.885-.01-1.326a2.133,2.133,0,0,1,1.771-2.336,1.573,1.573,0,0,1,1.316.663,2.579,2.579,0,0,1,.5,1.683v.456a2.969,2.969,0,0,1-.676,2.488Z" transform="translate(-291.262 -1098.654)" fill="#7b7202"/>
      <path id="Path_418" data-name="Path 418" d="M1205.2,1140.988h0v-2.271c.016-2.519-1.558-4.593-3.543-4.665-2.013.015-3.652,2.056-3.7,4.609-.029,1.577.014,3.157-.01,4.727-.009.567.122.832.586.767a1.729,1.729,0,0,1,.521,0c.567.1.793-.142.766-.922-.051-1.416-.022-2.839-.017-4.259a2.9,2.9,0,0,1,.465-1.786,1.83,1.83,0,0,1,1.325-.844,1.758,1.758,0,0,1,1.339.825,2.822,2.822,0,0,1,.441,1.8c.014,1.42.046,2.843-.009,4.259-.03.789.2,1.016.76.926a1.814,1.814,0,0,1,.522,0c.423.056.574-.167.557-.7C1205.185,1142.63,1205.2,1141.809,1205.2,1140.988Z" transform="translate(-1149.907 -1104.06)" fill="#7b7202"/>
      <path id="Path_419" data-name="Path 419" d="M532.273,1133.628a1.9,1.9,0,0,1-.6,0c-.572-.114-.732.193-.715.894.037,1.515.027,3.034.014,4.549a2.166,2.166,0,0,1-1.77,2.349,1.6,1.6,0,0,1-1.311-.68,2.611,2.611,0,0,1-.5-1.684c-.013-1.289,0-2.592,0-3.887-.01-1.833.169-1.485-1.228-1.545-.466-.019-.61.18-.591.752.029.883,0,1.769,0,2.654,0,.791-.015,1.581,0,2.364.064,2.426,1.643,4.343,3.556,4.317,1.88.046,3.468-1.763,3.632-4.141.064-1.766.017-3.539.036-5.308C532.815,1133.767,532.652,1133.58,532.273,1133.628Z" transform="translate(-505.989 -1103.634)" fill="#7b7202"/>
      <path id="Path_420" data-name="Path 420" d="M1527.447,1133.306a1.063,1.063,0,0,0-1.011.236,1.717,1.717,0,0,0-.548,1.1,23.071,23.071,0,0,1-.8,2.445,24.5,24.5,0,0,1-1.2,3.324,1.73,1.73,0,0,1-.437-.941c-.476-1.526-.938-3.058-1.433-4.573-.523-1.6-.537-1.556-1.914-1.586-.642-.015-.723.215-.476.909.977,2.727,2,5.432,2.879,8.215.369,1.184,1.006.918,1.668,1.016.713.105.867-.507,1.08-1.115.918-2.624,1.832-5.247,2.765-7.863C1528.433,1133.313,1528.445,1133.416,1527.447,1133.306Z" transform="translate(-1457.844 -1103.336)" fill="#7b7202"/>
      <path id="Path_421" data-name="Path 421" d="M87.934,1085.146c0-1.388,0-1.349-1.113-1.392-.55-.021-.72.153-.71.883.03,2.4.012,4.8-.024,7.2a2.6,2.6,0,0,1-.462,1.7,1.591,1.591,0,0,1-1.3.7,1.653,1.653,0,0,1-1.284-.749,2.668,2.668,0,0,1-.452-1.7c.01-.733-.147-1.062-.743-.96a2.576,2.576,0,0,1-.6,0c-.339-.022-.472.125-.508.587a5.5,5.5,0,0,0,.832,3.476,3.452,3.452,0,0,0,2.555,1.638,3.115,3.115,0,0,0,2.7-1.212,5.133,5.133,0,0,0,1.1-3.357c.01-1.169,0-2.338,0-3.5Q87.934,1086.8,87.934,1085.146Z" transform="translate(-79.967 -1056.461)" fill="#7b7202"/>
      <path id="Path_422" data-name="Path 422" d="M751.6,1083.863c0-.275-.124-.378-.325-.41a3.2,3.2,0,0,0-3.255.893,5.391,5.391,0,0,0-1.454,3.8c-.015,1.167,0,2.334,0,3.5v3.008c0,1.588,0,1.562,1.241,1.545.484,0,.647-.2.63-.823-.036-1.261.02-2.525-.022-3.784-.025-.761.132-1.107.781-1.014a10.961,10.961,0,0,0,1.49.019c.234,0,.413-.011.472-.413.227-1.521.008-1.9-1.165-1.9-.323,0-.649-.024-.969,0-.6.062-.669-.307-.518-.926a1.857,1.857,0,0,1,1.948-1.635c1.209-.043,1.209-.043,1.157-1.612A1.984,1.984,0,0,1,751.6,1083.863Z" transform="translate(-717.622 -1056.11)" fill="#7b7202"/>
      <path id="Path_423" data-name="Path 423" d="M2504.106,1094.343a1.571,1.571,0,0,1-1.52-.633,2.664,2.664,0,0,1-.513-1.922v-.86c0-1.994,0-1.992,1.56-2.08.2-.011.442.1.539-.312.307-1.32-.056-2-1.1-2a.677.677,0,0,0-.149,0c-.677.155-.875-.187-.862-1.057.029-1.861.308-1.582-1.285-1.642-.484-.017-.586.215-.573.771.027,1.229.009,2.463.009,3.692h.02c0,1.289-.022,2.589,0,3.883a5.145,5.145,0,0,0,1.343,3.464,3.092,3.092,0,0,0,2.948.954c.093-.024.249-.049.264-.114a5.037,5.037,0,0,0,.034-1.953C2504.751,1094.1,2504.353,1094.35,2504.106,1094.343Z" transform="translate(-2397.031 -1056.551)" fill="#7b7202"/>
      <path id="Path_424" data-name="Path 424" d="M1410.3,594.078c-.024-2.336-.009-4.674-.009-7.01s-.041-4.676.02-7.01c.026-.963-.369-.922-.872-.892s-1.016-.215-1,.924c.054,4.482.019,8.967.027,13.452,0,1.644-.195,1.41,1.141,1.48C1410.216,595.056,1410.306,594.731,1410.3,594.078Z" transform="translate(-1351.485 -578.969)" fill="#7b7202"/>
      <path id="Path_425" data-name="Path 425" d="M2015.213,1133.027c0-.359-.135-.464-.408-.507-2-.388-3.87,1.326-4.21,3.853a25.035,25.035,0,0,0-.02,3.023h-.051v1.8c.019,1.648-.2,1.431,1.221,1.476.5.015.647-.194.633-.814-.032-1.356.046-2.72-.025-4.072a3.03,3.03,0,0,1,.536-2.229,1.78,1.78,0,0,1,1.738-.752c.46.1.632-.17.591-.739Q2015.194,1133.547,2015.213,1133.027Z" transform="translate(-1928.079 -1102.569)" fill="#7b7202"/>
      <path id="Path_426" data-name="Path 426" d="M1421.785,1133.607a1.043,1.043,0,0,1-.447,0c-.6-.138-.762.187-.752.93.032,2.527,0,5.054.017,7.581.012,1.833-.235,1.534,1.273,1.569.447,0,.61-.135.6-.737-.034-1.42-.012-2.843-.012-4.263h0c0-1.39-.025-2.781.012-4.169C1422.493,1133.835,1422.378,1133.478,1421.785,1133.607Z" transform="translate(-1363.113 -1103.609)" fill="#7b7202"/>
      <path id="Path_427" data-name="Path 427" d="M2398.7,1134.464c0-.546-.159-.739-.571-.686a2.009,2.009,0,0,1-.594,0c-.518-.088-.694.165-.677.836.036,1.416.012,2.834.012,4.253h0c0,1.386.027,2.772-.012,4.158-.019.67.169.922.677.844a2.419,2.419,0,0,1,.594-.023c.4.039.571-.127.567-.688Q2398.67,1138.811,2398.7,1134.464Z" transform="translate(-2298.056 -1103.785)" fill="#7b7202"/>
      <path id="Path_428" data-name="Path 428" d="M453.124,578.694a1.552,1.552,0,0,0,.053-2.976,1.365,1.365,0,0,0-1.086,1.5,1.45,1.45,0,0,0,1.033,1.472Z" transform="translate(-435.617 -575.716)" fill="#7b7202"/>
      <path id="Path_429" data-name="Path 429" d="M1667.355,577.159a1.138,1.138,0,1,0,2.154.1,1.408,1.408,0,0,0-1.079-1.532A1.351,1.351,0,0,0,1667.355,577.159Z" transform="translate(-1599.436 -575.726)" fill="#7b7202"/>
      <path id="Path_430" data-name="Path 430" d="M1596.292,577.295a1.346,1.346,0,0,0,1,1.487,1.331,1.331,0,0,0,1.116-1.453,1.655,1.655,0,0,0-.271-1.043,1.033,1.033,0,0,0-.781-.474.984.984,0,0,0-.789.444A1.6,1.6,0,0,0,1596.292,577.295Z" transform="translate(-1531.381 -575.806)" fill="#7b7202"/>
      <path id="Path_431" data-name="Path 431" d="M1055.021,899.555a1.224,1.224,0,0,0-1.108-1.312,1.266,1.266,0,0,0-1.045,1.393,1.237,1.237,0,0,0,1.088,1.339,1.321,1.321,0,0,0,1.065-1.42Z" transform="translate(-1010.968 -880.761)" fill="#7b7202"/>
      <path id="Path_432" data-name="Path 432" d="M2653.238,899.048a1.5,1.5,0,0,0-.5-1.274.88.88,0,0,0-1.123,0,1.865,1.865,0,0,0,0,2.548.881.881,0,0,0,1.123,0A1.494,1.494,0,0,0,2653.238,899.048Z" transform="translate(-2541.547 -880.287)" fill="#7b7202"/>
      <path id="Path_433" data-name="Path 433" d="M1418,1057.364a1.253,1.253,0,0,0-1.022,1.391,1.2,1.2,0,0,0,1.1,1.3,1.253,1.253,0,0,0,1.022-1.392,1.2,1.2,0,0,0-1.1-1.3Z" transform="translate(-1359.66 -1031.498)" fill="#7b7202"/>
      <path id="Path_434" data-name="Path 434" d="M2394.052,1057.264a1.4,1.4,0,0,0-.041,2.7,1.224,1.224,0,0,0,1.083-1.33,1.246,1.246,0,0,0-1.048-1.373Z" transform="translate(-2294.361 -1031.397)" fill="#7b7202"/>
    </g>
  </g>
</svg>
