<svg xmlns="http://www.w3.org/2000/svg" width="923.782" height="935.881" viewBox="0 0 923.782 935.881">
  <g id="Personal_site-amico" data-name="Personal site-amico" transform="translate(-71.651 -94.885)">
    <g id="freepik--Floor--inject-14">
      <path id="Path_743" data-name="Path 743" d="M859.054,574.065c-180.962-104.477-473.4-104.477-653.183,0S27.029,847.99,208.012,952.424s473.419,104.477,653.2,0S1040.059,678.542,859.054,574.065Z" fill="#f5f5f5"/>
    </g>
    <g id="freepik--Shadows--inject-14">
      <path id="Path_744" data-name="Path 744" d="M603.833,507.318c20.823,12.027,20.951,31.544.235,43.571s-54.378,12.027-75.222,0-20.951-31.544-.235-43.571S582.989,495.291,603.833,507.318Z" fill="#e6e6e6"/>
      <path id="Path_745" data-name="Path 745" d="M157.1,847.819l19.41,10.508a12.648,12.648,0,0,0,12.327-.193l273.54-158.662a6.292,6.292,0,0,0-.15-10.978l-25.68-13.867L156.929,836.755a6.42,6.42,0,0,0,.171,11.064Z" fill="#e6e6e6"/>
      <path id="Path_746" data-name="Path 746" d="M763.609,811.76c-40.169-23.177-105.076-23.177-144.966,0s-39.7,60.8.471,84,105.076,23.177,144.966,0S803.777,834.958,763.609,811.76Z" fill="#e6e6e6"/>
      <path id="Path_747" data-name="Path 747" d="M916.193,704.073c-16.05-9.031-41.838-8.774-57.588.6s-15.515,24.311.535,33.363,41.838,8.774,57.588-.621S932.244,713.211,916.193,704.073Z" fill="#e6e6e6"/>
    </g>
    <g id="freepik--Table--inject-14">
      <path id="Path_748" data-name="Path 748" d="M571.134,363.25h-9.587c0,41.217,1.5,176.938,1.5,176.938h0a1.626,1.626,0,0,0,.963,1.348,5.115,5.115,0,0,0,4.665,0,1.626,1.626,0,0,0,.963-1.348h0S571.134,404.467,571.134,363.25Z" fill="#e6e6e6"/>
      <path id="Path_749" data-name="Path 749" d="M551.788,344.653H542.2c-8.239,42.694-13.611,176.938-13.611,176.938h0a1.755,1.755,0,0,0,.984,1.37,5.264,5.264,0,0,0,4.665,0,1.691,1.691,0,0,0,.963-1.37h0S544.276,386.705,551.788,344.653Z" fill="#e6e6e6"/>
      <path id="Path_750" data-name="Path 750" d="M580.892,344.653h9.587c8.239,42.651,13.589,176.938,13.589,176.938h0a1.691,1.691,0,0,1-.963,1.37,5.264,5.264,0,0,1-4.665,0,1.691,1.691,0,0,1-.963-1.37h0S588.382,386.705,580.892,344.653Z" fill="#e6e6e6"/>
      <g id="Group_163040" data-name="Group 163040" opacity="0.1">
        <path id="Path_751" data-name="Path 751" d="M571.134,363.25h-9.587c0,41.217,1.5,176.938,1.5,176.938h0a1.626,1.626,0,0,0,.963,1.348,5.115,5.115,0,0,0,4.665,0,1.626,1.626,0,0,0,.963-1.348h0S571.134,404.467,571.134,363.25Z"/>
        <path id="Path_752" data-name="Path 752" d="M551.788,344.653H542.2c-8.239,42.694-13.611,176.938-13.611,176.938h0a1.755,1.755,0,0,0,.984,1.37,5.264,5.264,0,0,0,4.665,0,1.691,1.691,0,0,0,.963-1.37h0S544.276,386.705,551.788,344.653Z"/>
        <path id="Path_753" data-name="Path 753" d="M580.892,344.653h9.587c8.239,42.651,13.589,176.938,13.589,176.938h0a1.691,1.691,0,0,1-.963,1.37,5.264,5.264,0,0,1-4.665,0,1.691,1.691,0,0,1-.963-1.37h0S588.382,386.705,580.892,344.653Z"/>
      </g>
      <path id="Path_754" data-name="Path 754" d="M617.915,343.433h-1.006c-1.947-5.607-6.677-10.978-14.21-15.323-20.223-11.663-52.88-11.663-72.954,0-7.49,4.28-12.155,9.716-14.039,15.323h-.963v5.8h0c0,7.661,5.136,15.3,15.237,21.144,20.2,11.663,52.88,11.663,72.954,0,10.037-5.842,14.98-13.482,14.98-21.144h0Z" fill="#e0e0e0"/>
      <path id="Path_755" data-name="Path 755" d="M602.7,322.311c20.2,11.663,20.309,30.581.235,42.244s-52.752,11.663-72.954,0-20.309-30.581-.235-42.244S582.476,310.627,602.7,322.311Z" fill="#ebebeb"/>
      <path id="Path_756" data-name="Path 756" d="M591.657,305.041H541.023c0,16.628,7.768,30.731,10.165,34.925a3.73,3.73,0,0,0,.321.556l.107.193h0a10.358,10.358,0,0,0,3.617,3.21,24.525,24.525,0,0,0,22.3,0,9.288,9.288,0,0,0,4.066-4.152C584.1,335.387,591.657,321.455,591.657,305.041Z" fill="#e0e0e0"/>
      <path id="Path_757" data-name="Path 757" d="M584.231,294.683c9.908,5.714,9.951,14.98,0,20.716s-25.873,5.735-35.8,0-9.973-14.98-.107-20.716S574.258,288.905,584.231,294.683Z" fill="#ebebeb"/>
      <path id="Path_758" data-name="Path 758" d="M563.6,298.493a72.761,72.761,0,0,0-7.3-31.245,26.514,26.514,0,0,1-3.467-9.523c-.235-3.381,1.626-7.233,4.965-7.9a7.084,7.084,0,0,1,6.827,3.253,20.437,20.437,0,0,1,2.7,7.49c2.5,11.706,4.58,23.754,3,35.632a14.978,14.978,0,0,1-.813,4.023,3.766,3.766,0,0,1-2.889,2.29,2.761,2.761,0,0,1-2.29-.9A5.864,5.864,0,0,1,563.6,298.493Z" fill="#ebebeb"/>
      <path id="Path_759" data-name="Path 759" d="M566.383,299.477h0a.407.407,0,0,1-.364-.449,90.759,90.759,0,0,0-7.469-44.363.428.428,0,0,1,.214-.556.407.407,0,0,1,.535.214,91.23,91.23,0,0,1,7.6,44.791.407.407,0,0,1-.514.364Z" fill="#fff"/>
      <path id="Path_760" data-name="Path 760" d="M538.969,280.859c-2.14-1.37-4.772-2.868-5.457-5.393a5.8,5.8,0,0,1,2.568-6.056,8.774,8.774,0,0,1,6.763-.9,18.341,18.341,0,0,1,6.228,3.124,41.6,41.6,0,0,1,8.56,8.2A44.384,44.384,0,0,1,564.5,292.2a48.043,48.043,0,0,1,2.461,8.9c.385,2.4,1.091,6.42-1.391,7.94a3.617,3.617,0,0,1-3.638,0,6.42,6.42,0,0,1-2.482-2.868,28.717,28.717,0,0,1-1.305-3.6,33.684,33.684,0,0,0-7.7-12.626A56.131,56.131,0,0,0,538.969,280.859Z" fill="#f5f5f5"/>
      <path id="Path_761" data-name="Path 761" d="M564.5,306.154h0a.513.513,0,0,1-.6-.385,49.584,49.584,0,0,0-26.13-33.556.556.556,0,0,1-.235-.685.535.535,0,0,1,.685-.235,50.655,50.655,0,0,1,26.686,34.241A.535.535,0,0,1,564.5,306.154Z" fill="#fff"/>
      <path id="Path_762" data-name="Path 762" d="M588.511,275.7c1.8-1.9,3.873-3.98,3.895-6.591a5.778,5.778,0,0,0-4.023-5.2,8.56,8.56,0,0,0-6.763.835,17.956,17.956,0,0,0-5.243,4.6,41.6,41.6,0,0,0-6.227,10.1,44.7,44.7,0,0,0-3.51,13.7,47.416,47.416,0,0,0-.128,9.224c.235,2.418.556,6.42,3.36,7.362a3.66,3.66,0,0,0,3.51-.984,6.42,6.42,0,0,0,1.669-3.381,28.643,28.643,0,0,0,.342-3.809,34.24,34.24,0,0,1,4.28-14.167A56.071,56.071,0,0,1,588.511,275.7Z" fill="#f5f5f5"/>
      <path id="Path_763" data-name="Path 763" d="M570.192,306.646h0a.513.513,0,0,0,.471-.535,49.564,49.564,0,0,1,16.8-39.077.514.514,0,0,0-.663-.77,50.654,50.654,0,0,0-17.12,39.912.514.514,0,0,0,.514.471Z" fill="#fff"/>
    </g>
    <g id="freepik--Pictures--inject-14">
      <path id="Path_764" data-name="Path 764" d="M844.738,204.952l71.755,41.41-.15,54.849-71.755-41.431Z" fill="none"/>
      <path id="Path_765" data-name="Path 765" d="M844.738,204.952l-.15,54.828-6.634,3.873.171-62.532Z" fill="#f0f0f0"/>
      <path id="Path_766" data-name="Path 766" d="M916.343,301.21l-.021,7.683-78.368-45.24,6.634-3.873Z" fill="#f5f5f5"/>
      <path id="Path_767" data-name="Path 767" d="M829.886,268.232l94.44,54.528.171-80.936-94.376-54.55Zm8.068-4.58.171-62.489,6.613,3.831,71.755,41.41-.15,54.849v7.683Z" fill="#e0e0e0"/>
      <path id="Path_768" data-name="Path 768" d="M830.121,187.275l6.634-3.873L931.2,237.93l-6.634,3.852Z" fill="#f5f5f5"/>
      <path id="Path_769" data-name="Path 769" d="M931.2,237.93l-.214,80.958-6.655,3.873.235-80.979Z" fill="#f0f0f0"/>
      <path id="Path_770" data-name="Path 770" d="M728,137.861l71.756,41.431-.15,54.828-71.756-41.431Z" fill="none"/>
      <path id="Path_771" data-name="Path 771" d="M728,137.861l-.15,54.828-6.656,3.873.171-62.532Z" fill="#f0f0f0"/>
      <path id="Path_772" data-name="Path 772" d="M799.6,234.12l-.021,7.683-78.39-45.24,6.656-3.873Z" fill="#f5f5f5"/>
      <path id="Path_773" data-name="Path 773" d="M713.147,201.164l94.44,54.528.214-80.958-94.44-54.55Zm8.047-4.6.171-62.532L728,137.861l71.756,41.431-.15,54.828v7.7Z" fill="#e0e0e0"/>
      <path id="Path_774" data-name="Path 774" d="M713.361,120.185l6.656-3.873,94.44,54.528-6.655,3.873Z" fill="#f5f5f5"/>
      <path id="Path_775" data-name="Path 775" d="M814.456,170.839l-.235,80.979-6.634,3.852.214-80.958Z" fill="#f0f0f0"/>
      <path id="Path_776" data-name="Path 776" d="M867.55,225.774l-19.581,15.387-.043,15.066L913,293.806l.043-15.066-12.391-24.632-11.15,8.646,3.959,12.241-5.735-10.871Z" fill="#e0e0e0"/>
      <path id="Path_777" data-name="Path 777" d="M888.929,233.264c-3.082-1.776-5.564-.342-5.564,3.167a12.177,12.177,0,0,0,5.521,9.587c3.06,1.755,5.564.342,5.564-3.167a12.219,12.219,0,0,0-5.521-9.587Z" fill="#e0e0e0"/>
      <path id="Path_778" data-name="Path 778" d="M750.79,158.684l-19.56,15.408-.043,15.044,65.079,37.579.043-15.044-12.391-24.653-11.15,8.646,3.938,12.241-5.714-10.85Z" fill="#e0e0e0"/>
      <path id="Path_779" data-name="Path 779" d="M772.169,166.26c-3.06-1.755-5.543-.342-5.564,3.167a12.2,12.2,0,0,0,5.543,9.587c3.06,1.776,5.543.342,5.564-3.167a12.241,12.241,0,0,0-5.543-9.587Z" fill="#e0e0e0"/>
    </g>
    <g id="freepik--Plant--inject-14">
      <path id="Path_780" data-name="Path 780" d="M925.567,651.064l-38.628,1.519-38.628-.706c-1.391,26.087,3.98,52.624,11.15,65.528h0a17.549,17.549,0,0,0,7.726,7.7c11.471,6.42,29.961,6.27,41.132-.428a17.12,17.12,0,0,0,7.554-8.068C922.721,703.474,927.493,677,925.567,651.064Z" fill="#fff"/>
      <path id="Path_781" data-name="Path 781" d="M913.989,635.356c15.216,8.56,15.451,22.749.514,31.63s-39.4,9.159-54.614.578-15.472-22.727-.514-31.63S898.816,626.775,913.989,635.356Z" fill="#ebebeb"/>
      <path id="Path_782" data-name="Path 782" d="M908.04,638.909c11.877,6.677,12.048,17.741.407,24.675s-30.731,7.148-42.63.449-11.941-17.741-.385-24.675S896.163,632.21,908.04,638.909Z" fill="#e0e0e0"/>
      <g id="Group_163041" data-name="Group 163041" opacity="0.15">
        <path id="Path_783" data-name="Path 783" d="M908.04,638.909c11.877,6.677,12.048,17.741.407,24.675s-30.731,7.148-42.63.449-11.941-17.741-.385-24.675S896.163,632.21,908.04,638.909Z"/>
      </g>
      <path id="Path_784" data-name="Path 784" d="M948.7,485.981c-86.736,29.426-86.907,87.742-66.855,128.916,5.029,8.346,20.052,12.69,32.55-39.013l-22.834,3.167,26.515-13.782,6.72-20.758-22.214,1.883,28.077-12.155A415.809,415.809,0,0,1,948.7,485.981Z" fill="#7b7202"/>
      <path id="Path_785" data-name="Path 785" d="M948.7,485.981c-86.736,29.426-86.907,87.742-66.855,128.916,5.029,8.346,20.052,12.69,32.55-39.013l-22.834,3.167,26.515-13.782,6.72-20.758-22.214,1.883,28.077-12.155A415.809,415.809,0,0,1,948.7,485.981Z" opacity="0.2"/>
      <path id="Path_786" data-name="Path 786" d="M948.7,485.981c-86.736,29.426-86.907,87.742-66.855,128.916,5.029,8.346,20.052,12.69,32.55-39.013l-22.834,3.167,26.515-13.782,6.72-20.758-22.214,1.883,28.077-12.155A415.809,415.809,0,0,1,948.7,485.981Z" fill="#fff" opacity="0.2"/>
      <path id="Path_787" data-name="Path 787" d="M924.24,500.769c-45.54,35.311-49.221,75.287-35.846,116.846C883.408,581,878.058,543.934,924.24,500.769Z" fill="#fff"/>
      <path id="Path_788" data-name="Path 788" d="M801.894,546.694c85.923,11.171,96.9,65.164,85.965,107.152-3.124,8.689-16.243,15.494-37.451-30.132l21.764-1.305-27.136-7.875-10.058-18,20.93-2.375L827.617,588.1a393.769,393.769,0,0,0-25.723-41.41Z" fill="#7b7202"/>
      <path id="Path_789" data-name="Path 789" d="M801.894,546.694c85.923,11.171,96.9,65.164,85.965,107.152-3.124,8.689-16.243,15.494-37.451-30.132l21.764-1.305-27.136-7.875-10.058-18,20.93-2.375L827.617,588.1a393.769,393.769,0,0,0-25.723-41.41Z" fill="#fff" opacity="0.2"/>
      <path id="Path_790" data-name="Path 790" d="M801.894,546.694c85.923,11.171,96.9,65.164,85.965,107.152-3.124,8.689-16.243,15.494-37.451-30.132l21.764-1.305-27.136-7.875-10.058-18,20.93-2.375L827.617,588.1a393.769,393.769,0,0,0-25.723-41.41Z" opacity="0.1"/>
      <path id="Path_791" data-name="Path 791" d="M827.339,555.9c48.793,24.311,59.686,60.691,54.978,101.737C880.112,622.751,878.186,587.312,827.339,555.9Z" fill="#fff"/>
      <path id="Path_792" data-name="Path 792" d="M974.638,565.141c-78.668,2.14-93.584,49.863-87.613,88.833,2.012,8.132,13.247,15.515,36.637-23.754l-19.539-3.189,25.252-4.6,10.7-15.323-18.7-4.087,26.13-2.868A358.211,358.211,0,0,1,974.638,565.141Z" fill="#7b7202"/>
      <path id="Path_793" data-name="Path 793" d="M950.8,571.091c-46.332,17.42-59.557,49.221-59.108,86.821C896.933,626.561,901.941,594.76,950.8,571.091Z" fill="#fff"/>
      <path id="Path_794" data-name="Path 794" d="M974.638,565.141c-78.668,2.14-93.584,49.863-87.613,88.833,2.012,8.132,13.247,15.515,36.637-23.754l-19.539-3.189,25.252-4.6,10.7-15.323-18.7-4.087,26.13-2.868A358.211,358.211,0,0,1,974.638,565.141Z" fill="#fff" opacity="0.2"/>
    </g>
    <g id="freepik--Device--inject-14">
      <path id="Path_795" data-name="Path 795" d="M458.161,113.636h0c-1.883-6.549-15.173-19-28.4-18.725a11.043,11.043,0,0,0-3.724.728L169.063,241.824a24.867,24.867,0,0,0-12.434,21.4V819.207c0,14.146,16.328,27.671,31.651,21.165h0a5.6,5.6,0,0,0,.984-.407L446.391,693.373a24.589,24.589,0,0,0,12.412-21.4V116.311a6.077,6.077,0,0,0-.642-2.675Z" fill="#7b7202"/>
      <path id="Path_796" data-name="Path 796" d="M458.161,113.636h0c-1.883-6.549-15.173-19-28.4-18.725a11.043,11.043,0,0,0-3.724.728L169.063,241.824a24.867,24.867,0,0,0-12.434,21.4V819.207c0,14.146,16.328,27.671,31.651,21.165h0a5.6,5.6,0,0,0,.984-.407L446.391,693.373a24.589,24.589,0,0,0,12.412-21.4V116.311a6.077,6.077,0,0,0-.642-2.675Z" opacity="0.3"/>
      <path id="Path_797" data-name="Path 797" d="M192.454,321.969a12.284,12.284,0,0,1,6.228-10.7L437.338,175.483a6.142,6.142,0,0,1,9.181,5.35V629.171a12.305,12.305,0,0,1-6.206,10.7L201.656,775.85a6.163,6.163,0,0,1-9.2-5.35Z" fill="#455a64"/>
      <path id="Path_798" data-name="Path 798" d="M156.608,263.225V819.207c0,14.146,16.328,27.671,31.651,21.165h0a6.1,6.1,0,0,1-8.089-5.757V278.569A24.5,24.5,0,0,1,184.322,265l-25.167-12.476a24.461,24.461,0,0,0-2.547,10.7Z" opacity="0.3"/>
      <path id="Path_799" data-name="Path 799" d="M429.784,94.889a11.043,11.043,0,0,0-3.724.728l-257,146.207a24.4,24.4,0,0,0-9.908,10.7l25.167,12.583a24.5,24.5,0,0,1,8.282-7.9L449.622,110.982a6.12,6.12,0,0,1,8.56,2.654h0C456.3,107,442.988,94.611,429.784,94.889Z" fill="#fff" opacity="0.1"/>
      <path id="Path_800" data-name="Path 800" d="M351.159,202.79c1.819-1.049,3.317-.235,3.317,1.84a7.255,7.255,0,0,1-3.3,5.671l-50.419,29.126c-1.8,1.049-3.253.171-3.274-1.9a7.19,7.19,0,0,1,3.253-5.628Z" fill="#263238"/>
      <path id="Path_801" data-name="Path 801" d="M287.792,239.363c1.8-1.027,3.253-.214,3.274,1.862a7.233,7.233,0,0,1-3.253,5.671c-1.819,1.049-3.3.193-3.317-1.883A7.212,7.212,0,0,1,287.792,239.363Z" fill="#263238"/>
      <path id="Path_802" data-name="Path 802" d="M320.064,198.553c3.617-2.14,6.527-.428,6.527,3.724a14.4,14.4,0,0,1-6.42,11.321c-3.6,2.14-6.591.364-6.613-3.766a14.467,14.467,0,0,1,6.506-11.278Z" fill="#263238"/>
      <path id="Path_803" data-name="Path 803" d="M320.086,721.942c7.34-4.28,13.268-.856,13.29,7.576a29.361,29.361,0,0,1-13.2,23.07c-7.34,4.28-13.439.77-13.461-7.661a29.383,29.383,0,0,1,13.375-22.984Z" fill="#263238"/>
    </g>
    <g id="freepik--Screen--inject-14">
      <path id="Path_804" data-name="Path 804" d="M495.8,205.444h0l-13.889-7.362h0a6.035,6.035,0,0,0-6.677-.449L236.624,333.525a12.348,12.348,0,0,0-6.206,10.7V792.756a6.056,6.056,0,0,0,3.916,5.671h0l14,7.512h0l.235.107a6.078,6.078,0,0,0,5.864,0l238.657-136a12.305,12.305,0,0,0,6.206-10.7V211.029a6.035,6.035,0,0,0-3.488-5.586Z" fill="#7b7202"/>
      <path id="Path_805" data-name="Path 805" d="M499.314,226.694V211.029a6.035,6.035,0,0,0-3.51-5.586h0l-13.889-7.362h0a6.035,6.035,0,0,0-6.677-.449L236.624,333.525a12.348,12.348,0,0,0-6.206,10.7v20.566l14.852,8.56Z" fill="#fff" opacity="0.3"/>
      <path id="Path_806" data-name="Path 806" d="M495.8,205.444h0l-13.889-7.362h0a6.035,6.035,0,0,0-6.677-.449L236.624,333.525a12.348,12.348,0,0,0-6.206,10.7V792.756a6.056,6.056,0,0,0,3.916,5.671h0l14,7.512h0l.235.107a6.078,6.078,0,0,0,5.864,0l238.657-136a12.305,12.305,0,0,0,6.206-10.7V211.029a6.035,6.035,0,0,0-3.488-5.586Z" fill="#fff" opacity="0.5"/>
      <path id="Path_807" data-name="Path 807" d="M230.418,344.225V792.756a6.056,6.056,0,0,0,3.916,5.671h0l14,7.512a6.1,6.1,0,0,1-3.039-5.307V352.143a12.519,12.519,0,0,1,.963-4.794l-14.6-8.432a12.369,12.369,0,0,0-1.241,5.307Z" fill="#7b7202" opacity="0.3"/>
      <path id="Path_808" data-name="Path 808" d="M481.958,198.146h0a6.035,6.035,0,0,0-6.677-.449L236.624,333.525a12.241,12.241,0,0,0-4.986,5.393l14.6,8.432a12.284,12.284,0,0,1,5.243-5.885L490.069,205.679a5.992,5.992,0,0,1,5.671-.15h0Z" fill="#fff" opacity="0.4"/>
      <path id="Path_809" data-name="Path 809" d="M317.988,348.463c31.48-18.169,57.075-3.6,57.182,32.571s-25.338,80.23-56.818,98.442-57.075,3.6-57.182-32.571S286.508,366.632,317.988,348.463Z" fill="#7b7202"/>
      <path id="Path_810" data-name="Path 810" d="M346.815,382.211a15.258,15.258,0,0,0,4.28-20.116,8.26,8.26,0,0,0,4.023-3.788,4.43,4.43,0,0,0-5.757-5.906,6.249,6.249,0,0,0-2.482-7.276,5.907,5.907,0,0,0-7.319,1.348,4,4,0,0,0-2.718-3.916,8.047,8.047,0,0,0-5.051.321c-1.648.556-3.167,1.37-4.815,1.883a36.507,36.507,0,0,1-8.56,1.113,17.484,17.484,0,0,0-8.346,2.14,7.469,7.469,0,0,0-3.274,8.56,4.794,4.794,0,0,0-3.467-1.84,4.644,4.644,0,0,0-3.552,1.519c1.819,1.113,3.574,2.333,5.393,3.445a4.9,4.9,0,0,0-5.543,2.14,10.828,10.828,0,0,0-.984,5.842,77.616,77.616,0,0,0,4.023,22.406c1.241,3.724,4.152,8.432,7.683,10.144Z" fill="#37474f"/>
      <path id="Path_811" data-name="Path 811" d="M340.887,410.887l8.56,7.362,4.558,26.151a140.11,140.11,0,0,0,9.887-17.548C360.019,416.773,356.873,410.887,340.887,410.887Z" fill="#ebebeb"/>
      <path id="Path_812" data-name="Path 812" d="M318.352,479.369c14.788-8.56,28.249-22.77,38.328-39.227-.813-14.167-2.91-29.4-15.794-29.4l-38.285.257-7.811.835L291.045,487.2C299.22,487.608,308.487,485.125,318.352,479.369Z" fill="#7b7202"/>
      <g id="Group_163042" data-name="Group 163042" opacity="0.4">
        <path id="Path_813" data-name="Path 813" d="M318.352,479.369c14.788-8.56,28.249-22.77,38.328-39.227-.813-14.167-2.91-29.4-15.794-29.4l-38.285.257-7.811.835L291.045,487.2C299.22,487.608,308.487,485.125,318.352,479.369Z" fill="#fff"/>
      </g>
      <path id="Path_814" data-name="Path 814" d="M334.638,415.9c3.574,11.385,1.327,27.264,0,34.412-9.074-12.476-17.548-24.974-20.223-29.961l12.648-6.12Z" fill="#ebebeb"/>
      <path id="Path_815" data-name="Path 815" d="M329.352,426.339l3.124-.728a103.874,103.874,0,0,1,3.788,12.2c-.385,5.029-1.091,9.523-1.626,12.5-1.8-2.44-3.552-4.9-5.243-7.276a83.463,83.463,0,0,0-.043-16.692Z" fill="#455a64"/>
      <path id="Path_816" data-name="Path 816" d="M329.416,427v-.663l3.124-.728.171.449a4.087,4.087,0,0,1-1.776.942,3.7,3.7,0,0,1-1.52,0Z" opacity="0.2"/>
      <path id="Path_817" data-name="Path 817" d="M327.661,418.164,325.2,416.58l-5.714,3.124a13.1,13.1,0,0,0,6.763,2.675Z" fill="#455a64"/>
      <path id="Path_818" data-name="Path 818" d="M331.449,417.564l.749-1.669,2.889,1.8a5.179,5.179,0,0,1-1.862,2.739Z" fill="#455a64"/>
      <path id="Path_819" data-name="Path 819" d="M327.661,418.164,325.2,416.58l-5.714,3.124a13.1,13.1,0,0,0,6.763,2.675Z" opacity="0.2"/>
      <path id="Path_820" data-name="Path 820" d="M331.449,417.564l.749-1.669,2.889,1.8a5.179,5.179,0,0,1-1.862,2.739Z" opacity="0.2"/>
      <path id="Path_821" data-name="Path 821" d="M326.249,422.379a14.209,14.209,0,0,1,1.412-4.28l3.788-.6a14.212,14.212,0,0,1,1.776,2.868,14.1,14.1,0,0,1-.749,5.179,6.72,6.72,0,0,1-3.125.728,8.068,8.068,0,0,1-3.1-3.895Z" fill="#455a64"/>
      <path id="Path_822" data-name="Path 822" d="M328.988,416.837c-5.992-.107-9.673,4.687-15.173,6.313L302.6,411.059l4.28-6.42a11.555,11.555,0,0,1,3.317-3.21h0v2.354a4.045,4.045,0,0,0,1.99,3.36Z" fill="#e0e0e0"/>
      <path id="Path_823" data-name="Path 823" d="M328.988,416.837c3.36-1.027,8.346,3.146,8.346,3.146-1.755-9.673-7.019-13.482-8.325-13.482Z" fill="#e0e0e0"/>
      <path id="Path_824" data-name="Path 824" d="M294.79,411.893l-5.179.835a15.3,15.3,0,0,0-12.519,12.027,182.7,182.7,0,0,0-3.381,44.063l23.754-10.85C299.905,439.371,304.784,424.07,294.79,411.893Z" fill="#ebebeb"/>
      <path id="Path_825" data-name="Path 825" d="M297.166,466.122v-2.14a1.284,1.284,0,0,1,.471-.984,1.369,1.369,0,0,0,.471-1.049v-3.424a1.669,1.669,0,0,0-1.712-1.669c-10.7.15-21.144,5.243-23.99,11.257a8.967,8.967,0,0,0,0,5.8c-1.862,2.418-.963,3.659,0,5.414a31.911,31.911,0,0,0,3.082,2.547C282.485,470.809,297.166,466.122,297.166,466.122Z" fill="#e0e0e0"/>
      <path id="Path_826" data-name="Path 826" d="M286.059,463.725A36.381,36.381,0,0,0,272.513,474a9.654,9.654,0,0,1-.428-1.969,23.925,23.925,0,0,1,13.974-8.3Z" opacity="0.2"/>
      <path id="Path_827" data-name="Path 827" d="M298.129,462.441a1.241,1.241,0,0,1-.385.642,1.284,1.284,0,0,0-.471.984v.171a35.653,35.653,0,0,0-19.8,10.015C282.485,467.085,293.314,463.4,298.129,462.441Z" opacity="0.2"/>
      <path id="Path_828" data-name="Path 828" d="M318.352,479.369a100.3,100.3,0,0,0,24.4-20.395c-13.76,0-32.935.856-45.5,5.2v1.883s-14.638,4.644-21.572,15.836C286.059,489.491,301.339,489.256,318.352,479.369Z" fill="#ffa8a7"/>
      <path id="Path_829" data-name="Path 829" d="M298.214,466.186l.235-2.333-1.2.385v1.883a49.431,49.431,0,0,0-9.78,4.644,14.361,14.361,0,0,0-2.14,4.28c2.868-4.045,6.013-5.671,12.134-7.233,5.543.856,15.237,4.943,25.081,9.052.942-.621,1.883-1.263,2.8-1.926C313.323,470.809,301.3,466.4,298.214,466.186Z" opacity="0.2"/>
      <path id="Path_830" data-name="Path 830" d="M317.175,401.814H317a9.78,9.78,0,0,1-5.029-6.42c-.321-1.391-.6-2.782-.813-4.173s-1.134,0-1.134,0,0,3.082.15,6.741c0,1.926,0,4.023.128,5.928a4.045,4.045,0,0,0,1.99,3.36l16.692,9.737V405.109a30.432,30.432,0,0,1-11.813-3.3Z" fill="#ffa8a7"/>
      <path id="Path_831" data-name="Path 831" d="M313.109,399.7Z" fill="#ffa8a7"/>
      <path id="Path_832" data-name="Path 832" d="M314.8,401.578a11.535,11.535,0,0,1-2.14-4.28,10.079,10.079,0,0,0,4.28,4.43h.171a30.432,30.432,0,0,0,11.834,3.146v3.039a29.749,29.749,0,0,1-7-1.477,15.687,15.687,0,0,1-7.148-4.858Z" opacity="0.2"/>
      <path id="Path_833" data-name="Path 833" d="M347.842,363.807a79.524,79.524,0,0,1-2.012,30.966,24.269,24.269,0,0,1-2.44,6.42,10.379,10.379,0,0,1-5.029,4.451,15.836,15.836,0,0,1-8.3,0,42.094,42.094,0,0,1-14.638-4.494c-4.28-2.654-7.854-7.447-7.426-12.562a8.753,8.753,0,0,1-8.389.471,8.881,8.881,0,0,1-4.6-7.126,5.478,5.478,0,0,1,9.159-5.179,18.4,18.4,0,0,1,3.4,3.98,5.992,5.992,0,0,0,1.691,1.819,2.14,2.14,0,0,0,2.354,0,3.06,3.06,0,0,0,.663-2.547l-.3-6.42a2.589,2.589,0,0,1,1.434-2.4,6.42,6.42,0,0,0,2.911-3.36,13.161,13.161,0,0,0,.813-3.895,1.605,1.605,0,0,1,2.14-1.348,47.68,47.68,0,0,0,28.57,1.22Z" fill="#ffa8a7"/>
      <path id="Path_834" data-name="Path 834" d="M333.589,379.536l5.821,9.8-6.955,1.305Z" fill="#f28f8f"/>
      <path id="Path_835" data-name="Path 835" d="M325.778,394.024l5.264,2.568a3.424,3.424,0,0,1-4,1.134,3.06,3.06,0,0,1-1.263-3.7Z" fill="#f28f8f"/>
      <path id="Path_836" data-name="Path 836" d="M325.778,394.024l5.264,2.568a3.424,3.424,0,0,1-4,1.134,3.06,3.06,0,0,1-1.263-3.7Z" opacity="0.3"/>
      <path id="Path_837" data-name="Path 837" d="M328.881,397.9a2.975,2.975,0,0,1-1.84-.171,2.825,2.825,0,0,1-1.412-2.782,3.317,3.317,0,0,1,2.14.728A3.274,3.274,0,0,1,328.881,397.9Z" fill="#f28f8f"/>
      <path id="Path_838" data-name="Path 838" d="M323.531,379.921a1.99,1.99,0,1,0,2.14-1.776A1.969,1.969,0,0,0,323.531,379.921Z" fill="#263238"/>
      <path id="Path_839" data-name="Path 839" d="M340.266,380.927a1.99,1.99,0,1,0,2.183-1.776,1.99,1.99,0,0,0-2.183,1.776Z" fill="#263238"/>
      <path id="Path_840" data-name="Path 840" d="M342.984,373.244l4.109,3.488a2.825,2.825,0,0,0-.556-3.189,3.36,3.36,0,0,0-3.553-.3Z" fill="#263238"/>
      <path id="Path_841" data-name="Path 841" d="M326.014,371.3l-4.708,2.611a2.8,2.8,0,0,1,1.177-3.039,3.381,3.381,0,0,1,3.531.428Z" fill="#263238"/>
      <path id="Path_842" data-name="Path 842" d="M421.78,367.38l.021,5.521-24.739,14.274-.021-5.521Z" fill="#fff"/>
      <path id="Path_843" data-name="Path 843" d="M434.813,393.81l.021,5.521L397.17,421.074l-.021-5.521Z" fill="#fff"/>
      <path id="Path_844" data-name="Path 844" d="M447.14,375.406l.021,5.521-50.034,28.891-.021-5.521Z" fill="#fff"/>
      <path id="Path_845" data-name="Path 845" d="M466.635,330.187l.021,5.521-69.615,40.211-.021-5.543Z" fill="#fff"/>
      <path id="Path_846" data-name="Path 846" d="M480.417,310.841l.021,5.543L397,364.534l-.021-5.521Z" fill="#fff"/>
      <path id="Path_847" data-name="Path 847" d="M463.04,299.884l.043,11.064-66.127,38.178-.021-11.064Z" fill="#fff"/>
      <path id="Path_848" data-name="Path 848" d="M258.752,522.4V788.027l97.95-55.812V465.908Z" fill="#7b7202"/>
      <path id="Path_849" data-name="Path 849" d="M485.81,391.392,362.972,462.27V728.641l122.838-70Z" fill="#7b7202"/>
      <g id="Group_163043" data-name="Group 163043" opacity="0.7">
        <path id="Path_850" data-name="Path 850" d="M258.752,522.4V788.027l97.95-55.812V465.908Z" fill="#fff"/>
        <path id="Path_851" data-name="Path 851" d="M485.81,391.392,362.972,462.27V728.641l122.838-70Z" fill="#fff"/>
      </g>
      <path id="Path_852" data-name="Path 852" d="M437.724,623.008v4.772l-58.1,33.534-.021-4.751Z" fill="#7b7202"/>
      <path id="Path_853" data-name="Path 853" d="M469.567,595.766l.021,4.794L379.6,652.5l-.021-4.772Z" fill="#7b7202"/>
      <path id="Path_854" data-name="Path 854" d="M421.866,614.469v4.772l-42.287,24.418-.021-4.751Z" fill="#7b7202"/>
      <path id="Path_855" data-name="Path 855" d="M469.525,578.132l.021,4.772-89.989,51.939-.021-4.772Z" fill="#7b7202"/>
      <path id="Path_856" data-name="Path 856" d="M469.5,569.293l.021,4.772-90.01,51.96v-4.772Z" fill="#7b7202"/>
      <path id="Path_857" data-name="Path 857" d="M401.172,587.27v4.794l-21.7,12.541-.021-4.794Z" fill="#7b7202"/>
      <path id="Path_858" data-name="Path 858" d="M469.418,539.033v4.772l-89.967,51.96-.021-4.772Z" fill="#7b7202"/>
      <path id="Path_859" data-name="Path 859" d="M469.4,530.216v4.772l-89.989,51.96v-4.772Z" fill="#7b7202"/>
      <path id="Path_860" data-name="Path 860" d="M469.353,521.4l.021,4.772L379.386,578.11v-4.751Z" fill="#7b7202"/>
      <path id="Path_861" data-name="Path 861" d="M437.424,518.467l.021,4.772L379.322,556.8v-4.772Z" fill="#7b7202"/>
      <path id="Path_862" data-name="Path 862" d="M469.268,491.225l.021,4.794L379.3,547.978v-4.794Z" fill="#7b7202"/>
      <path id="Path_863" data-name="Path 863" d="M469.246,482.408l.021,4.772-89.989,51.96-.021-4.772Z" fill="#7b7202"/>
      <path id="Path_864" data-name="Path 864" d="M469.2,464.752l.021,4.794-89.989,51.96-.021-4.794Z" fill="#7b7202"/>
      <path id="Path_865" data-name="Path 865" d="M469.225,473.591l.021,4.772-89.989,51.96-.021-4.772Z" fill="#7b7202"/>
      <path id="Path_866" data-name="Path 866" d="M455.721,433.893v4.772L379.129,482.9l-.021-4.772Z" fill="#7b7202"/>
      <path id="Path_867" data-name="Path 867" d="M461.157,448.424l.021,4.794-82.006,47.338-.021-4.794Z" fill="#7b7202"/>
      <path id="Path_868" data-name="Path 868" d="M433.1,455.785v4.772l-53.95,31.159-.021-4.772Z" fill="#7b7202"/>
      <path id="Path_869" data-name="Path 869" d="M469.075,417.35v4.772l-89.989,51.96v-4.772Z" fill="#7b7202"/>
      <path id="Path_870" data-name="Path 870" d="M469.7,640.235l.021,4.751-89.989,51.96-.021-4.772Z" fill="#7b7202"/>
      <path id="Path_871" data-name="Path 871" d="M422.037,676.573v4.772L379.75,705.763l-.021-4.772Z" fill="#7b7202"/>
      <path id="Path_872" data-name="Path 872" d="M447.033,644.473l.021,4.772L379.707,688.13l-.021-4.772Z" fill="#7b7202"/>
      <path id="Path_873" data-name="Path 873" d="M469.653,622.58l.021,4.772-89.989,51.96-.021-4.794Z" fill="#7b7202"/>
      <g id="Group_163044" data-name="Group 163044" opacity="0.1">
        <path id="Path_874" data-name="Path 874" d="M437.724,623.008v4.772l-58.1,33.534-.021-4.751Z" fill="#fff"/>
        <path id="Path_875" data-name="Path 875" d="M469.567,595.766l.021,4.794L379.6,652.5l-.021-4.772Z" fill="#fff"/>
        <path id="Path_876" data-name="Path 876" d="M421.866,614.469v4.772l-42.287,24.418-.021-4.751Z" fill="#fff"/>
        <path id="Path_877" data-name="Path 877" d="M469.525,578.132l.021,4.772-89.989,51.939-.021-4.772Z" fill="#fff"/>
        <path id="Path_878" data-name="Path 878" d="M469.5,569.293l.021,4.772-90.01,51.96v-4.772Z" fill="#fff"/>
      </g>
      <g id="Group_163045" data-name="Group 163045" opacity="0.4">
        <path id="Path_879" data-name="Path 879" d="M401.172,587.27v4.794l-21.7,12.541-.021-4.794Z" fill="#fff"/>
        <path id="Path_880" data-name="Path 880" d="M469.418,539.033v4.772l-89.967,51.96-.021-4.772Z" fill="#fff"/>
        <path id="Path_881" data-name="Path 881" d="M469.4,530.216v4.772l-89.989,51.96v-4.772Z" fill="#fff"/>
        <path id="Path_882" data-name="Path 882" d="M469.353,521.4l.021,4.772L379.386,578.11v-4.751Z" fill="#fff"/>
      </g>
      <g id="Group_163046" data-name="Group 163046" opacity="0.1">
        <path id="Path_883" data-name="Path 883" d="M437.424,518.467l.021,4.772L379.322,556.8v-4.772Z" fill="#fff"/>
        <path id="Path_884" data-name="Path 884" d="M469.268,491.225l.021,4.794L379.3,547.978v-4.794Z" fill="#fff"/>
        <path id="Path_885" data-name="Path 885" d="M469.246,482.408l.021,4.772-89.989,51.96-.021-4.772Z" fill="#fff"/>
        <path id="Path_886" data-name="Path 886" d="M469.2,464.752l.021,4.794-89.989,51.96-.021-4.794Z" fill="#fff"/>
        <path id="Path_887" data-name="Path 887" d="M469.225,473.591l.021,4.772-89.989,51.96-.021-4.772Z" fill="#fff"/>
      </g>
      <g id="Group_163047" data-name="Group 163047" opacity="0.4">
        <path id="Path_888" data-name="Path 888" d="M455.721,433.893v4.772L379.129,482.9l-.021-4.772Z" fill="#fff"/>
        <path id="Path_889" data-name="Path 889" d="M461.157,448.424l.021,4.794-82.006,47.338-.021-4.794Z" fill="#fff"/>
        <path id="Path_890" data-name="Path 890" d="M433.1,455.785v4.772l-53.95,31.159-.021-4.772Z" fill="#fff"/>
        <path id="Path_891" data-name="Path 891" d="M469.075,417.35v4.772l-89.989,51.96v-4.772Z" fill="#fff"/>
      </g>
      <g id="Group_163048" data-name="Group 163048" opacity="0.4">
        <path id="Path_892" data-name="Path 892" d="M469.7,640.235l.021,4.751-89.989,51.96-.021-4.772Z" fill="#fff"/>
        <path id="Path_893" data-name="Path 893" d="M422.037,676.573v4.772L379.75,705.763l-.021-4.772Z" fill="#fff"/>
        <path id="Path_894" data-name="Path 894" d="M447.033,644.473l.021,4.772L379.707,688.13l-.021-4.772Z" fill="#fff"/>
        <path id="Path_895" data-name="Path 895" d="M469.653,622.58l.021,4.772-89.989,51.96-.021-4.794Z" fill="#fff"/>
      </g>
      <path id="Path_896" data-name="Path 896" d="M331.877,501.5l.021,9.2-60.991,35.139-.021-9.2Z" fill="#7b7202"/>
      <path id="Path_897" data-name="Path 897" d="M323.424,523.924l.021,4.6-52.5,30.239v-4.6Z" fill="#fff"/>
      <path id="Path_898" data-name="Path 898" d="M347.564,691.361l.021,9.2-22.513,12.99-.021-9.181Z" fill="#7b7202"/>
      <path id="Path_899" data-name="Path 899" d="M303.928,617.7l.021,9.2-32.743,18.832-.043-9.181Z" fill="#7b7202"/>
      <path id="Path_900" data-name="Path 900" d="M346.9,592.9l.021,9.2-36.53,21.079L310.37,614Z" fill="#7b7202"/>
      <path id="Path_901" data-name="Path 901" d="M328.924,574.986l.021,4.58L271.1,612.886v-4.58Z" fill="#fff"/>
      <path id="Path_902" data-name="Path 902" d="M323.895,686.653v4.58l-52.474,30.239-.021-4.58Z" fill="#fff"/>
      <path id="Path_903" data-name="Path 903" d="M332.369,673.256v4.6L271.378,713v-4.6Z" fill="#fff"/>
      <path id="Path_904" data-name="Path 904" d="M347.072,656.243l.021,4.6L271.357,704.5v-4.6Z" fill="#fff"/>
      <path id="Path_905" data-name="Path 905" d="M332.305,647.233l.021,9.2-60.991,35.139-.021-9.181Z" fill="#7b7202"/>
      <path id="Path_906" data-name="Path 906" d="M337.72,624.249l.021,4.6L271.25,667.157v-4.58Z" fill="#fff"/>
      <path id="Path_907" data-name="Path 907" d="M325.35,622.9l.021,4.58-54.143,31.2v-4.6Z" fill="#fff"/>
      <path id="Path_908" data-name="Path 908" d="M334.616,580.186l.021,4.622L271.122,621.4v-4.622Z" fill="#fff"/>
      <path id="Path_909" data-name="Path 909" d="M341.807,559.042v4.6l-70.728,40.768v-4.6Z" fill="#fff"/>
      <path id="Path_910" data-name="Path 910" d="M332.006,547.144l.021,9.181-60.991,35.139-.021-9.181Z" fill="#7b7202"/>
      <path id="Path_911" data-name="Path 911" d="M305.919,542.543v4.6l-34.947,20.095v-4.58Z" fill="#fff"/>
      <path id="Path_912" data-name="Path 912" d="M338.319,722.755l.021,4.6-66.791,38.5-.021-4.6Z" fill="#fff"/>
      <path id="Path_913" data-name="Path 913" d="M327.94,720.23v4.622L271.507,757.36v-4.6Z" fill="#fff"/>
      <path id="Path_914" data-name="Path 914" d="M316.4,709.359l.021,9.181-44.941,25.894-.043-9.181Z" fill="#7b7202"/>
    </g>
    <g id="freepik--Character--inject-14">
      <path id="Path_915" data-name="Path 915" d="M625.7,842a20.137,20.137,0,0,0,15.13,5.564,45.736,45.736,0,0,0,16.029-4.045c5.115-2.14,11.535-7.982,17.12-7.875a136.4,136.4,0,0,0,16.2-1.113,84.3,84.3,0,0,0-2.311-21.936l-25.852-.685c-6.977,9.566-20.544,17.505-30.817,20.5a9.031,9.031,0,0,0-6.42,6.784.472.472,0,0,1,0,.171A10.955,10.955,0,0,0,625.7,842Z" fill="#37474f"/>
      <path id="Path_916" data-name="Path 916" d="M673.941,835.642c-5.543-.107-11.963,5.778-17.12,7.875a45.736,45.736,0,0,1-16.029,4.045A20.138,20.138,0,0,1,625.662,842a10.961,10.961,0,0,1-.9-2.632.472.472,0,0,0,0-.171,8.558,8.558,0,0,0,0,3.445,10.958,10.958,0,0,0,.9,2.632,20.138,20.138,0,0,0,15.13,5.564,45.688,45.688,0,0,0,16.029-4.023c5.115-2.14,11.535-8,17.12-7.9a120.743,120.743,0,0,0,15.943-.92c.128-1.156.193-2.311.257-3.467a136.388,136.388,0,0,1-16.2,1.113Z" fill="#263238"/>
      <path id="Path_917" data-name="Path 917" d="M753.572,856.4a39.641,39.641,0,0,1-.835,8.41,19.517,19.517,0,0,1-7.683,12.262,24.826,24.826,0,0,1-12.22,3.253,27.287,27.287,0,0,1-11.171-1.156,12.563,12.563,0,0,1-6.549-5.35.365.365,0,0,0,0,.15,11.685,11.685,0,0,0,7.533,7.833,26.942,26.942,0,0,0,11.171,1.156,24.546,24.546,0,0,0,12.22-3.253,19.5,19.5,0,0,0,7.7-12.263,42.638,42.638,0,0,0,.835-8.41,14.209,14.209,0,0,1,4.494-10.293,24.855,24.855,0,0,0,1.969-2.012,4.986,4.986,0,0,0,1.2-3.681,5.385,5.385,0,0,0-.15-1.541c-1.027,1.2-3.424,4.045-4.023,4.6a14.317,14.317,0,0,0-4.494,10.294Z" fill="#263238"/>
      <path id="Path_918" data-name="Path 918" d="M732.364,827.082a30.753,30.753,0,0,1-2.14,17.12,64.862,64.862,0,0,1-9.031,14.852,44.66,44.66,0,0,0-4.729,6.891,12.263,12.263,0,0,0-1.327,7.94,12.563,12.563,0,0,0,6.549,5.35,27.288,27.288,0,0,0,11.171,1.156,24.825,24.825,0,0,0,12.22-3.253,19.517,19.517,0,0,0,7.683-12.263,39.624,39.624,0,0,0,.835-8.41,14.317,14.317,0,0,1,4.515-10.294c.6-.556,3-3.4,4.023-4.6a31.375,31.375,0,0,0-4.152-11.9Z" fill="#37474f"/>
      <path id="Path_919" data-name="Path 919" d="M660.908,585.3s-6.549,85.858-5.971,109.741,2.975,118.28,2.975,118.28c13.375,7.811,32.7,1.99,32.7,1.99,1.562-75.351,8.667-91.551,3.852-119.136,3.4-20.48,8.111-68.182,8.111-68.182,6.656,57.374,11.492,86.95,11.492,86.95L729.989,829.8c13.076,6.827,29.575,0,29.575,0,0-65.464,1.412-93.156-5.393-136.385-.364-66.534-3.745-107-3.745-107Z" fill="#455a64"/>
      <path id="Path_920" data-name="Path 920" d="M676.723,607.471c4.558,11.192,18.875,11.192,18.875,11.192l2.547,12.712-.942,45.219c2.739-22,5.372-48.6,5.372-48.6L700.8,614.384A37.792,37.792,0,0,1,676.723,607.471Z" opacity="0.2"/>
      <path id="Path_921" data-name="Path 921" d="M617.637,489.427l-10.251,9.2L579.009,468.2a23.412,23.412,0,0,1-5.628-10.486l-1.605-6.741a18.317,18.317,0,0,0-2.012-5.029c-1.391-2.4-2.868-4.794-4.13-7.148a3.959,3.959,0,0,0-1.626-1.862,2.375,2.375,0,0,0-2.632.642,4,4,0,0,0-.92,2.718,12.089,12.089,0,0,0,.535,2.868c.385,1.455.77,2.91,1.177,4.28a5.993,5.993,0,0,1,.278,1.84,1.948,1.948,0,0,1-.835,1.605c-1.22.749-18.7-15.515-21.636-22.941-.792-2.012-7.062-.835-3.274,7.276a5.65,5.65,0,0,0-1.99,4.6c-.128,2.14-.235,4.43-.364,6.634a24.678,24.678,0,0,0,.257,6.42,19.987,19.987,0,0,0,4.772,8.389,40.211,40.211,0,0,0,14.274,10.187,23.669,23.669,0,0,1,10.08,8.56l27.136,40.918a19.453,19.453,0,0,0,28.441,4.28l14.338-11.6Z" fill="#ffa8a7"/>
      <path id="Path_922" data-name="Path 922" d="M666.793,451.27c-13.932-.792-17.591,6.42-26.387,14.681s-25.359,24.118-25.359,24.118a33.149,33.149,0,0,0,18.4,26l30.667-22.62Z" fill="#455a64"/>
      <path id="Path_923" data-name="Path 923" d="M752.737,591.806s-51.917,18.982-94.162-4.687c0,0,2.568-30.217,3.317-47.83s-5.307-51.618-6.206-60.734.3-24.889,11.043-27.285c19.924-4.28,57.374,0,57.374,0l22.363,24.717C755.947,524.31,754.342,574.943,752.737,591.806Z" fill="#7b7202"/>
      <path id="Path_924" data-name="Path 924" d="M752.737,591.806s-51.917,18.982-94.162-4.687c0,0,2.568-30.217,3.317-47.83s-5.307-51.618-6.206-60.734.3-24.889,11.043-27.285c19.924-4.28,57.374,0,57.374,0l22.363,24.717C755.947,524.31,754.342,574.943,752.737,591.806Z" fill="#fff" opacity="0.3"/>
      <g id="Group_163049" data-name="Group 163049">
        <path id="Path_925" data-name="Path 925" d="M621.125,580.571h0v-.321h0v-.214h0l-20.651-39.505v-.107h0v-.642h0v-.235h0a1.836,1.836,0,0,0-.3-.278h-.728l-24.1-13.932h-1.626a.449.449,0,0,0-.364.15l-2.932,3.274h0c-.235.193-.257.578,0,1.22l20.651,39.505a13.568,13.568,0,0,0,4.6,4.473l24.1,13.91c1.241.706,1.99.749,2.14.235v.214h0l2.932-3.274a.343.343,0,0,0,0-.15v-.128ZM567.11,524.631h0ZM594.76,540.6l.663.578h0Zm1.5,1.5.278.321h0Zm21.978,41.774a2.01,2.01,0,0,0-.235-.77,3.642,3.642,0,0,1,.257.706h0Z" fill="#455a64"/>
      </g>
      <path id="Path_926" data-name="Path 926" d="M621.125,580.571h0v-.321h0v-.214h0l-20.651-39.505-3.21,3.039L617.936,583.1a3.643,3.643,0,0,1,.257.706h0a.513.513,0,0,1-.107.428h0l2.932-3.274a.343.343,0,0,0,0-.15v-.128Z" fill="#fff" opacity="0.15"/>
      <path id="Path_927" data-name="Path 927" d="M600.131,540.189h0v-.642h0v-.235h0a1.838,1.838,0,0,0-.3-.278H599.1l-24.1-13.932h-1.626a.449.449,0,0,0-.364.15l-2.932,3.274c.128-.15.364-.171.706-.107h0a4.942,4.942,0,0,1,1.327.578l24.1,13.91a15.365,15.365,0,0,1,1.37.92h0c.449.364.9.749,1.327,1.156h0a14.493,14.493,0,0,1,1.113,1.241h0a9.014,9.014,0,0,1,.77,1.156l2.932-3.274Z" fill="#fff" opacity="0.2"/>
      <path id="Path_928" data-name="Path 928" d="M601.544,580.379c-8.154-5.115-14.231-15.087-13.011-24.632,0,0,15.237,7.982,22.064,3.724l-3.51-6.7a41.688,41.688,0,0,1,26.472,9.309,195,195,0,0,0,42.308-12.263,86.559,86.559,0,0,1,12.22-4.28,22.149,22.149,0,0,1,12.84.342,12.84,12.84,0,0,1,8.282,9.266,13.718,13.718,0,0,1-4.729,12.027,33.835,33.835,0,0,1-11.813,6.42C675.118,579.758,609.676,585.493,601.544,580.379Z" fill="#ffa8a7"/>
      <path id="Path_929" data-name="Path 929" d="M650.379,411.808a21.122,21.122,0,0,1-5.864-27.821,11.492,11.492,0,0,1-5.564-5.222,6.142,6.142,0,0,1,7.982-8.2,8.56,8.56,0,0,1,3.424-10.058,8.132,8.132,0,0,1,10.122,1.883,5.478,5.478,0,0,1,3.745-5.414,11.15,11.15,0,0,1,7.019.428c2.14.77,4.28,1.9,6.656,2.611a51.723,51.723,0,0,0,11.941,1.541,24.054,24.054,0,0,1,11.535,3.06c3.381,2.14,6.42,7.3,4.537,11.706a6.656,6.656,0,0,1,4.794-2.547,6.42,6.42,0,0,1,4.922,2.14c-2.5,1.562-4.943,3.231-7.447,4.794a6.784,6.784,0,0,1,7.661,3.06,15.237,15.237,0,0,1,1.348,8.089,107.667,107.667,0,0,1-5.564,30.988c-1.712,5.179-4.28,10.7-9.1,13.033Z" fill="#37474f"/>
      <path id="Path_930" data-name="Path 930" d="M677.044,436.7l1.091,12.348a4.794,4.794,0,0,1-.685,2.739,7,7,0,0,0,1.07,8.068,9.181,9.181,0,0,0,5.521,1.862,26.622,26.622,0,0,0,20.416-7.875,5.713,5.713,0,0,0,1.626-4.28l-.813-31.33Z" fill="#ffa8a7"/>
      <path id="Path_931" data-name="Path 931" d="M702.789,419.9l-25.68,16.8.963,10.957c5.992-1.412,12.027-3.124,16.756-6.977a23.005,23.005,0,0,0,7.961-20.78Z" opacity="0.3"/>
      <path id="Path_932" data-name="Path 932" d="M648.967,386.363a110.405,110.405,0,0,0,2.761,42.8,33.493,33.493,0,0,0,3.4,8.8,14.274,14.274,0,0,0,6.955,6.185,22.021,22.021,0,0,0,11.492,0c7-1.22,14.167-2.525,20.245-6.206s10.871-10.315,10.294-17.4a12.113,12.113,0,0,0,11.6.642,12.241,12.241,0,0,0,6.42-9.823c.278-3.98-2.012-8.389-5.907-9.159a8.56,8.56,0,0,0-6.763,1.969,25.319,25.319,0,0,0-4.729,5.5,8.3,8.3,0,0,1-2.354,2.525,2.825,2.825,0,0,1-3.231,0,4.28,4.28,0,0,1-.92-3.531l.407-8.967a3.574,3.574,0,0,0-1.99-3.338,8.817,8.817,0,0,1-4.023-4.623,18.513,18.513,0,0,1-1.134-5.393,2.14,2.14,0,0,0-3.018-1.883,66.106,66.106,0,0,1-39.505,1.9Z" fill="#ffa8a7"/>
      <path id="Path_933" data-name="Path 933" d="M668.677,408.105l-8.047,13.568,9.609,1.819Z" fill="#f28f8f"/>
      <path id="Path_934" data-name="Path 934" d="M679.505,428.158l-7.3,3.552a4.751,4.751,0,0,0,5.543,1.584A4.28,4.28,0,0,0,679.505,428.158Z" fill="#f28f8f"/>
      <path id="Path_935" data-name="Path 935" d="M679.505,428.158l-7.3,3.552a4.751,4.751,0,0,0,5.543,1.584A4.28,4.28,0,0,0,679.505,428.158Z" opacity="0.3"/>
      <path id="Path_936" data-name="Path 936" d="M675.2,433.529a4.28,4.28,0,0,0,2.547-.235,3.916,3.916,0,0,0,1.947-3.852,4.559,4.559,0,0,0-2.889,1.006,4.644,4.644,0,0,0-1.6,3.082Z" fill="#f28f8f"/>
      <path id="Path_937" data-name="Path 937" d="M682.672,408.747a2.761,2.761,0,0,1-2.461,3.039,2.8,2.8,0,0,1-3.039-2.482,2.764,2.764,0,0,1,5.5-.556Z" fill="#263238"/>
      <path id="Path_938" data-name="Path 938" d="M659.453,410.074a2.739,2.739,0,1,1-1-1.86A2.761,2.761,0,0,1,659.453,410.074Z" fill="#263238"/>
      <path id="Path_939" data-name="Path 939" d="M655.687,399.417l-5.671,4.815a3.938,3.938,0,0,1,.749-4.43A4.687,4.687,0,0,1,655.687,399.417Z" fill="#263238"/>
      <path id="Path_940" data-name="Path 940" d="M679.184,396.72l6.42,3.6a3.959,3.959,0,0,0-1.626-4.28,4.622,4.622,0,0,0-4.794.685Z" fill="#263238"/>
      <path id="Path_941" data-name="Path 941" d="M697.332,517.547l-12.434,32.1,13.718,21.4c19.988-9.074,15.879-6.42,29.7-39.89Z" fill="#ffa8a7"/>
      <path id="Path_942" data-name="Path 942" d="M724.168,451.27c-14.98,17.72-20.609,48.172-28.356,67.754,8.667,16.393,32.807,14.809,32.807,14.809C750.7,487.929,760.056,453.132,724.168,451.27Z" fill="#455a64"/>
    </g>
  </g>
</svg>
