<svg xmlns="http://www.w3.org/2000/svg" width="161.613" height="159.659" viewBox="0 0 161.613 159.659">
  <g id="Group_253" data-name="Group 253" transform="translate(31.306 31.918)">
    <path id="Path_590" data-name="Path 590" d="M81.306,160.159a81.046,81.046,0,0,1-57.139-23.381A79.516,79.516,0,0,1,6.85,111.4a79.2,79.2,0,0,1,0-62.146A79.517,79.517,0,0,1,24.168,23.882,81.665,81.665,0,0,1,112.759,6.773a80.6,80.6,0,0,1,25.686,17.109,79.52,79.52,0,0,1,17.318,25.375,79.206,79.206,0,0,1,0,62.146,79.518,79.518,0,0,1-17.318,25.375,81.047,81.047,0,0,1-57.139,23.381Z" transform="translate(-31.806 -32.418)" fill="#fff"/>
    <g id="Group_252" data-name="Group 252" transform="translate(1.643 0) rotate(1)">
      <g id="Group_250" data-name="Group 250" transform="translate(18.082 0)">
        <path id="Path_592" data-name="Path 592" d="M.8,30.5l.056.074a.264.264,0,0,0,.158.2A2.744,2.744,0,0,0,2.1,31.853h0A1.539,1.539,0,0,0,2.244,32a16.673,16.673,0,0,0,5.489,2.643c.413.124.429.26.257.594a24.028,24.028,0,0,0-1.505,3.442,10.256,10.256,0,0,0-.7,4.74,3.031,3.031,0,0,0,1.452,2.32,4.406,4.406,0,0,0,3.611.208,26.059,26.059,0,0,0,8.887-5.058h0l.117-.09h0l.115-.093-.05-.05h0c.093-.111.185-.226.28-.33-.095.106-.187.226-.28.33l.05.05,1.3-1.074c.244-.077.361-.307.551-.451.077-.059.117-.2.237-.16.16.047.1.2.1.307q0,5.647.016,11.3c0,.372-.151.431-.472.37a3.429,3.429,0,0,1-1.788-.962,11.788,11.788,0,0,1-2.641-3.916c-.065-.158-.1-.357-.293-.451a.451.451,0,0,0,.014.42,15.8,15.8,0,0,0,1.959,4.223,4.011,4.011,0,0,0,3.009,2.1c.237.018.2.19.2.339,0,.652.038,1.309,0,1.959-.036.494.135.6.6.6q15.013-.018,30.02,0c.8,0,.677.052.677-.7V.688c0-.677,0-.677-.677-.677H42.134q-9.706,0-19.4-.011c-.452,0-.643.1-.6.6.047.65,0,1.307.014,1.959,0,.187,0,.336-.248.368-1.424.194-1.964,1.169-2.151,2.451a2.65,2.65,0,0,1-.777,1.7,1.26,1.26,0,0,0-.3.7c-.079.334-.16.677-.257,1a11.667,11.667,0,0,0-.6,2.6,3.646,3.646,0,0,0,.113,1.465c.226-.138.2-.348.242-.519a10.217,10.217,0,0,1,.822-3.178A20.921,20.921,0,0,0,20.775,4.4a1.355,1.355,0,0,1,.648-.819c.609-.343.72-.28.72.411V17.148c0,.226-.09.269-.278.113-.352-.293-.731-.558-1.074-.86a32.175,32.175,0,0,0-7.372-4.948,10,10,0,0,0-4.487-1.217,3.176,3.176,0,0,0-2.709,1.339,3.921,3.921,0,0,0-.677,2.183,14.67,14.67,0,0,0,1.505,6.079c.038.09.065.253.3.163a14.533,14.533,0,0,1-.625-2.031A13.85,13.85,0,0,1,6.591,14.5a2.546,2.546,0,0,1,3.334-2.56,12.6,12.6,0,0,1,3.627,1.3,38.376,38.376,0,0,1,7.074,4.846c.5.424,1.009.84,1.6,1.327V18.179c0-.111-.056-.262.093-.316s.214.086.3.16c.794.693,1.49,1.485,2.216,2.246l.041-.045h0l-.041.045c.271.348.544.7.81,1.045.176.226.282.4-.172.42-.865.036-1.706-.156-2.564-.181-.691-.02-.72-.036-.677-.7.034-.5-.126-.63-.625-.627a61.308,61.308,0,0,0-9.074.767,24.576,24.576,0,0,0-4.6,1.1l-.1.02a1.058,1.058,0,0,0-.544.176.054.054,0,0,0-.074.014,2.81,2.81,0,0,0-1.156.4.059.059,0,0,0-.081.027A12.232,12.232,0,0,0,1.636,25.19h0a3.3,3.3,0,0,0-1.02,1.239l-.03.014v.032A3.286,3.286,0,0,0,.8,30.5Zm.275-2.483a.279.279,0,0,0,0,.045.279.279,0,0,1,0-.045ZM24.515,39.356a.572.572,0,0,0-.023-.07.572.572,0,0,1,.023.07Zm-1.828-.948a1.091,1.091,0,0,0-.19-.212.462.462,0,0,0-.153-.083.463.463,0,0,1,.154.083,1.1,1.1,0,0,1,.189.212Zm4.307,9.769a.635.635,0,0,0-.065-.032.626.626,0,0,1,.065.032ZM25.526,16.288a3.174,3.174,0,0,1-.088,1.474c-.1.476-.542.307-.851.381-.648.063-.77-.029-.677-.652a11.973,11.973,0,0,0-.169-2.86c-.054-.754.059-.849.84-.781.95.081.955.084.853,1.063a3.735,3.735,0,0,0,.093,1.384Zm.677,11.4a3.279,3.279,0,0,1-.077,1.379.42.42,0,0,1-.415.384c-.273.016-.546.043-.833.065-.33.038-.609-.043-.535-.451a10.943,10.943,0,0,0-.14-3.022c-.077-.8.023-.9.815-.846.154,0,.309.016.463.02.677.016.747.084.677.785a4.689,4.689,0,0,0,.041,1.7Zm.275,6.11.111.054Zm-4.271,2.284c.05-1.16-.165-.971.975-.993,1.444-.029,2.885-.12,4.322-.262.185-.018.463.063.485-.246a.591.591,0,0,0-.368-.657,3.611,3.611,0,0,0-1.2-.156h0a.162.162,0,0,0-.212,0l-.406-.122a.664.664,0,0,0-.621-.081l-.463-.3A16.252,16.252,0,0,1,26.878,33a1.05,1.05,0,0,0,1.061-1.151c-.065-1.068.065-2.129.083-3.192a32.563,32.563,0,0,0,.09-4.013c-.1-.966-.314-1.113-1.278-1a8.7,8.7,0,0,1-2.86-.26,1.149,1.149,0,0,1,.585-.165c.749-.1,1.5-.185,2.257-.291A.8.8,0,0,0,27.6,21.9a11.862,11.862,0,0,1-.12-1.643,4.045,4.045,0,0,0-.264-1.411,12.076,12.076,0,0,1-.7-3.729c-.05-.72-.117-1.438-.174-2.158-.025-.33-.176-.465-.508-.372a2.044,2.044,0,0,1-.354.063,4.288,4.288,0,0,1-2.611-.42c.275-.032.4-.05.53-.061.677-.065,1.37-.108,2.049-.2.494-.065.576-.273.418-.749a13.857,13.857,0,0,1-.643-2.435A22.216,22.216,0,0,0,23.772,4.4a1.355,1.355,0,0,0-.438-.677c-.111-.284-.391-.3-.623-.384A.657.657,0,0,0,22.3,3.3c-.2-.386.081-.4.325-.39a3.286,3.286,0,0,1,1.523.625C25,4.684,25.226,6.13,25.987,7.32a.539.539,0,0,1,.054.251,13.325,13.325,0,0,0,.826,3.5c.088.262.183.424.474.438.239.011.5.014.567.33a.58.58,0,0,1-.282.664c-.307.174-.307.415-.251.7.108.555.194,1.117.316,1.67a31.081,31.081,0,0,0,.515,3.2,7.19,7.19,0,0,1,.307,1.56c.079.785.239,1.562.37,2.341.032.183.052.409.325.37s.411.038.474.28a.451.451,0,0,1-.226.571c-.226.111-.208.248-.144.451a9.2,9.2,0,0,1,.357,3.465c-.142,1.6-.127,3.194-.145,4.792,0,.19-.029.375.285.352.257-.018.316.226.343.436s.1.49-.131.551c-.479.131-.492.517-.6.869s-.032.533.4.472c1.327-.19,2.648-.415,3.959-.7.3-.065.388-.183.2-.451-.1-.14-.181-.291-.271-.438-.975-1.6-1.993-3.16-3.115-4.666-.144-.192-.273-.348-.043-.607.452-.5.838-1.045,1.241-1.58A38.636,38.636,0,0,0,36.67,18.1a10.689,10.689,0,0,0,1.117-4.467,2.4,2.4,0,0,0-1.628-2.338,6.347,6.347,0,0,0-3.352-.244c-.822.12-1.612.375-2.433.494a18.155,18.155,0,0,1,2.51-1.047,7.815,7.815,0,0,1,1.458-.325,4.819,4.819,0,0,1,2.641.2,3.684,3.684,0,0,1,1.946,3.968,17.95,17.95,0,0,1-2.205,6.39,44.216,44.216,0,0,1-4.869,7.257.453.453,0,0,0-.016.7,15.6,15.6,0,0,1,1,1.433c.7,1,1.3,2.059,1.932,3.1a.451.451,0,0,0,.621.226c.5-.174,1.029-.28,1.53-.451a15.164,15.164,0,0,0,4.756-2.433,2.654,2.654,0,0,0,.851-3.514A7.023,7.023,0,0,0,40.4,24.587a25.8,25.8,0,0,0-3.111-2.031.838.838,0,0,1,.6.086c.614.257,1.2.607,1.806.844a9.146,9.146,0,0,1,3.174,2.129A3.632,3.632,0,0,1,43.916,29.3a5.036,5.036,0,0,1-2.031,2.659A17.036,17.036,0,0,1,36.1,34.684c-.395.113-.524.226-.3.612a21.21,21.21,0,0,1,1.858,4.571,7.781,7.781,0,0,1,.323,4.178,2.84,2.84,0,0,1-2.366,2.289,6.094,6.094,0,0,1-3.135-.39A23.891,23.891,0,0,1,29.117,44.4c-.05-.1-.138-.1-.226-.079l-.131-.115a4.728,4.728,0,0,1-.6-.4c-.311-.282-.413-.065-.483.185-.153.551-.289,1.106-.431,1.659l-.032.2L26.185,48.52h0a6.819,6.819,0,0,0-.632,1.23h0a15.472,15.472,0,0,1-1.738,2.072.108.108,0,0,0-.113.1c-.348.133-.691.282-1.043.4-.262.084-.452.054-.452-.316-.018-.526-.014-.955.65-1.1a1.441,1.441,0,0,0,.817-.666.361.361,0,0,0-.469.151.361.361,0,0,1,.469-.151h0l.1-.115h0a2,2,0,0,0,.571-.767h0a2.588,2.588,0,0,0,.533-1.027.741.741,0,0,0-.169.074.736.736,0,0,1,.169-.074l.1-.169a.92.92,0,0,1,0-.135.929.929,0,0,0,0,.135,1.759,1.759,0,0,0,.406-.865,26.578,26.578,0,0,0,1.354-4.255c.045-.169-.045-.253-.163-.339L24.154,40.9a.273.273,0,0,0-.226-.2l-.034-.02-.138-.111h0a.117.117,0,0,0-.12-.1,2.6,2.6,0,0,0-.718-.618.262.262,0,0,0-.226-.192.271.271,0,0,0-.194-.169v-.029c.083-.336-.183-.734.185-1.018a.307.307,0,0,0,.226.19h0l.165.144h0a5.485,5.485,0,0,0,1.266,1.1.309.309,0,0,0,.226.187l.011.027h.029a2.292,2.292,0,0,0,.772.612.262.262,0,0,0,.226.192h0a2.461,2.461,0,0,0,.824.614c.12.1.237.2.359.289.16.124.226.074.269-.117a36.119,36.119,0,0,0,.621-4.174c.323-1.2.323-1.219-.9-1.117q-2,.167-4.016.2c-.384,0-.573-.059-.555-.5Zm.677-28.555c-.122-.542.282-.6.614-.693.411-.117.372.226.427.467a11.771,11.771,0,0,0,.415,1.7.591.591,0,0,1-.088.716,1.328,1.328,0,0,1-.844.153c-.126,0-.165-.153-.226-.264a1.62,1.62,0,0,1-.072-.749,4.657,4.657,0,0,0-.226-1.318Zm1.591,41.148a.632.632,0,0,1,.068-.129.542.542,0,0,1,.1-.111.543.543,0,0,0-.1.111.633.633,0,0,0-.068.135ZM21.888,37.785h-.032v.032a.377.377,0,0,0-.226.244h0l-.126.113-.068.065-.147.14h0a.052.052,0,0,0-.063.052.259.259,0,0,0-.194.163,1.074,1.074,0,0,0-.519.413h0l-.1.1h0c-1.284,1-2.553,2.031-3.912,2.934a21.456,21.456,0,0,1-5.643,2.844,8.2,8.2,0,0,1-1.156.255c-2.045.3-3.189-.776-3.074-2.846A13.754,13.754,0,0,1,7.7,38.121,20.64,20.64,0,0,1,8.99,35.372a.354.354,0,0,1,.483-.212,53.346,53.346,0,0,0,11.846,1.467c.273,0,.657-.156.8.165a.9.9,0,0,1-.225,1Zm.266-15.7v2.991q0,4.693.011,9.383c0,.451-.111.589-.569.58a55.164,55.164,0,0,1-11.1-1.183c-.571-.131-.58-.16-.28-.641.325-.524.659-1.045.955-1.58.106-.2.212-.293.359-.311A3.343,3.343,0,0,0,15.507,26.1a.329.329,0,0,1,.117-.35c.451-.521.864-1.054,1.3-1.58h0q1.065-1.113,2.128-2.228a.628.628,0,0,1,.472-.264c.738,0,1.478,0,2.217-.041.361-.025.422.147.418.454ZM16.3,24.368Zm.2,0a.332.332,0,0,1-.108.016.331.331,0,0,0,.108-.009ZM6.06,24.143c.973-.433,2.016-.655,3.013-1.009l3.639-.813.28-.027c1.411-.147,2.813-.386,4.23-.451.176,0,.37-.122.524.065l-.029.018v.032h0a12.985,12.985,0,0,0-1.641,1.806.3.3,0,0,0-.2.226h0c-.321.354-.661.693-.957,1.068-.144.181-.271.291-.451.289a3.343,3.343,0,0,0-3.86,5.345.471.471,0,0,1-.09.253c-.483.749-.957,1.5-1.406,2.273-.156.264-.318.226-.553.163a19.043,19.043,0,0,1-5.537-2.415h0a4.515,4.515,0,0,1-1.785-2.458v-.19l-.045-.045a.527.527,0,0,1-.068-.088.527.527,0,0,0,.068.088l.045.045.2-.826A9.14,9.14,0,0,1,6.06,24.143Zm11.676-2.1a.743.743,0,0,0,0-.088.8.8,0,0,1,0,.086Z" fill="#7b7202"/>
        <path id="Path_593" data-name="Path 593" d="M.242,7.767A21.053,21.053,0,0,0,3.669,9.65a7.465,7.465,0,0,0,3.185.763A2.1,2.1,0,0,0,9.181,8.537c.061-.3.072-.614.1-.9A19.114,19.114,0,0,0,6.867.163C6.759-.049,6.6-.011,6.429.039A34.474,34.474,0,0,1,1.421.978c-.37.05-.485.174-.521.526A53.379,53.379,0,0,1,.023,7.257a.411.411,0,0,0,.219.51Z" transform="translate(28.074 35.096)" fill="#7b7202"/>
        <g id="Group_249" data-name="Group 249" transform="translate(22.218 2.942)">
          <path id="Path_594" data-name="Path 594" d="M.279,36.506C.362,36.17.1,35.77.464,35.488h0a.309.309,0,0,0,.226.194h0l.167.149L.875,35.8l-.02.034a5.479,5.479,0,0,0,1.268,1.1h0a.307.307,0,0,0,.226.187l.011.027h.029a2.286,2.286,0,0,0,.772.612h0a.262.262,0,0,0,.226.194h0a2.46,2.46,0,0,0,.824.614c.12.1.237.194.359.289.16.124.226.074.269-.117a36.113,36.113,0,0,0,.621-4.171c.323-1.2.323-1.219-.9-1.117q-2,.167-4.015.205c-.37,0-.558-.054-.539-.5.05-1.16-.165-.971.975-.993,1.445-.029,2.882-.12,4.32-.262.185-.018.463.063.485-.246A.591.591,0,0,0,5.414,31a3.61,3.61,0,0,0-1.2-.156.163.163,0,0,0-.212,0l-.406-.122h0a.664.664,0,0,0-.623-.084l-.463-.3a16.257,16.257,0,0,1,2.16-.253,1.047,1.047,0,0,0,1.061-1.151c-.065-1.068.065-2.126.081-3.189a32.659,32.659,0,0,0,.09-4.011c-.1-.966-.314-1.113-1.278-1a8.688,8.688,0,0,1-2.86-.26,1.149,1.149,0,0,1,.585-.165c.749-.1,1.5-.185,2.257-.291a.8.8,0,0,0,.779-1.034,11.8,11.8,0,0,1-.12-1.643A4.061,4.061,0,0,0,5,15.93a12.052,12.052,0,0,1-.7-3.729c-.047-.72-.117-1.438-.174-2.158-.025-.33-.176-.465-.508-.372a2.044,2.044,0,0,1-.354.063,4.288,4.288,0,0,1-2.609-.42c.275-.032.4-.05.53-.061.677-.065,1.37-.108,2.049-.2.494-.065.576-.273.418-.749A13.887,13.887,0,0,1,3,5.87,22.183,22.183,0,0,0,1.561,1.491,1.355,1.355,0,0,0,1.123.814C1.012.529.732.518.5.43A.657.657,0,0,0,.091.392C-.11.006.173-.006.416,0A3.286,3.286,0,0,1,1.94.626c.849,1.144,1.075,2.591,1.835,3.781a.533.533,0,0,1,.054.251,13.317,13.317,0,0,0,.826,3.5c.088.262.183.424.474.438.239,0,.5.014.564.33a.58.58,0,0,1-.282.664c-.307.174-.307.415-.251.7.108.555.194,1.117.316,1.67a31.2,31.2,0,0,0,.515,3.2,7.183,7.183,0,0,1,.307,1.56c.077.785.239,1.562.37,2.341.032.183.05.406.323.37s.411.038.474.28a.451.451,0,0,1-.226.571c-.226.111-.208.248-.145.451A9.2,9.2,0,0,1,7.452,24.2c-.142,1.6-.126,3.192-.144,4.79,0,.19-.029.375.284.352.257-.018.316.226.343.436s.1.488-.133.551c-.479.131-.49.515-.6.869s-.031.533.4.472c1.327-.19,2.648-.415,3.957-.7.3-.065.388-.183.2-.451-.1-.14-.181-.291-.271-.438-.975-1.6-1.991-3.16-3.113-4.663-.144-.192-.273-.348-.043-.607.451-.5.837-1.043,1.239-1.58a38.619,38.619,0,0,0,4.869-8.038,10.69,10.69,0,0,0,1.115-4.465A2.4,2.4,0,0,0,13.937,8.38a6.345,6.345,0,0,0-3.35-.244c-.819.12-1.612.375-2.433.494a18.172,18.172,0,0,1,2.508-1.047,7.816,7.816,0,0,1,1.456-.325,4.82,4.82,0,0,1,2.641.2A3.683,3.683,0,0,1,16.7,11.427,17.935,17.935,0,0,1,14.5,17.815a44.2,44.2,0,0,1-4.866,7.255.452.452,0,0,0-.016.7,15.462,15.462,0,0,1,1,1.431c.7,1,1.3,2.059,1.932,3.1a.452.452,0,0,0,.621.226c.5-.174,1.029-.278,1.53-.451a15.152,15.152,0,0,0,4.783-2.454,2.652,2.652,0,0,0,.851-3.512A7.028,7.028,0,0,0,18.2,21.647a25.791,25.791,0,0,0-3.108-2.031.838.838,0,0,1,.6.086c.614.257,1.2.607,1.806.844a9.144,9.144,0,0,1,3.174,2.128,3.63,3.63,0,0,1,1.052,3.679,5.033,5.033,0,0,1-2.031,2.659A17.033,17.033,0,0,1,13.9,31.741c-.395.113-.524.226-.3.612a21.225,21.225,0,0,1,1.858,4.571,7.777,7.777,0,0,1,.307,4.167,2.837,2.837,0,0,1-2.363,2.287,6.1,6.1,0,0,1-3.133-.391,23.829,23.829,0,0,1-3.359-1.546c-.05-.1-.138-.095-.226-.079l-.129-.115a4.715,4.715,0,0,1-.6-.4c-.311-.282-.411-.065-.481.185-.153.551-.289,1.106-.431,1.659l-.032.2L3.989,45.564h0a6.8,6.8,0,0,0-.632,1.23l.016.023-.011-.025a15.433,15.433,0,0,1-1.743,2.077h0a.11.11,0,0,0-.117.1h0c-.348.133-.691.282-1.043.4-.262.084-.451.054-.451-.316-.018-.526-.014-.955.65-1.1a1.438,1.438,0,0,0,.815-.666h0l.1-.115h0a2,2,0,0,0,.571-.767h0a2.584,2.584,0,0,0,.533-1.027l.1-.169a1.759,1.759,0,0,0,.406-.864,26.516,26.516,0,0,0,1.354-4.253c.045-.169-.045-.253-.163-.339L1.953,37.949a.273.273,0,0,0-.226-.2l-.034-.02-.149-.122H1.56a.117.117,0,0,0-.126-.1h0a2.611,2.611,0,0,0-.722-.623l-.025.02.027-.018a.262.262,0,0,0-.226-.192h0a.27.27,0,0,0-.194-.172Zm14.848,3.3a19.11,19.11,0,0,0-2.415-7.467c-.108-.212-.267-.174-.438-.124a34.536,34.536,0,0,1-5.007.939c-.368.05-.485.174-.521.526a53.253,53.253,0,0,1-.876,5.751.411.411,0,0,0,.226.5A21.008,21.008,0,0,0,9.52,41.815a7.461,7.461,0,0,0,3.183.763A2.1,2.1,0,0,0,15.027,40.7C15.084,40.4,15.095,40.091,15.126,39.811Z" fill="#fdfefd"/>
          <path id="Path_595" data-name="Path 595" d="M.7,4.331C.367,4.369.089,4.288.161,3.88A10.927,10.927,0,0,0,.021.859c-.077-.8.023-.9.815-.846q.226.016.463.02c.677.016.747.084.677.785A4.682,4.682,0,0,0,2.03,2.5a3.275,3.275,0,0,1-.077,1.379.422.422,0,0,1-.415.384C1.256,4.279.981,4.308.7,4.331Z" transform="translate(1.95 22.262)" fill="#fdfefd"/>
          <path id="Path_596" data-name="Path 596" d="M.858,4.309C.21,4.372.088,4.28.181,3.657A11.967,11.967,0,0,0,.012.8C-.042.045.07-.05.851.018,1.8.1,1.806.1,1.7,1.081a3.734,3.734,0,0,0,.081,1.372A3.173,3.173,0,0,1,1.7,3.927C1.61,4.4,1.165,4.234.858,4.309Z" transform="translate(1.506 10.917)" fill="#fdfefd"/>
          <path id="Path_597" data-name="Path 597" d="M.261,2.039A4.66,4.66,0,0,0,.022.717C-.1.175.3.121.636.024c.411-.117.372.226.427.467a11.717,11.717,0,0,0,.415,1.7A.589.589,0,0,1,1.39,2.9a1.327,1.327,0,0,1-.842.153c-.126,0-.165-.153-.226-.264a1.612,1.612,0,0,1-.061-.752Z" transform="translate(0.638 3.891)" fill="#fdfefd"/>
        </g>
      </g>
      <g id="Group_251" data-name="Group 251" transform="translate(0 67.905)">
        <path id="Path_598" data-name="Path 598" d="M19.96,9.552a3.054,3.054,0,0,0,3.207-3.16c-.036-1.916-.047-3.837,0-5.751.023-.727-.377-.594-.808-.634-.508-.05-.6.172-.6.616.014,1.822,0,3.645,0,5.467,0,1.4-.524,1.912-1.93,1.9-.677,0-.781.124-.537-.7a2.934,2.934,0,0,0-2.921-3.815c-1.594.054-3.189,0-4.783,0-1.056,0-.9-.178-.952.921-.02.519.16.627.648.618,1.747-.029,3.494-.02,5.239,0a1.379,1.379,0,0,1,1.449,1.537A1.438,1.438,0,0,1,16.482,8H14.717c-2.183,0-4.365-.014-6.546.016-.515,0-.677-.16-.618-.655a7.454,7.454,0,0,0,0-1.129,2.871,2.871,0,0,0-3-2.9H2.959A2.853,2.853,0,0,0,.07,5.794,2.948,2.948,0,0,0,2.081,9.248a7.06,7.06,0,0,0,3.6-.038c.122-.034.248-.165.366-.059s.052.282,0,.424a1.354,1.354,0,0,1-1.329.876H2.151c-1.205,0-.982-.133-1.029,1.025-.018.451.153.539.56.528.948-.029,1.9-.014,2.846-.011a2.63,2.63,0,0,0,2.833-1.98.614.614,0,0,1,.7-.481c2.031.016,4.063,0,6.094,0h2.9C18.026,9.539,19,9.476,19.96,9.552ZM4.842,7.844c-.357.027-.718,0-1.079,0h-.9A1.485,1.485,0,0,1,1.431,6.433a1.456,1.456,0,0,1,1.316-1.58,19.524,19.524,0,0,1,2.1,0A1.449,1.449,0,0,1,6.169,6.3,1.519,1.519,0,0,1,4.842,7.844Z" transform="translate(18.551 0.092)" fill="#7b7202"/>
        <path id="Path_599" data-name="Path 599" d="M23.25,1.083H21.429a2.16,2.16,0,0,0-.779.135,3.025,3.025,0,0,0-1.77,3.871c.124.411.066.535-.375.533-1.916-.018-3.837,0-5.751-.018a1.4,1.4,0,0,1-1.5-1.494,1.354,1.354,0,0,1,1.488-1.481H15.7c1.022,0,1.013,0,1.009-1.038,0-.339-.052-.515-.465-.5-1.214.027-2.429,0-3.645,0a2.483,2.483,0,0,0-1.354.375A3.05,3.05,0,0,0,9.972,5.036c.147.51,0,.576-.451.567q-1.736-.029-3.474,0c-.386,0-.485-.12-.476-.485.022-.758.034-1.519,0-2.277A2.758,2.758,0,0,0,1.769.205,2.822,2.822,0,0,0,.024,2.927C-.019,4.056.008,5.167.008,6.286c0,.885,0,.867.9.862.384,0,.494-.147.479-.508-.023-.492,0-.986,0-1.481,0-.74-.018-1.483.029-2.221A1.354,1.354,0,0,1,3.575,1.788,1.469,1.469,0,0,1,4.13,3.094c0,1.158.023,2.316,0,3.474,0,.451.1.585.564.58,3.131-.023,6.264-.011,9.4-.011h0c3.056,0,6.112-.038,9.169.016a3.038,3.038,0,0,0,3.007-3.058,2.919,2.919,0,0,0-3.016-3.011Zm.144,4.537q-.9.025-1.819,0A1.445,1.445,0,0,1,20.14,4.11a1.39,1.39,0,0,1,1.429-1.5c.321-.014.643,0,.966,0h0c.3,0,.607-.014.9,0a1.442,1.442,0,0,1,1.4,1.544,1.505,1.505,0,0,1-1.445,1.463Z" transform="translate(48.782 2.546)" fill="#7b7202"/>
        <path id="Path_600" data-name="Path 600" d="M16.736,2.983A2.846,2.846,0,0,0,13.946,0c-.551,0-1.1.036-1.65,0a2.991,2.991,0,0,0-2.934,4.04c.142.4.065.5-.336.5H2.931a1.472,1.472,0,0,1-1.494-1.53A1.411,1.411,0,0,1,2.981,1.561h2.9C7.206,1.56,6.9,1.628,6.96.518,6.985.091,6.8.012,6.432.019c-1.063.016-2.126,0-3.187,0A3.811,3.811,0,0,0,2.06.12,3.07,3.07,0,0,0,.029,3.436,2.934,2.934,0,0,0,2.9,6.07c1.822.014,3.643,0,5.465,0h0c1.878,0,3.758.025,5.643,0a2.867,2.867,0,0,0,2.724-3.088Zm-2.9,1.557c-.569,0-1.129.014-1.706,0a1.5,1.5,0,0,1-1.512-1.512,1.424,1.424,0,0,1,1.5-1.506h1.7a1.408,1.408,0,0,1,1.5,1.494A1.46,1.46,0,0,1,13.833,4.54Z" transform="translate(0 3.626)" fill="#7b7202"/>
        <path id="Path_601" data-name="Path 601" d="M10.035,9.516A2.822,2.822,0,0,0,12.9,6.555a2.77,2.77,0,0,0-2.824-3.086c-1.442-.016-2.885,0-4.327,0-.955,0-.926,0-.953.977-.014.483.178.567.6.56,1.5-.02,3-.011,4.5-.011A1.418,1.418,0,0,1,11.512,6.48,1.451,1.451,0,0,1,9.9,7.981H3A1.51,1.51,0,0,1,1.375,6.4c-.018-.607,0-1.214,0-1.822V.878C1.375-.052,1.587.025.5,0,.133,0,0,.1,0,.479.018,2.546,0,4.616.025,6.686a2.864,2.864,0,0,0,2.9,2.828h3.53C7.634,9.514,8.839,9.53,10.035,9.516Z" transform="translate(76.47 0.113)" fill="#7b7202"/>
        <path id="Path_602" data-name="Path 602" d="M5.495.448C5.495.13,5.4,0,5.068.026a2.207,2.207,0,0,1-.51,0c-.357-.045-.47.113-.451.451.018.51,0,1.023,0,1.535a1.422,1.422,0,0,1-1.325,1.6A1.444,1.444,0,0,1,1.428,1.988q0-.8,0-1.591c0-.262-.081-.357-.356-.372C.03-.039.03-.051.033.974v.853a2.745,2.745,0,0,0,3.779,2.95c.117-.032.266-.149.293.088.106.934-.158,1.948-1.377,1.98a9.193,9.193,0,0,1-1.25-.016C1.01,6.777.859,6.96.915,7.4a1.642,1.642,0,0,1,0,.4c-.038.352.117.467.452.451.474-.023.948,0,1.422,0A2.686,2.686,0,0,0,5.477,5.52c.014-.815,0-1.63,0-2.447h0C5.49,2.186,5.479,1.319,5.495.448Z" transform="translate(83.886 17.986)" fill="#7b7202"/>
        <path id="Path_603" data-name="Path 603" d="M5.047.016a1.47,1.47,0,0,1-.4,0c-.406-.056-.562.07-.553.521.029,1.4,0,2.806,0,4.207A1.381,1.381,0,0,1,2.754,6.309,1.4,1.4,0,0,1,1.4,4.744c0-1.384-.027-2.77.011-4.151.014-.5-.147-.645-.6-.578a1.569,1.569,0,0,1-.4,0C.072-.023,0,.146,0,.451.014,1.986-.016,3.523.018,5.058a2.731,2.731,0,0,0,5.46-.045c.016-.738,0-1.478,0-2.219h0c0-.776-.016-1.555,0-2.332C5.5.115,5.4-.032,5.047.016Z" transform="translate(29.552 16.385)" fill="#7b7202"/>
        <path id="Path_604" data-name="Path 604" d="M4.654,2.76a6.777,6.777,0,0,0-.874-.248,7.408,7.408,0,0,1-1.727-.564c-.28-.147-.42-.366-.068-.6s1.4-.226,1.618.12c.388.607.932.436,1.456.467.452.027.452-.156.307-.51A2.354,2.354,0,0,0,2.812.033,2.993,2.993,0,0,0,.822.541,1.451,1.451,0,0,0,.887,2.978,6.116,6.116,0,0,0,2.5,3.656c.386.1.77.2,1.144.334a.4.4,0,0,1,.307.37.47.47,0,0,1-.323.427A1.512,1.512,0,0,1,1.679,4.2c-.05-.081-.086-.16-.187-.194A5,5,0,0,0,0,4.082,2.257,2.257,0,0,0,.566,5.353a.988.988,0,0,0,.122.117,4.063,4.063,0,0,0,4.433-.05A1.551,1.551,0,0,0,4.654,2.76Z" transform="translate(67.965 17.973)" fill="#7b7202"/>
        <path id="Path_605" data-name="Path 605" d="M1.752.21a2.776,2.776,0,0,0-1.727,2.7A2.81,2.81,0,0,0,1.691,5.86a3.629,3.629,0,0,0,2.77-.1A2.074,2.074,0,0,0,5.589,4.54c.05-.131.135-.289-.081-.379a1.883,1.883,0,0,0-1.438.334,1.514,1.514,0,0,1-1.58.363,1.312,1.312,0,0,1-.944-1.038c-.081-.3-.011-.467.348-.451.569.018,1.129,0,1.706,0H5.364c.246,0,.411-.05.391-.341A3.311,3.311,0,0,0,5.064.91,3.092,3.092,0,0,0,1.752.21ZM3.829,2.4H2.806c-.246,0-.492.013-.738,0-.174-.014-.413.106-.5-.126-.072-.187.068-.366.169-.521a1.354,1.354,0,0,1,1.409-.512,1.029,1.029,0,0,1,.971.74c.1.28.045.429-.284.422Z" transform="translate(55.13 17.996)" fill="#7b7202"/>
        <path id="Path_606" data-name="Path 606" d="M3.372.051A2.747,2.747,0,0,0,.232,1.9,3.336,3.336,0,0,0,1.587,5.963l.052.02A2.779,2.779,0,0,0,5.6,3.155,2.849,2.849,0,0,0,3.372.051Zm.316,4.514a1.384,1.384,0,0,1-2.21-.975,6.7,6.7,0,0,1,0-.8,1.388,1.388,0,0,1,1.354-1.4A1.332,1.332,0,0,1,4.214,2.8c0,.113,0,.226,0,.273a1.533,1.533,0,0,1-.528,1.5Z" transform="translate(7.669 17.825)" fill="#7b7202"/>
        <path id="Path_607" data-name="Path 607" d="M5.54,4.155h0V2.8A2.781,2.781,0,0,0,2.831,0,2.835,2.835,0,0,0,.01,2.77c-.023.948,0,1.9,0,2.844,0,.341.093.5.451.451a1.67,1.67,0,0,1,.4,0c.431.059.6-.086.585-.553C1.4,4.661,1.425,3.806,1.43,2.955a1.474,1.474,0,0,1,1.354-1.58,1.427,1.427,0,0,1,1.354,1.58c0,.853.036,1.709,0,2.557-.023.474.151.609.58.555a1.75,1.75,0,0,1,.4,0c.323.034.438-.1.424-.422C5.522,5.142,5.54,4.639,5.54,4.155Z" transform="translate(36.621 18.026)" fill="#7b7202"/>
        <path id="Path_608" data-name="Path 608" d="M5.122.014a1.823,1.823,0,0,1-.451,0c-.436-.07-.558.117-.546.537.029.9.02,1.822,0,2.733A1.406,1.406,0,0,1,2.77,4.7a1.354,1.354,0,0,1-1.377-1.42V.94c0-1.1.131-.9-.937-.928C.1,0-.009.12.005.464c.023.53,0,1.063,0,1.594,0,.474-.011.95,0,1.424A2.684,2.684,0,0,0,2.714,6.075a2.727,2.727,0,0,0,2.77-2.483C5.533,2.531,5.5,1.466,5.51.4,5.535.1,5.413-.013,5.122.014Z" transform="translate(14.923 18)" fill="#7b7202"/>
        <path id="Path_609" data-name="Path 609" d="M6.045.026a.977.977,0,0,0-1.189.8A11.884,11.884,0,0,1,4.249,2.3a12.867,12.867,0,0,1-.9,2,.964.964,0,0,1-.334-.567C2.648,2.813,2.3,1.893,1.919.983,1.522.021,1.511.048.461.03-.028.03-.089.164.1.577.843,2.215,1.624,3.84,2.287,5.511c.282.711.767.551,1.271.609.544.063.661-.3.824-.677.7-1.58,1.4-3.16,2.108-4.722C6.795.03,6.806.091,6.045.026Z" transform="translate(47.02 17.975)" fill="#7b7202"/>
        <path id="Path_610" data-name="Path 610" d="M5.506.839c0-.835,0-.81-.849-.837-.42-.014-.548.092-.542.53.023,1.44,0,2.882-.018,4.325A1.327,1.327,0,0,1,2.743,6.3,1.354,1.354,0,0,1,1.42,4.829c0-.451-.113-.637-.567-.576a2.473,2.473,0,0,1-.451,0C.15,4.24.041,4.328.016,4.606A2.776,2.776,0,0,0,2.6,7.678,2.686,2.686,0,0,0,5.5,4.933V2.827Q5.506,1.834,5.506.839Z" transform="translate(0.579 16.393)" fill="#7b7202"/>
        <path id="Path_611" data-name="Path 611" d="M3.844.329C3.844.165,3.75.1,3.6.083A2.9,2.9,0,0,0,.005,2.9c-.011.7,0,1.4,0,2.1V6.812c0,.955,0,.939.946.928.368,0,.494-.12.481-.494-.027-.758.016-1.517-.018-2.273-.02-.451.1-.666.6-.609a10.567,10.567,0,0,0,1.129.011c.178,0,.316,0,.361-.248C3.671,3.223,3.5,3,2.61,3c-.246,0-.494-.014-.738,0-.451.036-.51-.185-.395-.557A1.372,1.372,0,0,1,2.96,1.458c.923-.025.921-.025.883-.968C3.844.442,3.844.386,3.844.329Z" transform="translate(22.069 16.34)" fill="#7b7202"/>
        <path id="Path_612" data-name="Path 612" d="M2.972,6.306A1.354,1.354,0,0,1,1.428,4.772V4.259c0-1.2,0-1.2,1.19-1.25.156,0,.336.061.411-.187.226-.792-.043-1.2-.842-1.2a.657.657,0,0,0-.113,0c-.515.093-.677-.113-.657-.636C1.437-.142,1.643.036.437,0,.069,0-.014.129,0,.463c.02.738,0,1.478,0,2.219H.018c0,.779-.018,1.555,0,2.332A2.772,2.772,0,0,0,3.288,7.668c.072-.014.19-.029.2-.068a2.4,2.4,0,0,0,.025-1.174C3.466,6.162,3.162,6.309,2.972,6.306Z" transform="translate(78.655 16.394)" fill="#7b7202"/>
        <path id="Path_613" data-name="Path 613" d="M1.409,8.962c-.018-1.4,0-2.808,0-4.21s-.032-2.808.016-4.21C1.443-.035,1.142-.01.759.006S-.011-.123,0,.561c.043,2.693.014,5.386.02,8.081,0,.986-.149.846.869.889C1.346,9.549,1.413,9.355,1.409,8.962Z" transform="translate(43.432 0.111)" fill="#7b7202"/>
        <path id="Path_614" data-name="Path 614" d="M3.577.338c0-.226-.1-.278-.311-.3A2.821,2.821,0,0,0,.055,2.349,11.859,11.859,0,0,0,.04,4.155H0V5.236c.016.989-.153.86.93.887.379,0,.494-.117.483-.49C1.389,4.818,1.448,4,1.4,3.186A1.537,1.537,0,0,1,3.13,1.4c.352.061.481-.1.451-.451A5.832,5.832,0,0,1,3.577.338Z" transform="translate(62.851 17.957)" fill="#7b7202"/>
        <path id="Path_615" data-name="Path 615" d="M.914.019a1,1,0,0,1-.341,0C.122-.065-.007.132,0,.576.025,2.093,0,3.612.014,5.131c0,1.1-.181.923.971.943.341,0,.465-.081.451-.451-.027-.853,0-1.706,0-2.562h0c0-.835-.02-1.67,0-2.505C1.454.156,1.366-.06.914.019Z" transform="translate(43.817 18)" fill="#7b7202"/>
        <path id="Path_616" data-name="Path 616" d="M1.4.421C1.4.093,1.281-.031.969.01a1.946,1.946,0,0,1-.451,0c-.4-.052-.528.1-.517.5.027.851,0,1.7,0,2.555H0c0,.833.02,1.666,0,2.5-.014.4.126.553.515.508a2.33,2.33,0,0,1,.452-.013c.307.025.436-.077.431-.413Q1.382,3.032,1.4.421Z" transform="translate(75.32 18.007)" fill="#7b7202"/>
        <path id="Path_617" data-name="Path 617" d="M.788,1.781A.944.944,0,0,0,1.655.9.921.921,0,0,0,.829,0,.876.876,0,0,0,0,.9.919.919,0,0,0,.788,1.781Z" transform="translate(12.567 0.007)" fill="#7b7202"/>
        <path id="Path_618" data-name="Path 618" d="M0,.86a.923.923,0,0,0,.815.932A.952.952,0,0,0,1.641.921.9.9,0,0,0,.819,0,.873.873,0,0,0,0,.86Z" transform="translate(51.781)" fill="#7b7202"/>
        <path id="Path_619" data-name="Path 619" d="M0,.871a.844.844,0,0,0,.761.9A.869.869,0,0,0,1.614.9a.842.842,0,0,0-.8-.9A.815.815,0,0,0,0,.871Z" transform="translate(49.485 0.022)" fill="#7b7202"/>
        <path id="Path_620" data-name="Path 620" d="M1.643.79a.822.822,0,1,0-.813.853A.855.855,0,0,0,1.643.79Z" transform="translate(31.95 10.5)" fill="#7b7202"/>
        <path id="Path_621" data-name="Path 621" d="M1.626.889A.815.815,0,1,0,0,.889a.815.815,0,1,0,1.623,0Z" transform="translate(83.52 10.386)" fill="#7b7202"/>
        <path id="Path_622" data-name="Path 622" d="M.812,0a.808.808,0,1,0,.8.78A.808.808,0,0,0,.812,0Z" transform="translate(43.674 15.532)" fill="#7b7202"/>
        <path id="Path_623" data-name="Path 623" d="M.806,0A.849.849,0,0,0,0,.8a.831.831,0,0,0,.779.824A.813.813,0,1,0,.8,0Z" transform="translate(75.195 15.538)" fill="#7b7202"/>
      </g>
    </g>
  </g>
</svg>
