<svg xmlns="http://www.w3.org/2000/svg" width="153.476" height="56.584" viewBox="0 0 153.476 56.584">
  <g id="logo_white" transform="translate(-12936.998 6166.598)">
    <g id="Group_262" data-name="Group 262" transform="translate(13035.809 -6166.598)">
      <path id="Path_690" data-name="Path 690" d="M389.053,44.69l.057.077a.264.264,0,0,0,.161.2,2.809,2.809,0,0,0,1.108,1.106h0a1.571,1.571,0,0,0,.148.148,17.055,17.055,0,0,0,5.616,2.7c.422.132.438.264.264.609a24.569,24.569,0,0,0-1.541,3.52,10.486,10.486,0,0,0-.718,4.856,3.1,3.1,0,0,0,1.484,2.377,4.506,4.506,0,0,0,3.685.213,26.656,26.656,0,0,0,9.091-5.175h0l.12-.091h0l.117-.1-.05-.051h0c.094-.114.189-.227.287-.335-.1.108-.191.222-.287.335l.05.051,1.33-1.1c.25-.078.37-.313.562-.461.079-.061.119-.2.243-.164.165.049.1.2.1.316q0,5.777.016,11.556c0,.382-.156.441-.482.379a3.506,3.506,0,0,1-1.827-.984,12.055,12.055,0,0,1-2.7-4.006c-.067-.162-.1-.364-.3-.458a.462.462,0,0,0,.015.43,16.154,16.154,0,0,0,2,4.319,4.1,4.1,0,0,0,3.077,2.148c.243.018.209.194.209.347,0,.668.041,1.34-.009,2-.038.506.132.611.614.61q15.356-.018,30.712-.011c.819,0,.689.051.689-.718V14.2c0-.7,0-.7-.687-.7H431.338q-9.92,0-19.841-.012c-.469,0-.66.1-.619.609.05.66.008,1.336.013,2,0,.191-.009.343-.252.376-1.452.2-2.01,1.2-2.2,2.509a2.712,2.712,0,0,1-.792,1.735,1.29,1.29,0,0,0-.3.717c-.081.341-.164.683-.264,1.019a11.939,11.939,0,0,0-.615,2.664,3.73,3.73,0,0,0,.116,1.5c.242-.14.2-.356.247-.528a10.45,10.45,0,0,1,.841-3.249A21.412,21.412,0,0,0,409.494,18a1.379,1.379,0,0,1,.66-.837c.625-.35.738-.287.738.421V30.088c0,.317.007.634,0,.949,0,.236-.094.276-.285.116-.36-.3-.747-.569-1.1-.879a32.912,32.912,0,0,0-7.541-5.06,10.225,10.225,0,0,0-4.591-1.244,3.248,3.248,0,0,0-2.773,1.371,4.01,4.01,0,0,0-.69,2.234,15.014,15.014,0,0,0,1.54,6.219c.038.092.066.264.308.166a14.854,14.854,0,0,1-.64-2.082,14.171,14.171,0,0,1-.132-3.544,2.605,2.605,0,0,1,3.411-2.618,12.887,12.887,0,0,1,3.709,1.32,39.234,39.234,0,0,1,7.236,4.955c.512.434,1.033.858,1.632,1.356v-1.26c0-.112-.058-.264.1-.323s.218.088.3.164c.813.708,1.522,1.52,2.267,2.3l.042-.046h0l-.042.046c.276.357.556.71.829,1.069.18.235.289.409-.174.429-.883.038-1.746-.158-2.622-.186-.706-.021-.737-.037-.691-.718.034-.508-.132-.646-.638-.64a62.716,62.716,0,0,0-9.281.786,25.136,25.136,0,0,0-4.7,1.128l-.106.02a1.083,1.083,0,0,0-.557.181.054.054,0,0,0-.077.015,2.875,2.875,0,0,0-1.188.411.059.059,0,0,0-.084.026,12.511,12.511,0,0,0-4.435,2.509h0a3.381,3.381,0,0,0-1.044,1.269l-.029.013v.034a3.362,3.362,0,0,0,.211,4.12Zm.283-2.538a.3.3,0,0,0,.007.046.292.292,0,0,1-.007-.044Zm23.973,11.6a.558.558,0,0,0-.024-.071.558.558,0,0,1,.024.071Zm-1.871-.97a1.116,1.116,0,0,0-.194-.217.473.473,0,0,0-.157-.086.473.473,0,0,1,.157.086A1.116,1.116,0,0,1,411.437,52.778Zm4.406,9.994a.645.645,0,0,0-.067-.033A.614.614,0,0,1,415.843,62.772Zm-1.5-32.62a3.246,3.246,0,0,1-.09,1.508c-.1.487-.553.314-.87.4-.66.065-.792-.03-.683-.667a12.238,12.238,0,0,0-.173-2.925c-.056-.771.061-.869.858-.792.97.085.977.085.873,1.087a3.818,3.818,0,0,0,.083,1.392Zm.688,11.656a3.357,3.357,0,0,1-.079,1.41.431.431,0,0,1-.426.4c-.28.015-.56.044-.852.067-.337.04-.622-.042-.547-.465a11.19,11.19,0,0,0-.143-3.091c-.079-.821.022-.924.833-.866.157.011.316.017.474.021.7.016.763.086.683.8a4.791,4.791,0,0,0,.055,1.722Zm.283,6.249.112.055ZM410.943,50.4c.05-1.188-.169-.992,1-1.015,1.477-.029,2.951-.123,4.421-.264.189-.018.474.063.5-.252a.6.6,0,0,0-.376-.672,3.688,3.688,0,0,0-1.231-.158h0a.166.166,0,0,0-.217,0l-.416-.124a.679.679,0,0,0-.635-.083l-.474-.312a16.625,16.625,0,0,1,2.21-.264,1.072,1.072,0,0,0,1.087-1.178c-.067-1.092.067-2.176.085-3.264a33.348,33.348,0,0,0,.092-4.105c-.106-.989-.321-1.138-1.308-1.019a8.9,8.9,0,0,1-2.926-.264,1.175,1.175,0,0,1,.6-.169c.767-.1,1.534-.19,2.3-.3a.817.817,0,0,0,.792-1.056,12.088,12.088,0,0,1-.124-1.681,4.139,4.139,0,0,0-.264-1.444,12.354,12.354,0,0,1-.72-3.815c-.05-.737-.12-1.471-.177-2.206-.026-.337-.181-.475-.52-.38a2.094,2.094,0,0,1-.363.066,4.377,4.377,0,0,1-2.67-.43c.283-.033.412-.05.543-.062.7-.066,1.4-.111,2.1-.2.506-.069.59-.28.426-.767a14.191,14.191,0,0,1-.66-2.49A22.716,22.716,0,0,0,412.531,18a1.379,1.379,0,0,0-.448-.7c-.112-.292-.4-.3-.636-.4a.672.672,0,0,0-.419-.04c-.206-.4.083-.408.333-.4a3.361,3.361,0,0,1,1.558.639c.869,1.171,1.1,2.651,1.878,3.867a.549.549,0,0,1,.055.256,13.62,13.62,0,0,0,.845,3.578c.09.264.186.433.485.448.244.012.51.013.578.337a.593.593,0,0,1-.289.68c-.313.178-.314.424-.256.718.112.569.2,1.142.322,1.709a31.851,31.851,0,0,0,.528,3.276,7.349,7.349,0,0,1,.314,1.6c.079.8.244,1.6.378,2.4.032.187.053.417.331.379.25-.034.42.04.485.285a.465.465,0,0,1-.232.585c-.23.114-.214.252-.148.469a9.409,9.409,0,0,1,.364,3.543c-.145,1.633-.132,3.267-.148,4.9,0,.193-.03.383.292.36.264-.018.322.234.351.445s.1.5-.132.564c-.489.132-.5.528-.611.89-.117.388-.033.545.415.482,1.359-.194,2.709-.424,4.05-.72.309-.069.4-.187.206-.462-.1-.144-.185-.3-.276-.449-1-1.633-2.037-3.239-3.185-4.772-.148-.2-.279-.355-.045-.622.452-.514.857-1.068,1.269-1.615a39.521,39.521,0,0,0,4.983-8.225,10.933,10.933,0,0,0,1.142-4.568,2.457,2.457,0,0,0-1.664-2.392,6.492,6.492,0,0,0-3.433-.25c-.84.123-1.649.384-2.489.507a18.573,18.573,0,0,1,2.567-1.072,7.988,7.988,0,0,1,1.491-.333,4.929,4.929,0,0,1,2.7.206,3.768,3.768,0,0,1,1.991,4.059,18.364,18.364,0,0,1-2.257,6.537,45.23,45.23,0,0,1-4.98,7.422.47.47,0,0,0-.017.721,15.935,15.935,0,0,1,1.027,1.466c.721,1.019,1.334,2.113,1.981,3.169a.452.452,0,0,0,.636.236c.514-.178,1.056-.285,1.566-.465a15.512,15.512,0,0,0,4.893-2.509,2.715,2.715,0,0,0,.87-3.594,7.187,7.187,0,0,0-2.188-2.525,26.407,26.407,0,0,0-3.181-2.081.856.856,0,0,1,.611.088c.629.264,1.225.621,1.848.864a9.358,9.358,0,0,1,3.247,2.177,3.714,3.714,0,0,1,1.076,3.766,5.15,5.15,0,0,1-2.068,2.72,17.429,17.429,0,0,1-5.921,2.793c-.4.115-.536.222-.3.626a21.684,21.684,0,0,1,1.9,4.677,7.959,7.959,0,0,1,.314,4.263,2.9,2.9,0,0,1-2.419,2.341,6.232,6.232,0,0,1-3.207-.4,24.426,24.426,0,0,1-3.433-1.584c-.05-.107-.14-.1-.232-.082l-.132-.119a4.827,4.827,0,0,1-.613-.411c-.318-.288-.421-.066-.494.19-.157.562-.294,1.13-.44,1.7l-.033.2-1.056,2.741h0a6.982,6.982,0,0,0-.646,1.258h0a15.833,15.833,0,0,1-1.778,2.121.11.11,0,0,0-.116.1c-.355.132-.706.288-1.068.405-.264.086-.454.055-.467-.325-.018-.537-.014-.977.66-1.124a1.474,1.474,0,0,0,.834-.68.37.37,0,0,0-.479.153.37.37,0,0,1,.479-.153v-.007l.1-.116v.008a2.04,2.04,0,0,0,.584-.786h0a2.64,2.64,0,0,0,.545-1.056.762.762,0,0,0-.173.077.757.757,0,0,1,.173-.077l.1-.172a.936.936,0,0,1-.008-.139.953.953,0,0,0,.008.139,1.8,1.8,0,0,0,.416-.885,27.162,27.162,0,0,0,1.39-4.357c.046-.173-.046-.264-.165-.346l-2.484-1.849a.279.279,0,0,0-.228-.2l-.036-.021-.14-.114h0a.12.12,0,0,0-.123-.1,2.663,2.663,0,0,0-.734-.632.264.264,0,0,0-.226-.2.276.276,0,0,0-.2-.173l-.011-.029c.086-.343-.187-.751.189-1.042a.316.316,0,0,0,.222.194h0l.169.148h0a5.612,5.612,0,0,0,1.3,1.128.315.315,0,0,0,.223.191l.012.028h.03a2.346,2.346,0,0,0,.792.626.264.264,0,0,0,.224.2h0a2.517,2.517,0,0,0,.842.629c.123.1.243.2.367.3.164.132.236.075.275-.12a36.96,36.96,0,0,0,.635-4.269c.331-1.229.33-1.246-.924-1.142q-2.052.172-4.108.209c-.374.021-.566-.041-.547-.5Zm.7-29.209c-.125-.555.288-.61.629-.709.421-.121.382.238.437.478a12.006,12.006,0,0,0,.424,1.735.6.6,0,0,1-.09.731,1.359,1.359,0,0,1-.862.157c-.132,0-.169-.157-.22-.271a1.657,1.657,0,0,1-.074-.766,4.766,4.766,0,0,0-.243-1.359Zm1.628,42.089a.643.643,0,0,1,.069-.132.562.562,0,0,1,.1-.114.562.562,0,0,0-.1.114.66.66,0,0,0-.069.129Zm-2.641-11.136h0l-.032.011v.033a.385.385,0,0,0-.219.25h0l-.132.115-.069.067-.151.144h0a.053.053,0,0,0-.066.053.264.264,0,0,0-.2.166,1.1,1.1,0,0,0-.528.423h0l-.107.1h0c-1.32,1.026-2.61,2.074-4,3a21.951,21.951,0,0,1-5.763,2.9,8.374,8.374,0,0,1-1.188.264c-2.092.312-3.264-.792-3.144-2.913a14.067,14.067,0,0,1,1.1-4.269,21.087,21.087,0,0,1,1.32-2.812.363.363,0,0,1,.492-.217,54.565,54.565,0,0,0,12.116,1.5c.279.008.671-.158.815.169a.916.916,0,0,1-.25,1.007Zm.272-16.058c-.012,1.019,0,2.039,0,3.058,0,3.2-.008,6.4.012,9.6,0,.458-.112.6-.581.593a56.424,56.424,0,0,1-11.355-1.211c-.584-.132-.594-.164-.288-.66.334-.536.675-1.068.976-1.623.108-.2.218-.3.367-.318a3.42,3.42,0,0,0,4.065-5.342c-.041-.124.009-.226.121-.358.45-.528.885-1.079,1.32-1.62h0l2.177-2.279a.641.641,0,0,1,.482-.271c.755,0,1.512,0,2.267-.041C410.835,35.591,410.9,35.766,410.9,36.081Zm-5.989,2.334Zm.2,0a.341.341,0,0,1-.111.016.341.341,0,0,0,.1-.017Zm-10.678-.239c.994-.442,2.062-.669,3.083-1.033l3.722-.831.287-.028c1.443-.151,2.877-.4,4.328-.471.18-.009.379-.124.536.067l-.029.017v.033h0a13.284,13.284,0,0,0-1.678,1.839.31.31,0,0,0-.2.223h0c-.329.362-.676.71-.98,1.092-.147.185-.277.3-.462.3A3.42,3.42,0,0,0,399.1,44.85a.483.483,0,0,1-.092.264c-.5.766-.978,1.538-1.439,2.325-.158.271-.326.231-.566.168a19.479,19.479,0,0,1-5.663-2.47h-.008a4.621,4.621,0,0,1-1.826-2.509v-.194l-.045-.045a.529.529,0,0,1-.069-.09.529.529,0,0,0,.069.09l.045.045.206-.846a9.35,9.35,0,0,1,4.723-3.412Zm11.944-2.151a.831.831,0,0,0-.012-.09.832.832,0,0,1,.005.088Z" transform="translate(-388.237 -13.491)" fill="#fff"/>
      <path id="Path_691" data-name="Path 691" d="M499,159.6a21.519,21.519,0,0,0,3.5,1.926,7.635,7.635,0,0,0,3.257.78,2.148,2.148,0,0,0,2.377-1.919c.062-.309.074-.627.106-.914a19.552,19.552,0,0,0-2.472-7.641c-.11-.217-.272-.177-.448-.132a35.282,35.282,0,0,1-5.122.961c-.378.05-.5.177-.528.539a54.592,54.592,0,0,1-.9,5.885A.421.421,0,0,0,499,159.6Z" transform="translate(-470.04 -115.76)" fill="#fff"/>
    </g>
    <g id="Group_263" data-name="Group 263" transform="translate(12936.998 -6151.102)">
      <path id="Path_692" data-name="Path 692" d="M101.454,83.289a3.123,3.123,0,0,0,3.28-3.22c-.037-1.961-.049-3.923.009-5.882.022-.742-.386-.607-.827-.648-.519-.05-.613.176-.609.631.013,1.864,0,3.729-.008,5.592,0,1.429-.535,1.954-1.974,1.944-.691,0-.792.132-.549-.716a3.012,3.012,0,0,0-2.983-3.914c-1.629.055-3.261,0-4.893.008-1.08,0-.932-.181-.974.941-.02.528.165.642.66.632,1.786-.03,3.573-.021,5.359-.007a1.411,1.411,0,0,1,1.488,1.574A1.472,1.472,0,0,1,97.9,81.707H96.1c-2.233,0-4.465-.013-6.7.016-.528.007-.688-.165-.631-.669a7.631,7.631,0,0,0,.011-1.163,2.936,2.936,0,0,0-3.084-2.967H84.064a2.918,2.918,0,0,0-2.956,2.522,3.017,3.017,0,0,0,2.057,3.532,7.222,7.222,0,0,0,3.679-.038c.125-.033.254-.169.375-.061s.054.288,0,.434a1.376,1.376,0,0,1-1.361.9H83.236c-1.233,0-1-.132-1.056,1.048-.018.453.156.552.574.54.97-.029,1.941-.013,2.913-.012a2.69,2.69,0,0,0,2.9-2.024.627.627,0,0,1,.713-.491c2.077.016,4.155.008,6.233.008h2.971C99.474,83.274,100.472,83.212,101.454,83.289ZM85.991,81.544c-.366.028-.735,0-1.1,0h-.924A1.52,1.52,0,0,1,82.5,80.1a1.489,1.489,0,0,1,1.347-1.6A19.991,19.991,0,0,1,86,78.5a1.483,1.483,0,0,1,1.353,1.485,1.553,1.553,0,0,1-1.357,1.561Z" transform="translate(-62.075 -73.423)" fill="#fff"/>
      <path id="Path_693" data-name="Path 693" d="M223.767,84.215H221.9a2.212,2.212,0,0,0-.792.132,3.1,3.1,0,0,0-1.812,3.961c.132.421.066.548-.383.544-1.961-.017-3.923,0-5.884-.017a1.426,1.426,0,0,1-1.532-1.529,1.384,1.384,0,0,1,1.52-1.516c1.01-.011,2.019,0,3.029-.008,1.047,0,1.036-.008,1.032-1.056,0-.346-.053-.528-.477-.516-1.242.029-2.485.009-3.727,0a2.551,2.551,0,0,0-1.384.383,3.119,3.119,0,0,0-1.307,3.655c.15.528,0,.588-.461.58q-1.776-.032-3.553.008c-.4.009-.5-.123-.486-.5.022-.776.036-1.554,0-2.329a2.822,2.822,0,0,0-3.888-2.695,2.886,2.886,0,0,0-1.776,2.773c-.045,1.143-.016,2.291-.016,3.433,0,.906,0,.887.933.882.4,0,.506-.151.49-.519-.022-.5,0-1.009,0-1.514,0-.757-.017-1.516.03-2.271a1.4,1.4,0,0,1,2.205-1.176,1.5,1.5,0,0,1,.568,1.336c.008,1.188.024,2.369,0,3.553-.011.45.1.6.577.594,3.2-.022,6.408-.012,9.611-.012h0c3.127,0,6.252-.041,9.375.016a3.108,3.108,0,0,0,3.076-3.129,2.987,2.987,0,0,0-3.106-3.065Zm.148,4.64q-.924.025-1.86,0a1.478,1.478,0,0,1-1.468-1.546,1.423,1.423,0,0,1,1.462-1.533c.329-.013.66,0,.988,0h0c.31,0,.621-.015.924,0a1.476,1.476,0,0,1,1.435,1.584,1.54,1.54,0,0,1-1.48,1.495Z" transform="translate(-150.098 -80.503)" fill="#fff"/>
      <path id="Path_694" data-name="Path 694" d="M25.106,90.4a2.9,2.9,0,0,0-2.855-3.046c-.562-.007-1.129.038-1.689-.009a3.058,3.058,0,0,0-3,4.133c.147.408.069.515-.343.512-2.077-.008-4.154.009-6.231-.009a1.507,1.507,0,0,1-1.529-1.565,1.443,1.443,0,0,1,1.584-1.487c.99-.008,1.981,0,2.97,0,1.353,0,1.035.07,1.1-1.068.025-.437-.158-.516-.54-.51-1.087.017-2.173,0-3.261,0a3.9,3.9,0,0,0-1.212.1,3.14,3.14,0,0,0-2.074,3.4,3.013,3.013,0,0,0,2.942,2.694c1.863.013,3.727,0,5.59,0h0c1.922,0,3.844.026,5.765-.008A2.932,2.932,0,0,0,25.106,90.4Zm-2.968,1.594c-.582.011-1.163.013-1.746,0a1.532,1.532,0,0,1-1.546-1.54,1.452,1.452,0,0,1,1.534-1.54c.31-.011.621,0,.931,0h.815a1.442,1.442,0,0,1,1.536,1.528,1.493,1.493,0,0,1-1.524,1.551Z" transform="translate(-7.998 -83.64)" fill="#fff"/>
      <path id="Path_695" data-name="Path 695" d="M319.206,83.31a2.886,2.886,0,0,0,2.927-3.029,2.833,2.833,0,0,0-2.888-3.156c-1.475-.017-2.951-.008-4.427-.007-.976,0-.947,0-.976,1-.015.5.184.578.613.573,1.534-.021,3.067-.012,4.6-.012a1.452,1.452,0,0,1,1.657,1.52,1.484,1.484,0,0,1-1.652,1.536h-7.048a1.544,1.544,0,0,1-1.668-1.607c-.017-.621,0-1.242,0-1.863,0-1.262.009-2.525,0-3.785-.009-.951.218-.873-.9-.9-.372-.008-.512.1-.508.49.018,2.113-.011,4.233.026,6.348a2.929,2.929,0,0,0,2.959,2.892h3.611C316.74,83.311,317.982,83.317,319.206,83.31Z" transform="translate(-230.73 -73.46)" fill="#fff"/>
      <path id="Path_696" data-name="Path 696" d="M343.861,144.39c0-.325-.1-.469-.436-.432a2.254,2.254,0,0,1-.528,0c-.366-.048-.481.115-.469.461.017.528.008,1.047,0,1.57a1.447,1.447,0,0,1-1.355,1.633,1.477,1.477,0,0,1-1.4-1.66c0-.543,0-1.087.007-1.629.007-.264-.083-.366-.364-.382-1.064-.063-1.064-.075-1.056.972v.873a2.808,2.808,0,0,0,3.866,3.017c.12-.032.272-.152.3.091.107.956-.161,1.991-1.409,2.024a9.409,9.409,0,0,1-1.278-.016c-.478-.053-.634.132-.574.581a1.708,1.708,0,0,1,0,.407c-.04.36.12.478.47.461.483-.024.969,0,1.452-.011a2.746,2.746,0,0,0,2.75-2.789c.015-.833,0-1.668,0-2.5h0C343.856,146.174,343.847,145.283,343.861,144.39Z" transform="translate(-252.446 -125.533)" fill="#fff"/>
      <path id="Path_697" data-name="Path 697" d="M129.446,137.638a1.511,1.511,0,0,1-.407,0c-.416-.058-.574.073-.565.528.029,1.434,0,2.869,0,4.3a1.414,1.414,0,0,1-1.373,1.6,1.429,1.429,0,0,1-1.385-1.6c0-1.415-.029-2.832.012-4.246.015-.51-.149-.66-.617-.592a1.6,1.6,0,0,1-.407,0c-.346-.038-.423.132-.42.445.013,1.57-.017,3.142.018,4.712a2.792,2.792,0,1,0,5.584-.048c.015-.755,0-1.512,0-2.268h0c0-.792-.016-1.584.008-2.385C129.912,137.741,129.808,137.594,129.446,137.638Z" transform="translate(-94.066 -120.86)" fill="#fff"/>
      <path id="Path_698" data-name="Path 698" d="M280.261,146.786a6.932,6.932,0,0,0-.894-.255,7.584,7.584,0,0,1-1.765-.577c-.285-.151-.43-.375-.07-.609s1.431-.23,1.657.124c.4.622.953.446,1.489.477.458.026.462-.16.316-.528a2.41,2.41,0,0,0-2.614-1.426,3.062,3.062,0,0,0-2.036.52,1.484,1.484,0,0,0,.067,2.493,6.258,6.258,0,0,0,1.653.7c.4.1.792.209,1.171.342a.4.4,0,0,1,.314.379.481.481,0,0,1-.33.437,1.549,1.549,0,0,1-2-.6c-.052-.084-.087-.162-.191-.2a5.107,5.107,0,0,0-1.525.082,2.312,2.312,0,0,0,.581,1.3,1,1,0,0,0,.132.12,4.155,4.155,0,0,0,4.534-.05,1.584,1.584,0,0,0-.492-2.723Z" transform="translate(-205.99 -125.578)" fill="#fff"/>
      <path id="Path_699" data-name="Path 699" d="M226.825,144.225a2.839,2.839,0,0,0-1.767,2.757,2.874,2.874,0,0,0,1.7,3.022,3.714,3.714,0,0,0,2.833-.1,2.123,2.123,0,0,0,1.145-1.25c.05-.132.139-.294-.083-.387a1.926,1.926,0,0,0-1.471.342,1.549,1.549,0,0,1-1.613.372,1.342,1.342,0,0,1-.966-1.056c-.085-.306-.012-.477.354-.466.581.017,1.163,0,1.746,0h1.8c.252,0,.42-.05.4-.347a3.388,3.388,0,0,0-.705-2.165A3.169,3.169,0,0,0,226.825,144.225Zm2.124,2.245c-.349-.008-.7,0-1.044,0h0c-.251,0-.5.015-.754,0-.177-.013-.423.108-.514-.132-.074-.191.07-.374.173-.528a1.389,1.389,0,0,1,1.439-.528,1.056,1.056,0,0,1,.993.758c.1.287.045.438-.292.43Z" transform="translate(-168.653 -125.601)" fill="#fff"/>
      <path id="Path_700" data-name="Path 700" d="M41.719,143.366a2.81,2.81,0,0,0-3.211,1.891,3.413,3.413,0,0,0,1.4,4.159l.054.021a2.843,2.843,0,0,0,4.048-2.893,2.914,2.914,0,0,0-2.287-3.178Zm.322,4.621a1.415,1.415,0,0,1-2.259-1c-.013-.271-.018-.544-.008-.815a1.419,1.419,0,0,1,1.381-1.435,1.361,1.361,0,0,1,1.413,1.442v.28a1.567,1.567,0,0,1-.527,1.529Z" transform="translate(-30.435 -125.079)" fill="#fff"/>
      <path id="Path_701" data-name="Path 701" d="M157.813,148.3h0v-1.4a2.844,2.844,0,0,0-2.762-2.867,2.9,2.9,0,0,0-2.886,2.832c-.022.969.011,1.94-.008,2.9-.007.349.1.511.457.471a1.7,1.7,0,0,1,.407,0c.442.061.618-.087.6-.566-.04-.87-.017-1.744-.013-2.617a1.508,1.508,0,0,1,1.4-1.616,1.459,1.459,0,0,1,1.388,1.615c.011.873.036,1.747-.007,2.617-.024.485.154.625.593.569a1.787,1.787,0,0,1,.407,0c.33.034.448-.1.434-.433C157.8,149.311,157.813,148.807,157.813,148.3Z" transform="translate(-114.699 -125.612)" fill="#fff"/>
      <path id="Path_702" data-name="Path 702" d="M71.978,144a1.871,1.871,0,0,1-.465,0c-.446-.07-.57.119-.557.549.029.931.021,1.864.011,2.8a1.438,1.438,0,0,1-1.38,1.443,1.377,1.377,0,0,1-1.409-1.452c-.011-.792,0-1.592,0-2.389-.008-1.126.132-.912-.957-.949-.363-.012-.475.111-.461.462.022.543,0,1.087,0,1.631,0,.486-.012.972,0,1.452a2.745,2.745,0,0,0,2.773,2.653,2.789,2.789,0,0,0,2.832-2.544c.05-1.085.013-2.175.028-3.261C72.4,144.083,72.274,143.968,71.978,144Z" transform="translate(-51.485 -125.568)" fill="#fff"/>
      <path id="Path_703" data-name="Path 703" d="M199.191,143.966a1,1,0,0,0-1.216.823,12.144,12.144,0,0,1-.622,1.5,13.149,13.149,0,0,1-.933,2.043.985.985,0,0,1-.341-.578c-.371-.937-.731-1.879-1.117-2.81-.408-.984-.419-.956-1.492-.974-.5-.009-.564.132-.371.559.762,1.676,1.561,3.338,2.245,5.048.288.728.784.564,1.3.625.556.065.676-.312.842-.685.716-1.612,1.429-3.224,2.156-4.831C199.959,143.97,199.968,144.034,199.191,143.966Z" transform="translate(-144.923 -125.551)" fill="#fff"/>
      <path id="Path_704" data-name="Path 704" d="M15.879,138.508c0-.853,0-.829-.867-.856-.429-.013-.561.094-.553.543.024,1.474.009,2.95-.018,4.423a1.359,1.359,0,0,1-1.377,1.476,1.39,1.39,0,0,1-1.353-1.5c.008-.45-.115-.652-.58-.59a2.529,2.529,0,0,1-.465,0c-.264-.013-.368.077-.4.36A2.839,2.839,0,0,0,12.91,145.5a2.748,2.748,0,0,0,2.963-2.807c.008-.718,0-1.437,0-2.154Q15.879,139.527,15.879,138.508Z" transform="translate(-9.667 -120.882)" fill="#fff"/>
      <path id="Path_705" data-name="Path 705" d="M98.754,137.933c0-.169-.1-.232-.254-.252a2.967,2.967,0,0,0-3.672,2.885c-.012.717,0,1.434,0,2.152v1.849c0,.976,0,.96.968.949.378,0,.5-.124.491-.506-.028-.775.016-1.551-.017-2.325-.02-.467.1-.68.609-.623a10.831,10.831,0,0,0,1.162.012c.182,0,.322-.007.368-.254.177-.935.007-1.165-.908-1.165-.252,0-.506-.015-.755,0-.47.038-.522-.189-.4-.569a1.4,1.4,0,0,1,1.518-1c.943-.026.943-.026.9-.99A.96.96,0,0,1,98.754,137.933Z" transform="translate(-72.262 -120.88)" fill="#fff"/>
      <path id="Path_706" data-name="Path 706" d="M320.606,144.116a1.394,1.394,0,0,1-1.585-1.57c0-.174,0-.349,0-.528,0-1.225,0-1.224,1.216-1.278.158-.007.345.063.42-.191.239-.811-.044-1.227-.861-1.227a.663.663,0,0,0-.116,0c-.528.1-.683-.115-.672-.65.022-1.143.24-.972-1-1.009-.378-.011-.457.132-.446.474.021.755.007,1.513.007,2.268h.016c0,.792-.017,1.591,0,2.386a2.833,2.833,0,0,0,3.346,2.715c.073-.015.194-.03.206-.07a2.456,2.456,0,0,0,.026-1.2C321.109,143.968,320.8,144.12,320.606,144.116Z" transform="translate(-237.123 -120.894)" fill="#fff"/>
      <path id="Path_707" data-name="Path 707" d="M180.339,82.73c-.018-1.435-.007-2.872-.007-4.307s-.032-2.873.016-4.307c.02-.591-.288-.566-.68-.548s-.792-.132-.776.568c.042,2.754.015,5.51.021,8.265,0,1.01-.152.866.89.91C180.273,83.33,180.343,83.131,180.339,82.73Z" transform="translate(-134.482 -73.446)" fill="#fff"/>
      <path id="Path_708" data-name="Path 708" d="M259.021,144.184c0-.221-.106-.285-.318-.312a2.886,2.886,0,0,0-3.282,2.367,12.147,12.147,0,0,0-.016,1.858h-.04V149.2c.015,1.013-.156.879.952.907.387.009.5-.119.494-.5-.025-.833.036-1.672-.02-2.5a1.571,1.571,0,0,1,1.773-1.831c.359.063.492-.1.461-.454a5.968,5.968,0,0,1,0-.639Z" transform="translate(-191.085 -125.469)" fill="#fff"/>
      <path id="Path_709" data-name="Path 709" d="M181.369,144a1.025,1.025,0,0,1-.349,0c-.47-.085-.594.115-.586.572.025,1.553,0,3.106.013,4.658.009,1.126-.184.943.993.964.349,0,.475-.083.465-.453-.026-.873-.009-1.747-.009-2.62h0c0-.854-.02-1.709.009-2.562C181.921,144.139,181.831,143.919,181.369,144Z" transform="translate(-135.624 -125.566)" fill="#fff"/>
      <path id="Path_710" data-name="Path 710" d="M305.871,144.435c0-.335-.124-.454-.445-.421a1.991,1.991,0,0,1-.463,0c-.4-.054-.541.1-.528.514.028.87.009,1.742.009,2.613h0c0,.852.021,1.7-.009,2.555-.014.412.132.566.528.519a2.387,2.387,0,0,1,.463-.015c.313.024.445-.078.442-.423Q305.848,147.106,305.871,144.435Z" transform="translate(-227.402 -125.584)" fill="#fff"/>
      <path id="Path_711" data-name="Path 711" d="M58.228,74.953a.964.964,0,0,0,.887-.9.941.941,0,0,0-.846-.931.9.9,0,0,0-.846.924.94.94,0,0,0,.805.9Z" transform="translate(-44.578 -73.123)" fill="#fff"/>
      <path id="Path_712" data-name="Path 712" d="M211.777,74.006a.944.944,0,0,0,.833.953.974.974,0,0,0,.846-.893.916.916,0,0,0-.841-.941.9.9,0,0,0-.838.881Z" transform="translate(-158.822 -73.125)" fill="#fff"/>
      <path id="Path_713" data-name="Path 713" d="M202.754,74.047a.865.865,0,0,0,.778.914.889.889,0,0,0,.87-.893.861.861,0,0,0-.82-.932.833.833,0,0,0-.828.911Z" transform="translate(-152.145 -73.132)" fill="#fff"/>
      <path id="Path_714" data-name="Path 714" d="M135.407,114.9a.84.84,0,1,0-.83.873A.875.875,0,0,0,135.407,114.9Z" transform="translate(-101.061 -103.348)" fill="#fff"/>
      <path id="Path_715" data-name="Path 715" d="M338.39,114.911a.833.833,0,1,0-.392.783.833.833,0,0,0,.392-.783Z" transform="translate(-251.306 -103.383)" fill="#fff"/>
      <path id="Path_716" data-name="Path 716" d="M180.773,134.3a.826.826,0,1,0,.855.8.826.826,0,0,0-.855-.8Z" transform="translate(-135.283 -118.407)" fill="#fff"/>
      <path id="Path_717" data-name="Path 717" d="M304.767,134.287a.868.868,0,0,0-.824.817.85.85,0,0,0,.792.844.831.831,0,0,0,.026-1.661Z" transform="translate(-227.04 -118.392)" fill="#fff"/>
    </g>
  </g>
</svg>
